<svg width="24" height="17" viewBox="0 0 24 17" fill="none" xmlns="http://www.w3.org/2000/svg">
<path fill-rule="evenodd" clip-rule="evenodd" d="M16.7325 16.2858C19.329 16.2874 19.329 16.2874 18.8154 13.933C18.6605 13.2237 19.8353 11.9365 20.7089 11.858C23.1072 11.6422 24.2538 10.0715 23.8014 7.66152C23.6409 6.80617 23.0573 6.45273 22.3094 6.22602C21.3816 5.94499 21.0304 4.5127 21.7065 3.81145C21.7994 3.71509 21.8988 3.62416 21.9877 3.52418C23.1173 2.25424 22.926 1.47291 21.3183 0.986702C20.6834 0.79459 19.99 0.567677 19.3567 0.641907C17.7561 0.829391 16.2723 0.31763 14.7344 0.120087C11.2074 -0.332532 8.0169 0.462267 5.42269 3.05145C5.21086 3.26307 5.03525 3.51252 4.85279 3.7517C4.67335 3.98666 4.59128 4.24516 4.88216 4.44491C5.13784 4.62073 5.31929 4.42701 5.4768 4.24737C8.63206 0.646936 12.5276 0.102184 16.8816 1.50208C17.2326 1.61494 17.5338 1.53668 17.8615 1.48478C19.0437 1.2977 20.1952 1.44596 21.3255 1.81892C21.8996 2.00821 21.9869 2.31499 21.5747 2.76016C21.552 2.78471 21.5373 2.82091 21.5102 2.8362C19.888 3.75693 20.5015 5.04679 20.9019 6.32982C21.0419 6.77882 21.3323 6.88684 21.7111 6.92486C22.7556 7.03027 23.1283 7.60459 23.04 8.63133C22.9155 10.0787 22.4359 11.0461 21.4858 10.9588C19.9455 10.8174 19.165 11.8964 18.1326 12.611C17.5378 13.0225 17.8947 13.5088 17.9999 13.966C18.3487 15.4806 18.3557 15.4792 16.8303 15.4794C16.4618 15.4794 16.0882 15.4401 15.7259 15.4874C15.1512 15.5626 14.8537 15.3349 14.7366 14.7807C14.6161 14.2114 14.3087 13.925 13.6632 14.0435C13.1011 14.1466 12.5316 14.0364 11.9696 13.9183C11.3391 13.786 11.0257 14.0398 11.2737 14.6795C11.5584 15.413 11.2154 15.4013 10.6107 15.5087C8.7429 15.8408 7.67834 15.0125 6.79724 13.4476C5.75682 11.6001 4.72767 9.78099 4.4223 7.64664C4.37925 7.3463 4.36115 6.96469 3.92703 7.07372C3.56071 7.16545 3.59692 7.52976 3.63736 7.83392C3.79608 9.03748 4.18573 10.1755 4.68703 11.2716C5.42812 12.8924 6.44722 14.3456 7.47215 15.7946C7.70208 16.1195 7.94951 16.3031 8.37477 16.2933C9.47996 16.2675 10.5864 16.2788 11.692 16.287C12.1906 16.2909 12.4592 16.1368 12.3417 15.5703C12.2926 15.3345 11.9257 14.901 12.4459 14.8775C12.9394 14.8551 13.8032 14.6027 13.9172 15.0696C14.3689 16.9199 15.7861 16.0941 16.7325 16.2858Z" fill="black"/>
<path fill-rule="evenodd" clip-rule="evenodd" d="M3.22056 5.1314C3.46859 4.82483 3.75424 4.543 3.95239 4.20947C4.24408 3.71762 4.26419 3.19178 3.9015 2.70918C3.66794 2.39798 3.35332 2.20748 2.9518 2.29459C2.38794 2.41689 2.2089 2.88842 1.99205 3.35351C1.83534 3.68946 2.13145 4.36436 1.6557 4.33479C1.04436 4.29697 1.08641 3.62589 1.09023 3.12097C1.09284 2.77235 1.24653 2.27145 0.699368 2.28694C0.198068 2.30082 0.299052 2.81781 0.283763 3.1614C0.228041 4.41224 0.620512 4.97047 1.80718 5.22353C2.1401 5.29474 2.32216 5.49571 2.55229 5.67414C3.22297 6.19455 4.0061 6.30157 4.82162 6.28226C5.03928 6.27703 5.24165 6.18731 5.27544 5.96784C5.31869 5.68681 5.11431 5.53976 4.86105 5.50577C4.30845 5.43154 3.72809 5.49048 3.22056 5.1314Z" fill="black"/>
<path fill-rule="evenodd" clip-rule="evenodd" d="M12.8948 2.00064C11.4714 1.98756 10.2968 2.17243 9.24631 2.83647C8.98621 3.00083 8.57322 3.17966 8.87335 3.59868C9.12159 3.94589 9.40382 3.68599 9.65387 3.53311C10.9186 2.76023 12.3092 2.74736 13.7198 2.86021C14.0409 2.88596 14.4762 3.05836 14.5538 2.60373C14.6462 2.06159 14.1157 2.1159 13.7874 2.05797C13.4295 1.9946 13.0576 2.00929 12.8948 2.00064Z" fill="black"/>
<path fill-rule="evenodd" clip-rule="evenodd" d="M17.6154 6.14119C17.6872 6.64772 17.9771 6.95731 18.4732 6.92674C18.9049 6.89998 19.2328 6.62298 19.2141 6.14803C19.1942 5.64331 18.8846 5.35826 18.371 5.37576C17.8953 5.39206 17.682 5.70527 17.6154 6.14119Z" fill="black"/>
<path fill-rule="evenodd" clip-rule="evenodd" d="M2.73459 4.24898C3.24011 4.05646 3.37147 3.75311 3.3254 3.35802C3.3077 3.20654 3.15019 3.10717 3.0484 3.1814C2.7205 3.42038 2.71286 3.77986 2.73459 4.24898Z" fill="#EEF0F1"/>
</svg>
