<svg width="19" height="19" viewBox="0 0 19 19" fill="none" xmlns="http://www.w3.org/2000/svg">
<path d="M8.38281 2.5H2.25781C1.79368 2.5 1.34856 2.68437 1.02038 3.01256C0.692187 3.34075 0.507813 3.78587 0.507812 4.25V16.5C0.507813 16.9641 0.692187 17.4092 1.02038 17.7374C1.34856 18.0656 1.79368 18.25 2.25781 18.25H14.5078C14.9719 18.25 15.4171 18.0656 15.7452 17.7374C16.0734 17.4092 16.2578 16.9641 16.2578 16.5V10.375" stroke="black" stroke-linecap="round" stroke-linejoin="round"/>
<path d="M14.9453 1.18819C15.2934 0.84009 15.7655 0.644531 16.2578 0.644531C16.7501 0.644531 17.2222 0.84009 17.5703 1.18819C17.9184 1.53628 18.114 2.0084 18.114 2.50069C18.114 2.99297 17.9184 3.46509 17.5703 3.81319L9.25781 12.1257L5.75781 13.0007L6.63281 9.50069L14.9453 1.18819Z" stroke="black" stroke-linecap="round" stroke-linejoin="round"/>
</svg>
