<svg width="26" height="26" viewBox="0 0 26 26" fill="none" xmlns="http://www.w3.org/2000/svg">
<g opacity="0.7">
<path d="M9.11719 13.7969C8.6901 13.7969 8.33594 13.4427 8.33594 13.0156C8.33594 12.5885 8.6901 12.2344 9.11719 12.2344H17.4505C17.8776 12.2344 18.2318 12.5885 18.2318 13.0156C18.2318 13.4427 17.8776 13.7969 17.4505 13.7969H9.11719Z" fill="black"/>
<path d="M12.502 17.181V8.84766C12.502 8.42057 12.8561 8.06641 13.2832 8.06641C13.7103 8.06641 14.0645 8.42057 14.0645 8.84766V17.181C14.0645 17.6081 13.7103 17.9622 13.2832 17.9622C12.8561 17.9622 12.502 17.6081 12.502 17.181Z" fill="black"/>
<path fill-rule="evenodd" clip-rule="evenodd" d="M10.1589 24.2122C4.5026 24.2122 2.08594 21.7956 2.08594 16.1393V9.88932C2.08594 4.23307 4.5026 1.81641 10.1589 1.81641H16.4089C22.0651 1.81641 24.4818 4.23307 24.4818 9.88932V16.1393C24.4818 21.7956 22.0651 24.2122 16.4089 24.2122H10.1589ZM3.64844 9.88932V16.1393C3.64844 20.9414 5.35677 22.6497 10.1589 22.6497H16.4089C21.2109 22.6497 22.9193 20.9414 22.9193 16.1393V9.88932C22.9193 5.08724 21.2109 3.37891 16.4089 3.37891H10.1589C5.35677 3.37891 3.64844 5.08724 3.64844 9.88932Z" fill="black"/>
</g>
</svg>
