<svg width="20" height="21" viewBox="0 0 20 21" fill="none" xmlns="http://www.w3.org/2000/svg">
<g clip-path="url(#clip0_700_37860)">
<path d="M7.76058 7.61828C8.34483 7.2279 9.03171 7.01953 9.73438 7.01953C10.6766 7.01953 11.5803 7.39384 12.2465 8.0601C12.9128 8.72637 13.2871 9.63002 13.2871 10.5723C13.2871 11.2749 13.0787 11.9618 12.6884 12.5461C12.298 13.1303 11.7431 13.5857 11.0939 13.8546C10.4448 14.1235 9.73044 14.1938 9.04127 14.0567C8.35211 13.9197 7.71907 13.5813 7.22221 13.0844C6.72536 12.5876 6.38699 11.9545 6.24991 11.2654C6.11282 10.5762 6.18318 9.86187 6.45208 9.21269C6.72098 8.56352 7.17634 8.00865 7.76058 7.61828ZM7.98984 13.1831C8.50623 13.5282 9.11333 13.7123 9.73438 13.7123C10.5672 13.7123 11.3659 13.3815 11.9547 12.7926C12.5436 12.2038 12.8745 11.4051 12.8745 10.5723C12.8745 9.95122 12.6903 9.34411 12.3453 8.82773C12.0002 8.31135 11.5098 7.90888 10.936 7.67121C10.3623 7.43355 9.73089 7.37136 9.12178 7.49252C8.51266 7.61368 7.95315 7.91275 7.51401 8.3519C7.07486 8.79104 6.77579 9.35055 6.65463 9.95967C6.53347 10.5688 6.59566 11.2001 6.83332 11.7739C7.07099 12.3477 7.47346 12.8381 7.98984 13.1831Z" fill="black" stroke="black" strokeWidth="0.5"/>
<mask id="path-2-inside-1_700_37860" fill="white">
<path d="M18.4052 8.13719H17.0469C17.0153 8.13695 16.9845 8.12686 16.9589 8.10833C16.9332 8.08979 16.914 8.06372 16.9039 8.03375C16.8155 7.78268 16.714 7.53643 16.5997 7.29602C16.5854 7.26766 16.5804 7.23554 16.5853 7.20417C16.5902 7.1728 16.6048 7.14375 16.6271 7.1211L17.5869 6.15977C17.6858 6.06089 17.7642 5.94351 17.8177 5.81432C17.8712 5.68513 17.8988 5.54666 17.8988 5.40682C17.8988 5.26699 17.8712 5.12852 17.8177 4.99933C17.7642 4.87014 17.6858 4.75276 17.5869 4.65388L15.6505 2.71905C15.5517 2.62017 15.4343 2.54173 15.3051 2.48821C15.1759 2.4347 15.0374 2.40715 14.8976 2.40715C14.7578 2.40715 14.6193 2.4347 14.4901 2.48821C14.3609 2.54173 14.2435 2.62017 14.1446 2.71905L13.1848 3.67886C13.1622 3.70111 13.1331 3.71572 13.1018 3.72063C13.0704 3.72554 13.0383 3.72051 13.0099 3.70624C12.7695 3.59193 12.5233 3.49039 12.2722 3.40202C12.2422 3.3919 12.2162 3.37269 12.1976 3.34706C12.1791 3.32144 12.169 3.29067 12.1687 3.25904V1.9007C12.1687 1.61831 12.0566 1.34748 11.8569 1.1478C11.6572 0.948118 11.3864 0.835938 11.104 0.835938H8.36602C8.08362 0.835938 7.81279 0.948118 7.61311 1.1478C7.41343 1.34748 7.30125 1.61831 7.30125 1.9007V3.25904C7.30101 3.29067 7.29093 3.32144 7.27239 3.34706C7.25385 3.37269 7.22778 3.3919 7.19782 3.40202C6.94674 3.49042 6.70049 3.59197 6.46008 3.70624C6.43172 3.72051 6.3996 3.72554 6.36823 3.72063C6.33686 3.71572 6.30781 3.70111 6.28516 3.67886L5.32383 2.71905C5.22495 2.62017 5.10757 2.54173 4.97838 2.48821C4.84919 2.4347 4.71072 2.40715 4.57089 2.40715C4.43105 2.40715 4.29258 2.4347 4.16339 2.48821C4.0342 2.54173 3.91682 2.62017 3.81795 2.71905L1.88311 4.6554C1.78423 4.75428 1.70579 4.87166 1.65227 5.00085C1.59876 5.13004 1.57121 5.26851 1.57121 5.40835C1.57121 5.54818 1.59876 5.68665 1.65227 5.81584C1.70579 5.94503 1.78423 6.06241 1.88311 6.16129L2.84292 7.1211C2.86517 7.14375 2.87978 7.1728 2.88469 7.20417C2.8896 7.23554 2.88457 7.26766 2.8703 7.29602C2.756 7.53641 2.65445 7.78266 2.56609 8.03375C2.55596 8.06372 2.53675 8.08979 2.51113 8.10833C2.4855 8.12686 2.45473 8.13695 2.4231 8.13719H1.06477C0.782372 8.13719 0.511545 8.24937 0.311863 8.44905C0.11218 8.64873 0 8.91956 0 9.20195L0 11.9399C0 12.2223 0.11218 12.4931 0.311863 12.6928C0.511545 12.8925 0.782372 13.0047 1.06477 13.0047H2.4231C2.45473 13.0049 2.4855 13.015 2.51113 13.0336C2.53675 13.0521 2.55596 13.0782 2.56609 13.1081C2.65449 13.3592 2.75603 13.6054 2.8703 13.8459C2.88457 13.8742 2.8896 13.9063 2.88469 13.9377C2.87978 13.9691 2.86517 13.9981 2.84292 14.0208L1.88311 14.9821C1.78423 15.081 1.70579 15.1984 1.65227 15.3276C1.59876 15.4567 1.57121 15.5952 1.57121 15.7351C1.57121 15.8749 1.59876 16.0134 1.65227 16.1425C1.70579 16.2717 1.78423 16.3891 1.88311 16.488L3.81947 18.4243C3.91834 18.5232 4.03572 18.6017 4.16491 18.6552C4.2941 18.7087 4.43257 18.7362 4.57241 18.7362C4.71224 18.7362 4.85071 18.7087 4.9799 18.6552C5.10909 18.6017 5.22647 18.5232 5.32535 18.4243L6.28516 17.4645C6.30781 17.4423 6.33686 17.4277 6.36823 17.4228C6.3996 17.4179 6.43172 17.4229 6.46008 17.4372C6.70047 17.5515 6.94673 17.653 7.19782 17.7414C7.22778 17.7515 7.25385 17.7707 7.27239 17.7963C7.29093 17.822 7.30101 17.8527 7.30125 17.8844V19.2412C7.30125 19.5236 7.41343 19.7944 7.61311 19.9941C7.81279 20.1938 8.08362 20.3059 8.36602 20.3059H11.104C11.3864 20.3059 11.6572 20.1938 11.8569 19.9941C12.0566 19.7944 12.1687 19.5236 12.1687 19.2412V17.8828C12.169 17.8512 12.1791 17.8204 12.1976 17.7948C12.2162 17.7692 12.2422 17.75 12.2722 17.7399C12.5233 17.6515 12.7695 17.5499 13.0099 17.4356C13.0383 17.4214 13.0704 17.4163 13.1018 17.4212C13.1331 17.4262 13.1622 17.4408 13.1848 17.463L14.1462 18.4228C14.245 18.5217 14.3624 18.6001 14.4916 18.6537C14.6208 18.7072 14.7593 18.7347 14.8991 18.7347C15.0389 18.7347 15.1774 18.7072 15.3066 18.6537C15.4358 18.6001 15.5532 18.5217 15.6521 18.4228L17.5884 16.4865C17.6873 16.3876 17.7657 16.2702 17.8192 16.141C17.8728 16.0118 17.9003 15.8734 17.9003 15.7335C17.9003 15.5937 17.8728 15.4552 17.8192 15.326C17.7657 15.1968 17.6873 15.0795 17.5884 14.9806L16.6286 14.0208C16.6063 13.9981 16.5917 13.9691 16.5868 13.9377C16.5819 13.9063 16.587 13.8742 16.6012 13.8459C16.7155 13.6055 16.8171 13.3592 16.9054 13.1081C16.9156 13.0782 16.9348 13.0521 16.9604 13.0336C16.986 13.015 17.0168 13.0049 17.0484 13.0047H18.4052C18.6876 13.0047 18.9585 12.8925 19.1581 12.6928C19.3578 12.4931 19.47 12.2223 19.47 11.9399V9.20195C19.47 8.91956 19.3578 8.64873 19.1581 8.44905C18.9585 8.24937 18.6876 8.13719 18.4052 8.13719ZM18.5573 11.9399C18.5573 11.9803 18.5413 12.019 18.5128 12.0475C18.4843 12.076 18.4456 12.092 18.4052 12.092H17.0469C16.8263 12.0923 16.6112 12.1611 16.4313 12.2889C16.2515 12.4166 16.1158 12.5972 16.043 12.8054C15.9651 13.026 15.8758 13.2423 15.7753 13.4534C15.6789 13.6525 15.6469 13.8766 15.6837 14.0946C15.7205 14.3127 15.8242 14.5139 15.9806 14.6703L16.9404 15.6301C16.9688 15.6586 16.9847 15.6971 16.9847 15.7373C16.9847 15.7775 16.9688 15.8161 16.9404 15.8446L15.0056 17.7779C14.9771 17.8062 14.9385 17.8221 14.8984 17.8221C14.8582 17.8221 14.8196 17.8062 14.7911 17.7779L13.8313 16.8181C13.6749 16.6617 13.4737 16.5579 13.2557 16.5211C13.0376 16.4843 12.8135 16.5163 12.6144 16.6127C12.4028 16.7133 12.186 16.8027 11.9649 16.8804C11.7569 16.9535 11.5768 17.0893 11.4493 17.2691C11.3217 17.4489 11.2532 17.6639 11.2531 17.8844V19.2412C11.2531 19.2815 11.237 19.3202 11.2085 19.3487C11.18 19.3773 11.1413 19.3933 11.1009 19.3933H8.36602C8.32567 19.3933 8.28698 19.3773 8.25846 19.3487C8.22993 19.3202 8.21391 19.2815 8.21391 19.2412V17.8828C8.21366 17.6622 8.14488 17.4471 8.01708 17.2673C7.88929 17.0874 7.70878 16.9517 7.50051 16.8789C7.27998 16.8011 7.06369 16.7117 6.85253 16.6112C6.65349 16.5148 6.42937 16.4828 6.21131 16.5196C5.99324 16.5564 5.79204 16.6602 5.63565 16.8165L4.67584 17.7764C4.64734 17.8047 4.60879 17.8206 4.5686 17.8206C4.52842 17.8206 4.48987 17.8047 4.46137 17.7764L2.52806 15.8415C2.49973 15.813 2.48383 15.7745 2.48383 15.7343C2.48383 15.6941 2.49973 15.6556 2.52806 15.6271L3.48787 14.6672C3.64423 14.5109 3.74801 14.3097 3.78481 14.0916C3.82161 13.8735 3.7896 13.6494 3.69322 13.4504C3.59264 13.2387 3.50328 13.0219 3.4255 12.8009C3.35202 12.5937 3.21622 12.4143 3.03675 12.2874C2.85727 12.1605 2.64292 12.0923 2.4231 12.092H1.06477C1.02442 12.092 0.985734 12.076 0.957208 12.0475C0.928682 12.019 0.912656 11.9803 0.912656 11.9399V9.20195C0.912656 9.16161 0.928682 9.12292 0.957208 9.09439C0.985734 9.06587 1.02442 9.04984 1.06477 9.04984H2.4231C2.64373 9.0496 2.85883 8.98082 3.03867 8.85302C3.21851 8.72522 3.35422 8.54472 3.42702 8.33645C3.50485 8.11592 3.59421 7.89962 3.69474 7.68846C3.79112 7.48942 3.82313 7.26531 3.78633 7.04724C3.74953 6.82918 3.64575 6.62798 3.48939 6.47159L2.52958 5.51178C2.50125 5.48328 2.48535 5.44473 2.48535 5.40454C2.48535 5.36436 2.50125 5.3258 2.52958 5.29731L4.46441 3.364C4.49291 3.33566 4.53146 3.31976 4.57165 3.31976C4.61183 3.31976 4.65038 3.33566 4.67888 3.364L5.63869 4.32381C5.79509 4.48017 5.99628 4.58395 6.21435 4.62075C6.43241 4.65755 6.65653 4.62553 6.85557 4.52915C7.06722 4.42858 7.28402 4.33921 7.50508 4.26144C7.71225 4.18796 7.89159 4.05216 8.01851 3.87269C8.14542 3.69321 8.21368 3.47885 8.21391 3.25904V1.9007C8.21391 1.86036 8.22993 1.82167 8.25846 1.79315C8.28698 1.76462 8.32567 1.74859 8.36602 1.74859H11.104C11.1443 1.74859 11.183 1.76462 11.2115 1.79315C11.2401 1.82167 11.2561 1.86036 11.2561 1.9007V3.25904C11.2563 3.47967 11.3251 3.69477 11.4529 3.87461C11.5807 4.05445 11.7612 4.19016 11.9695 4.26296C12.19 4.34079 12.4063 4.43015 12.6175 4.53067C12.8165 4.62706 13.0406 4.65907 13.2587 4.62227C13.4768 4.58547 13.678 4.48169 13.8343 4.32533L14.7942 3.36552C14.8227 3.33719 14.8612 3.32128 14.9014 3.32128C14.9416 3.32128 14.9801 3.33719 15.0086 3.36552L16.945 5.30187C16.9733 5.33037 16.9892 5.36892 16.9892 5.40911C16.9892 5.44929 16.9733 5.48784 16.945 5.51634L15.9852 6.47615C15.8288 6.63254 15.725 6.83374 15.6882 7.05181C15.6514 7.26987 15.6834 7.49399 15.7798 7.69303C15.8804 7.90468 15.9698 8.12148 16.0475 8.34253C16.1206 8.55052 16.2564 8.7307 16.4362 8.85821C16.6161 8.98571 16.831 9.05427 17.0515 9.05441H18.4052C18.4456 9.05441 18.4843 9.07043 18.5128 9.09896C18.5413 9.12749 18.5573 9.16617 18.5573 9.20652V11.9399Z"/>
</mask>
<path d="M18.4052 8.13719H17.0469C17.0153 8.13695 16.9845 8.12686 16.9589 8.10833C16.9332 8.08979 16.914 8.06372 16.9039 8.03375C16.8155 7.78268 16.714 7.53643 16.5997 7.29602C16.5854 7.26766 16.5804 7.23554 16.5853 7.20417C16.5902 7.1728 16.6048 7.14375 16.6271 7.1211L17.5869 6.15977C17.6858 6.06089 17.7642 5.94351 17.8177 5.81432C17.8712 5.68513 17.8988 5.54666 17.8988 5.40682C17.8988 5.26699 17.8712 5.12852 17.8177 4.99933C17.7642 4.87014 17.6858 4.75276 17.5869 4.65388L15.6505 2.71905C15.5517 2.62017 15.4343 2.54173 15.3051 2.48821C15.1759 2.4347 15.0374 2.40715 14.8976 2.40715C14.7578 2.40715 14.6193 2.4347 14.4901 2.48821C14.3609 2.54173 14.2435 2.62017 14.1446 2.71905L13.1848 3.67886C13.1622 3.70111 13.1331 3.71572 13.1018 3.72063C13.0704 3.72554 13.0383 3.72051 13.0099 3.70624C12.7695 3.59193 12.5233 3.49039 12.2722 3.40202C12.2422 3.3919 12.2162 3.37269 12.1976 3.34706C12.1791 3.32144 12.169 3.29067 12.1687 3.25904V1.9007C12.1687 1.61831 12.0566 1.34748 11.8569 1.1478C11.6572 0.948118 11.3864 0.835938 11.104 0.835938H8.36602C8.08362 0.835938 7.81279 0.948118 7.61311 1.1478C7.41343 1.34748 7.30125 1.61831 7.30125 1.9007V3.25904C7.30101 3.29067 7.29093 3.32144 7.27239 3.34706C7.25385 3.37269 7.22778 3.3919 7.19782 3.40202C6.94674 3.49042 6.70049 3.59197 6.46008 3.70624C6.43172 3.72051 6.3996 3.72554 6.36823 3.72063C6.33686 3.71572 6.30781 3.70111 6.28516 3.67886L5.32383 2.71905C5.22495 2.62017 5.10757 2.54173 4.97838 2.48821C4.84919 2.4347 4.71072 2.40715 4.57089 2.40715C4.43105 2.40715 4.29258 2.4347 4.16339 2.48821C4.0342 2.54173 3.91682 2.62017 3.81795 2.71905L1.88311 4.6554C1.78423 4.75428 1.70579 4.87166 1.65227 5.00085C1.59876 5.13004 1.57121 5.26851 1.57121 5.40835C1.57121 5.54818 1.59876 5.68665 1.65227 5.81584C1.70579 5.94503 1.78423 6.06241 1.88311 6.16129L2.84292 7.1211C2.86517 7.14375 2.87978 7.1728 2.88469 7.20417C2.8896 7.23554 2.88457 7.26766 2.8703 7.29602C2.756 7.53641 2.65445 7.78266 2.56609 8.03375C2.55596 8.06372 2.53675 8.08979 2.51113 8.10833C2.4855 8.12686 2.45473 8.13695 2.4231 8.13719H1.06477C0.782372 8.13719 0.511545 8.24937 0.311863 8.44905C0.11218 8.64873 0 8.91956 0 9.20195L0 11.9399C0 12.2223 0.11218 12.4931 0.311863 12.6928C0.511545 12.8925 0.782372 13.0047 1.06477 13.0047H2.4231C2.45473 13.0049 2.4855 13.015 2.51113 13.0336C2.53675 13.0521 2.55596 13.0782 2.56609 13.1081C2.65449 13.3592 2.75603 13.6054 2.8703 13.8459C2.88457 13.8742 2.8896 13.9063 2.88469 13.9377C2.87978 13.9691 2.86517 13.9981 2.84292 14.0208L1.88311 14.9821C1.78423 15.081 1.70579 15.1984 1.65227 15.3276C1.59876 15.4567 1.57121 15.5952 1.57121 15.7351C1.57121 15.8749 1.59876 16.0134 1.65227 16.1425C1.70579 16.2717 1.78423 16.3891 1.88311 16.488L3.81947 18.4243C3.91834 18.5232 4.03572 18.6017 4.16491 18.6552C4.2941 18.7087 4.43257 18.7362 4.57241 18.7362C4.71224 18.7362 4.85071 18.7087 4.9799 18.6552C5.10909 18.6017 5.22647 18.5232 5.32535 18.4243L6.28516 17.4645C6.30781 17.4423 6.33686 17.4277 6.36823 17.4228C6.3996 17.4179 6.43172 17.4229 6.46008 17.4372C6.70047 17.5515 6.94673 17.653 7.19782 17.7414C7.22778 17.7515 7.25385 17.7707 7.27239 17.7963C7.29093 17.822 7.30101 17.8527 7.30125 17.8844V19.2412C7.30125 19.5236 7.41343 19.7944 7.61311 19.9941C7.81279 20.1938 8.08362 20.3059 8.36602 20.3059H11.104C11.3864 20.3059 11.6572 20.1938 11.8569 19.9941C12.0566 19.7944 12.1687 19.5236 12.1687 19.2412V17.8828C12.169 17.8512 12.1791 17.8204 12.1976 17.7948C12.2162 17.7692 12.2422 17.75 12.2722 17.7399C12.5233 17.6515 12.7695 17.5499 13.0099 17.4356C13.0383 17.4214 13.0704 17.4163 13.1018 17.4212C13.1331 17.4262 13.1622 17.4408 13.1848 17.463L14.1462 18.4228C14.245 18.5217 14.3624 18.6001 14.4916 18.6537C14.6208 18.7072 14.7593 18.7347 14.8991 18.7347C15.0389 18.7347 15.1774 18.7072 15.3066 18.6537C15.4358 18.6001 15.5532 18.5217 15.6521 18.4228L17.5884 16.4865C17.6873 16.3876 17.7657 16.2702 17.8192 16.141C17.8728 16.0118 17.9003 15.8734 17.9003 15.7335C17.9003 15.5937 17.8728 15.4552 17.8192 15.326C17.7657 15.1968 17.6873 15.0795 17.5884 14.9806L16.6286 14.0208C16.6063 13.9981 16.5917 13.9691 16.5868 13.9377C16.5819 13.9063 16.587 13.8742 16.6012 13.8459C16.7155 13.6055 16.8171 13.3592 16.9054 13.1081C16.9156 13.0782 16.9348 13.0521 16.9604 13.0336C16.986 13.015 17.0168 13.0049 17.0484 13.0047H18.4052C18.6876 13.0047 18.9585 12.8925 19.1581 12.6928C19.3578 12.4931 19.47 12.2223 19.47 11.9399V9.20195C19.47 8.91956 19.3578 8.64873 19.1581 8.44905C18.9585 8.24937 18.6876 8.13719 18.4052 8.13719ZM18.5573 11.9399C18.5573 11.9803 18.5413 12.019 18.5128 12.0475C18.4843 12.076 18.4456 12.092 18.4052 12.092H17.0469C16.8263 12.0923 16.6112 12.1611 16.4313 12.2889C16.2515 12.4166 16.1158 12.5972 16.043 12.8054C15.9651 13.026 15.8758 13.2423 15.7753 13.4534C15.6789 13.6525 15.6469 13.8766 15.6837 14.0946C15.7205 14.3127 15.8242 14.5139 15.9806 14.6703L16.9404 15.6301C16.9688 15.6586 16.9847 15.6971 16.9847 15.7373C16.9847 15.7775 16.9688 15.8161 16.9404 15.8446L15.0056 17.7779C14.9771 17.8062 14.9385 17.8221 14.8984 17.8221C14.8582 17.8221 14.8196 17.8062 14.7911 17.7779L13.8313 16.8181C13.6749 16.6617 13.4737 16.5579 13.2557 16.5211C13.0376 16.4843 12.8135 16.5163 12.6144 16.6127C12.4028 16.7133 12.186 16.8027 11.9649 16.8804C11.7569 16.9535 11.5768 17.0893 11.4493 17.2691C11.3217 17.4489 11.2532 17.6639 11.2531 17.8844V19.2412C11.2531 19.2815 11.237 19.3202 11.2085 19.3487C11.18 19.3773 11.1413 19.3933 11.1009 19.3933H8.36602C8.32567 19.3933 8.28698 19.3773 8.25846 19.3487C8.22993 19.3202 8.21391 19.2815 8.21391 19.2412V17.8828C8.21366 17.6622 8.14488 17.4471 8.01708 17.2673C7.88929 17.0874 7.70878 16.9517 7.50051 16.8789C7.27998 16.8011 7.06369 16.7117 6.85253 16.6112C6.65349 16.5148 6.42937 16.4828 6.21131 16.5196C5.99324 16.5564 5.79204 16.6602 5.63565 16.8165L4.67584 17.7764C4.64734 17.8047 4.60879 17.8206 4.5686 17.8206C4.52842 17.8206 4.48987 17.8047 4.46137 17.7764L2.52806 15.8415C2.49973 15.813 2.48383 15.7745 2.48383 15.7343C2.48383 15.6941 2.49973 15.6556 2.52806 15.6271L3.48787 14.6672C3.64423 14.5109 3.74801 14.3097 3.78481 14.0916C3.82161 13.8735 3.7896 13.6494 3.69322 13.4504C3.59264 13.2387 3.50328 13.0219 3.4255 12.8009C3.35202 12.5937 3.21622 12.4143 3.03675 12.2874C2.85727 12.1605 2.64292 12.0923 2.4231 12.092H1.06477C1.02442 12.092 0.985734 12.076 0.957208 12.0475C0.928682 12.019 0.912656 11.9803 0.912656 11.9399V9.20195C0.912656 9.16161 0.928682 9.12292 0.957208 9.09439C0.985734 9.06587 1.02442 9.04984 1.06477 9.04984H2.4231C2.64373 9.0496 2.85883 8.98082 3.03867 8.85302C3.21851 8.72522 3.35422 8.54472 3.42702 8.33645C3.50485 8.11592 3.59421 7.89962 3.69474 7.68846C3.79112 7.48942 3.82313 7.26531 3.78633 7.04724C3.74953 6.82918 3.64575 6.62798 3.48939 6.47159L2.52958 5.51178C2.50125 5.48328 2.48535 5.44473 2.48535 5.40454C2.48535 5.36436 2.50125 5.3258 2.52958 5.29731L4.46441 3.364C4.49291 3.33566 4.53146 3.31976 4.57165 3.31976C4.61183 3.31976 4.65038 3.33566 4.67888 3.364L5.63869 4.32381C5.79509 4.48017 5.99628 4.58395 6.21435 4.62075C6.43241 4.65755 6.65653 4.62553 6.85557 4.52915C7.06722 4.42858 7.28402 4.33921 7.50508 4.26144C7.71225 4.18796 7.89159 4.05216 8.01851 3.87269C8.14542 3.69321 8.21368 3.47885 8.21391 3.25904V1.9007C8.21391 1.86036 8.22993 1.82167 8.25846 1.79315C8.28698 1.76462 8.32567 1.74859 8.36602 1.74859H11.104C11.1443 1.74859 11.183 1.76462 11.2115 1.79315C11.2401 1.82167 11.2561 1.86036 11.2561 1.9007V3.25904C11.2563 3.47967 11.3251 3.69477 11.4529 3.87461C11.5807 4.05445 11.7612 4.19016 11.9695 4.26296C12.19 4.34079 12.4063 4.43015 12.6175 4.53067C12.8165 4.62706 13.0406 4.65907 13.2587 4.62227C13.4768 4.58547 13.678 4.48169 13.8343 4.32533L14.7942 3.36552C14.8227 3.33719 14.8612 3.32128 14.9014 3.32128C14.9416 3.32128 14.9801 3.33719 15.0086 3.36552L16.945 5.30187C16.9733 5.33037 16.9892 5.36892 16.9892 5.40911C16.9892 5.44929 16.9733 5.48784 16.945 5.51634L15.9852 6.47615C15.8288 6.63254 15.725 6.83374 15.6882 7.05181C15.6514 7.26987 15.6834 7.49399 15.7798 7.69303C15.8804 7.90468 15.9698 8.12148 16.0475 8.34253C16.1206 8.55052 16.2564 8.7307 16.4362 8.85821C16.6161 8.98571 16.831 9.05427 17.0515 9.05441H18.4052C18.4456 9.05441 18.4843 9.07043 18.5128 9.09896C18.5413 9.12749 18.5573 9.16617 18.5573 9.20652V11.9399Z" fill="black" stroke="black" mask="url(#path-2-inside-1_700_37860)"/>
</g>
<defs>
<clipPath id="clip0_700_37860">
<rect width="19.47" height="19.47" fill="white" transform="translate(0 0.835938)"/>
</clipPath>
</defs>
</svg>
