<svg width="21" height="21" viewBox="0 0 21 21" fill="none" xmlns="http://www.w3.org/2000/svg">
<path d="M18.4858 0.527344H2.98684C1.88954 0.527344 1 1.41688 1 2.51419V18.0132C1 19.1105 1.88954 20 2.98684 20H18.4858C19.5831 20 20.4727 19.1105 20.4727 18.0132V2.51419C20.4727 1.41688 19.5831 0.527344 18.4858 0.527344Z" stroke="black" strokeLinecap="round" strokeLinejoin="round"/>
<path d="M4.07031 15.6313V9.33594" stroke="black" strokeLinecap="round" strokeLinejoin="round"/>
<path d="M4.07031 6.37596V4.89453" stroke="black" strokeLinecap="round" strokeLinejoin="round"/>
<path d="M4.07087 9.33706C4.88882 9.33706 5.5519 8.67398 5.5519 7.85603C5.5519 7.03808 4.88882 6.375 4.07087 6.375C3.25292 6.375 2.58984 7.03808 2.58984 7.85603C2.58984 8.67398 3.25292 9.33706 4.07087 9.33706Z" stroke="black" strokeLinecap="round" strokeLinejoin="round"/>
<path d="M8.51367 15.6333V14.0391" stroke="black" strokeLinecap="round" strokeLinejoin="round"/>
<path d="M8.51367 11.0771V4.89453" stroke="black" strokeLinecap="round" strokeLinejoin="round"/>
<path d="M8.51423 14.0363C9.33218 14.0363 9.99526 13.3732 9.99526 12.5552C9.99526 11.7373 9.33218 11.0742 8.51423 11.0742C7.69628 11.0742 7.0332 11.7373 7.0332 12.5552C7.0332 13.3732 7.69628 14.0363 8.51423 14.0363Z" stroke="black" strokeLinecap="round" strokeLinejoin="round"/>
<path d="M12.959 15.6313V9.33594" stroke="black" strokeLinecap="round" strokeLinejoin="round"/>
<path d="M12.959 6.37596V4.89453" stroke="black" strokeLinecap="round" strokeLinejoin="round"/>
<path d="M12.9576 9.33706C13.7755 9.33706 14.4386 8.67398 14.4386 7.85603C14.4386 7.03808 13.7755 6.375 12.9576 6.375C12.1396 6.375 11.4766 7.03808 11.4766 7.85603C11.4766 8.67398 12.1396 9.33706 12.9576 9.33706Z" stroke="black" strokeLinecap="round" strokeLinejoin="round"/>
<path d="M17.4023 15.635V12.2344" stroke="black" strokeLinecap="round" strokeLinejoin="round"/>
<path d="M17.4023 9.27073V4.89453" stroke="black" strokeLinecap="round" strokeLinejoin="round"/>
<path d="M17.4029 12.2316C18.2209 12.2316 18.8839 11.5685 18.8839 10.7506C18.8839 9.93261 18.2209 9.26953 17.4029 9.26953C16.585 9.26953 15.9219 9.93261 15.9219 10.7506C15.9219 11.5685 16.585 12.2316 17.4029 12.2316Z" stroke="black" strokeLinecap="round" strokeLinejoin="round"/>
</svg>
