<svg width="17" height="16" viewBox="0 0 17 16" fill="none" xmlns="http://www.w3.org/2000/svg">
<path d="M7.96926 1.41704C8.02941 1.11185 7.82045 0.817633 7.50253 0.7599C7.18459 0.702174 6.87811 0.902782 6.81798 1.20798L6.02192 5.24789L2.31594 5.24956C1.99239 5.2497 1.73021 5.50161 1.73036 5.81223C1.73051 6.12284 1.99293 6.37452 2.31649 6.37438L5.80027 6.37281L5.0615 10.122L1.5348 10.1236C1.21124 10.1237 0.94907 10.3757 0.949219 10.6863C0.949367 10.9969 1.21179 11.2485 1.53535 11.2484L4.83984 11.2469L4.08396 15.083C4.02382 15.3882 4.2328 15.6824 4.55071 15.7401C4.86864 15.7978 5.17512 15.5972 5.23525 15.292L6.03244 11.2464L10.3084 11.2445L9.55201 15.083C9.49186 15.3882 9.70082 15.6824 10.0187 15.7401C10.3367 15.7978 10.6432 15.5972 10.7033 15.292L11.501 11.244L15.2053 11.2422C15.5289 11.2421 15.7911 10.9902 15.7909 10.6796C15.7908 10.369 15.5284 10.1173 15.2047 10.1174L11.7226 10.119L12.4614 6.36982L15.9864 6.36824C16.3101 6.36809 16.5722 6.11618 16.5721 5.80557C16.5719 5.49496 16.3095 5.24327 15.9859 5.24342L12.6831 5.2449L13.4373 1.41704C13.4975 1.11185 13.2884 0.817633 12.9705 0.7599C12.6526 0.702174 12.3462 0.902782 12.286 1.20798L11.4904 5.24544L7.21452 5.24736L7.96926 1.41704ZM6.99286 6.37228L11.2688 6.37036L10.53 10.1195L6.25409 10.1215L6.99286 6.37228Z" fill="#212121"/>
</svg>
