<svg width="24" height="24" viewBox="0 0 24 24" fill="none" xmlns="http://www.w3.org/2000/svg">
<path fillRule="evenodd" clipRule="evenodd" d="M15.8893 23.2317L12.6738 21.3282C12.3404 21.1346 11.6952 21.1346 11.3726 21.3282L8.14634 23.2317C6.24286 24.3608 5.12444 23.9092 4.61899 23.5435C4.12431 23.1779 3.35001 22.2423 3.85545 20.0915L4.61899 16.79C4.70503 16.4458 4.53296 15.8544 4.27486 15.5963L1.60785 12.9292C0.274338 11.5957 0.381879 10.4558 0.564699 9.89658C0.747519 9.33737 1.32824 8.34799 3.17794 8.03612L6.6085 7.46615C6.93112 7.41238 7.39355 7.06825 7.53335 6.77789L9.43683 2.9817C10.2972 1.25029 11.4263 0.992188 12.0178 0.992188C12.6093 0.992188 13.7385 1.25029 14.5988 2.9817L16.4915 6.76714C16.6421 7.0575 17.1045 7.40163 17.4271 7.4554L20.8577 8.02537C22.7181 8.33724 23.2989 9.32661 23.4709 9.88583C23.643 10.445 23.7505 11.585 22.4278 12.9185L19.7608 15.5963C19.5027 15.8544 19.3414 16.4351 19.4166 16.79L20.1802 20.0915C20.6749 22.2423 19.9113 23.1779 19.4166 23.5435C19.1478 23.7371 18.7176 23.9522 18.1046 23.9522C17.5347 23.9522 16.8034 23.7694 15.8893 23.2317Z" fill="black"/>
<path d="M7.68503 16.9922L11.081 8.47219H12.641L16.049 16.9922H14.537L13.733 14.8802H9.94103L9.13703 16.9922H7.68503ZM11.837 9.94819L10.421 13.6322H13.253L11.837 9.94819Z" fill="white"/>
</svg>
