<svg width="17" height="12" viewBox="0 0 17 12" fill="none" xmlns="http://www.w3.org/2000/svg">
<path d="M10.0023 11.7752C9.75899 11.5281 9.75899 11.119 10.0023 10.8718L14.651 6.15021L10.0023 1.42862C9.75899 1.18146 9.75899 0.772372 10.0023 0.525213C10.2457 0.278054 10.6484 0.278054 10.8918 0.525213L15.9851 5.69851C16.2285 5.94567 16.2285 6.35476 15.9851 6.60192L10.8918 11.7752C10.7659 11.9031 10.6065 11.9627 10.4471 11.9627C10.2876 11.9627 10.1282 11.9031 10.0023 11.7752Z" fill="white"/>
<path d="M1.2763 6.79013C0.932268 6.79013 0.646973 6.50035 0.646973 6.15092C0.646973 5.80149 0.932268 5.51172 1.2763 5.51172H15.3984C15.7424 5.51172 16.0277 5.80149 16.0277 6.15092C16.0277 6.50035 15.7424 6.79013 15.3984 6.79013H1.2763Z" fill="white"/>
</svg>
