<svg width="21" height="21" viewBox="0 0 21 21" fill="none" xmlns="http://www.w3.org/2000/svg">
<path d="M10.465 0C4.69441 0 0 4.69441 0 10.465C0 16.2356 4.69441 20.93 10.465 20.93C16.2356 20.93 20.93 16.2356 20.93 10.465C20.93 4.69441 16.2356 0 10.465 0ZM10.465 20.0579C8.38594 20.0579 6.46475 19.3856 4.89153 18.2571L7.14498 17.5054C8.5089 16.9368 8.96327 14.8891 8.96327 14.3894C8.96327 14.2586 8.90486 14.1356 8.80454 14.0528C8.31706 13.6507 7.7999 12.9531 7.7999 12.4516C7.7999 11.8647 7.56006 11.5316 7.32636 11.3685C7.21733 11.0668 7.04119 10.5174 7.02635 10.1711C7.2435 10.1467 7.41269 9.96182 7.41269 9.73768V7.41184C7.41269 6.16736 8.60133 4.35953 10.465 4.35953C12.2161 4.35953 12.6775 5.11387 12.7359 5.41212C12.7202 5.46792 12.7141 5.52286 12.7193 5.57171C12.7447 5.80803 12.9217 5.92053 13.0167 5.98071C13.1667 6.07575 13.5173 6.29903 13.5173 7.41265V9.7385C13.5173 9.98005 13.6342 10.1475 13.8749 10.1475C13.8827 10.1553 13.8932 10.1745 13.9028 10.1937C13.8819 10.5417 13.7127 11.0684 13.6037 11.3684C13.3708 11.5315 13.1301 11.8647 13.1301 12.4516C13.1301 12.953 12.613 13.6507 12.1255 14.0527C12.0243 14.1356 11.9668 14.2594 11.9668 14.3893C11.9668 14.8882 12.422 16.9367 13.8156 17.5158L16.0386 18.257C14.4661 19.3856 12.5441 20.0579 10.465 20.0579ZM16.6891 17.7504C16.649 17.6213 16.5565 17.5106 16.4187 17.4644L14.1234 16.7004C13.3211 16.3664 12.9487 15.0827 12.8615 14.569C13.4554 14.017 14.004 13.1946 14.004 12.4516C14.004 12.1996 14.0755 12.1019 14.0615 12.0993C14.1976 12.0653 14.3083 11.9685 14.3606 11.8385C14.4034 11.7313 14.7792 10.7729 14.7792 10.1266C14.7792 10.0918 14.7749 10.056 14.7662 10.0211C14.7112 9.80223 14.583 9.58161 14.3912 9.4438V7.41359C14.3912 6.15779 14.0083 5.63279 13.6045 5.32844C13.5138 4.70492 12.8458 3.48922 10.4668 3.48922C8.03544 3.48922 6.54242 5.77496 6.54242 7.41359V9.4438C6.35058 9.58161 6.22238 9.80223 6.16744 10.0211C6.15873 10.0551 6.15436 10.0909 6.15436 10.1266C6.15436 10.7729 6.53024 11.7313 6.57296 11.8385C6.62529 11.9685 6.69417 12.0513 6.83021 12.0853C6.85813 12.1019 6.92963 12.1987 6.92963 12.4516C6.92963 13.1946 7.47818 14.017 8.07207 14.569C7.98488 15.0826 7.61599 16.3646 6.83982 16.689L4.51397 17.4643C4.37531 17.5105 4.28288 17.6221 4.24274 17.7521C2.18371 15.9905 0.87207 13.3804 0.87207 10.465C0.87207 5.1758 5.1758 0.87207 10.465 0.87207C15.7542 0.87207 20.0579 5.1758 20.0579 10.465C20.0579 13.3786 18.7472 15.9888 16.6891 17.7504Z" fill="black"/>
</svg>
