<svg width="20" height="18" viewBox="0 0 20 18" fill="none" xmlns="http://www.w3.org/2000/svg">
<path fill-rule="evenodd" clip-rule="evenodd" d="M9.63212 17.9902C6.77453 17.9902 3.91694 17.9934 1.05917 17.9865C0.700339 17.9856 0.173671 18.1209 0.168012 17.5599C0.16253 17.0103 0.677702 17.1127 1.04697 17.1063C2.58418 17.0794 2.584 17.0812 2.58382 15.5242C2.58365 13.4324 2.58347 11.3407 2.58418 9.2489C2.58418 8.92774 2.53271 8.5155 2.9775 8.49923C3.46314 8.48154 3.47092 8.89661 3.47056 9.265C3.4688 11.6513 3.48471 14.0377 3.4573 16.4238C3.45129 16.9457 3.55121 17.159 4.12439 17.1178C4.88645 17.0626 5.65735 17.0706 6.42065 17.116C6.9505 17.1475 7.04069 16.9351 7.03645 16.4622C7.01505 14.1055 7.0246 11.7484 7.02902 9.39163C7.02973 9.02572 6.91354 8.50135 7.45913 8.49869C7.9911 8.49604 7.91134 9.00892 7.91152 9.38544C7.91276 11.6835 7.94653 13.9824 7.89136 16.279C7.87385 17.0082 8.11419 17.1686 8.77155 17.1164C9.44501 17.0628 10.1293 17.0628 10.8024 17.1171C11.3651 17.1624 11.4845 16.9668 11.4769 16.4321C11.4459 14.2524 11.4645 12.072 11.4645 9.89194C11.4645 9.71509 11.4643 9.53841 11.4647 9.36156C11.4656 8.98203 11.3945 8.49038 11.9408 8.50029C12.4344 8.50931 12.347 8.98256 12.3477 9.32495C12.3511 11.0632 12.3286 12.8019 12.3585 14.5395C12.3728 15.3813 11.9758 16.5059 12.5279 16.983C13.0047 17.3951 14.1049 17.041 14.9204 17.1187C15.7118 17.194 15.9523 16.9558 15.9283 16.1354C15.8648 13.9571 15.9069 11.7756 15.9072 9.59554C15.9072 9.38933 15.8948 9.18152 15.9152 8.97726C15.9449 8.67838 16.1097 8.46509 16.4254 8.49498C16.7032 8.52115 16.7911 8.7493 16.7911 9.01033C16.7904 9.62896 16.7925 10.2476 16.7925 10.8664C16.7929 12.7223 16.8155 14.5787 16.7787 16.4341C16.7676 16.989 16.9301 17.1786 17.4694 17.1109C17.7594 17.0745 18.0577 17.1001 18.3524 17.1052C18.7266 17.1118 19.2225 17.0292 19.208 17.5852C19.1949 18.0875 18.7192 17.9869 18.3814 17.9874C15.4653 17.9918 12.5486 17.9902 9.63212 17.9902Z" fill="#010101"/>
<path fill-rule="evenodd" clip-rule="evenodd" d="M9.59958 7.15032C6.91796 7.1505 4.23581 7.12874 1.55472 7.16464C0.818655 7.17472 0.640211 6.92094 0.565225 6.20504C0.436122 4.97326 0.862692 4.3136 2.0018 3.78339C4.34333 2.69345 6.6113 1.44292 8.88987 0.221575C9.41265 -0.0585598 9.81446 -0.0824349 10.3546 0.203713C12.8979 1.5508 15.4684 2.84713 18.0286 4.16239C18.7091 4.51203 19.165 6.31009 18.7209 6.922C18.4917 7.23786 18.137 7.14731 17.8218 7.14767C15.081 7.15173 12.3404 7.15032 9.59958 7.15032Z" fill="#020202"/>
<path fill-rule="evenodd" clip-rule="evenodd" d="M9.68054 6.27668C7.20707 6.27615 4.73379 6.28358 2.2605 6.26554C1.99257 6.26359 1.5377 6.49474 1.49773 5.96347C1.46908 5.58377 1.33591 5.15738 1.84808 4.89528C4.35603 3.61115 6.8539 2.30722 9.34611 0.993023C9.64022 0.837923 9.8466 0.953054 10.0742 1.07013C12.5277 2.33198 14.9672 3.6207 17.4398 4.84382C17.9856 5.11352 17.9583 5.48951 17.9228 5.92138C17.8738 6.51702 17.3908 6.26377 17.1006 6.26607C14.6273 6.28588 12.1538 6.27721 9.68054 6.27668Z" fill="#FDFDFD"/>
<path fill-rule="evenodd" clip-rule="evenodd" d="M8.26402 4.01186C8.24687 3.18825 8.85843 2.54981 9.67531 2.5392C10.489 2.52824 11.1257 3.1589 11.1241 3.97401C11.1223 4.75305 10.5228 5.38441 9.75932 5.41041C8.95145 5.43818 8.28083 4.81088 8.26402 4.01186Z" fill="#030303"/>
<path fill-rule="evenodd" clip-rule="evenodd" d="M9.67096 4.53583C9.34484 4.47676 9.13775 4.30574 9.14677 3.95398C9.15596 3.59568 9.37031 3.42183 9.71075 3.43421C10.0531 3.44659 10.2491 3.64131 10.2358 3.99607C10.2226 4.34942 10.0063 4.50612 9.67096 4.53583Z" fill="#F3F3F3"/>
</svg>
