<svg width="21" height="20" viewBox="0 0 21 20" fill="none" xmlns="http://www.w3.org/2000/svg">
<path d="M12.1342 13.1992C12.0191 13.4145 11.8616 13.5936 11.6623 13.7407C11.4623 13.8871 11.2223 13.996 10.9436 14.0686C10.8217 14.0994 10.695 14.1203 10.5652 14.1382V14.9491H9.59667V14.1541C9.32164 14.1308 9.05764 14.0877 8.80971 14.0194C8.43067 13.916 7.93472 13.497 7.93472 13.497C7.89164 13.4724 7.86333 13.4287 7.85718 13.3801C7.85104 13.3314 7.86825 13.2828 7.90271 13.2478L8.38755 12.7623C8.44048 12.7106 8.52168 12.7007 8.58445 12.7389C8.58445 12.7389 8.9475 13.0546 9.22193 13.1296C9.49759 13.2047 9.77081 13.2422 10.0428 13.2422C10.3861 13.2422 10.6704 13.1813 10.8956 13.0601C11.1208 12.9377 11.234 12.7493 11.234 12.4909C11.234 12.3051 11.1786 12.1586 11.0666 12.051C10.9559 11.9445 10.7688 11.8768 10.5043 11.8479L9.63542 11.7729C9.121 11.7224 8.72354 11.5791 8.44481 11.344C8.16486 11.1077 8.02577 10.7502 8.02577 10.2715C8.02577 10.0063 8.07992 9.77064 8.18758 9.56331C8.29525 9.35597 8.44111 9.1812 8.6269 9.03845C8.81333 8.89507 9.02992 8.78803 9.27604 8.71664C9.37941 8.68647 9.48708 8.66678 9.59663 8.64895V7.94995H10.5651V8.63418C10.7909 8.65694 11.0063 8.69325 11.2057 8.74862C11.5466 8.84092 11.9028 9.11965 11.9028 9.11965C11.9478 9.14305 11.9779 9.18672 11.9853 9.23594C11.9933 9.28639 11.9773 9.33624 11.9416 9.37255L11.4863 9.83464C11.4377 9.88386 11.3632 9.89619 11.3011 9.86417C11.3011 9.86417 11.0322 9.67219 10.799 9.6119C10.5664 9.55161 10.3221 9.52023 10.0643 9.52023C9.72836 9.52023 9.47976 9.58485 9.31916 9.71405C9.15794 9.84267 9.07796 10.0106 9.07796 10.2174C9.07796 10.4032 9.13459 10.5465 9.25025 10.6456C9.36347 10.7466 9.55666 10.8118 9.82866 10.8388L10.5904 10.904C11.1541 10.9545 11.5823 11.104 11.8715 11.3545C12.1613 11.6043 12.3059 11.9698 12.3059 12.4479C12.3059 12.7346 12.2486 12.9844 12.1342 13.1992Z" fill="black"/>
<path d="M17.4835 4.86279H2.67906C1.19987 4.86279 0 6.06203 0 7.54185V15.4154C0 16.8946 1.19865 18.0939 2.67784 18.0945V18.7768C2.67784 19.2119 3.0304 19.5644 3.46543 19.5644C3.90047 19.5644 4.25303 19.2119 4.25303 18.7768V18.0945H15.9095V18.7768C15.9095 19.2119 16.2621 19.5644 16.6971 19.5644C17.1321 19.5644 17.4847 19.2119 17.4847 18.7768V18.0945C18.9639 18.0938 20.1625 16.8946 20.1625 15.4154V7.54185C20.1625 6.06203 18.9627 4.86279 17.4835 4.86279ZM18.5873 15.4154C18.5873 16.0239 18.092 16.5193 17.4835 16.5193H2.67906C2.07052 16.5193 1.5752 16.0239 1.5752 15.4154V7.54185C1.5752 6.93331 2.07052 6.43799 2.67906 6.43799H17.4835C18.092 6.43799 18.5873 6.93331 18.5873 7.54185V15.4154Z" fill="black"/>
<path d="M7.16254 2.97146C7.16317 2.63059 7.29852 2.32783 7.52188 2.10388C7.74588 1.88052 8.04859 1.74454 8.38946 1.74454H11.9491C12.1201 1.74454 12.2604 1.77777 12.3822 1.83314C12.5631 1.91682 12.7096 2.0528 12.8203 2.24541C12.9311 2.43739 12.9988 2.68721 12.9988 2.9715V3.63418H14.2589V2.97146C14.2589 2.32598 14.0534 1.71193 13.6498 1.24551C13.4479 1.01294 13.1957 0.819699 12.9065 0.687422C12.6167 0.554515 12.2905 0.483749 11.949 0.484379H8.38942C7.01542 0.484379 5.90293 1.59808 5.90234 2.97146V3.63414H7.1625V2.97146H7.16254Z" fill="black"/>
</svg>
