<svg width="14" height="20" viewBox="0 0 14 20" fill="none" xmlns="http://www.w3.org/2000/svg">
<path d="M12.7839 10.3134H10.9057L10.3963 1.70533C10.371 1.27915 10.0168 0.945312 9.59001 0.945312H3.61211C3.18773 0.945312 2.83369 1.27708 2.80612 1.70054L2.2456 10.3134H0.658513C0.405262 10.3134 0.199219 10.5194 0.199219 10.7727V12.4153C0.199219 12.6686 0.405262 12.8746 0.658513 12.8746H1.26935V13.4652C1.26935 13.812 1.5515 14.0941 1.8982 14.0941H2.23559V18.7153C2.23559 18.9028 2.3881 19.0553 2.57557 19.0553H3.01558C3.20305 19.0553 3.35552 18.9027 3.35552 18.7153V14.0941H9.79473V18.7153C9.79473 18.9028 9.94724 19.0553 10.1347 19.0553H10.5747C10.7622 19.0553 10.9147 18.9028 10.9147 18.7153V14.0941H11.5443C11.891 14.0941 12.1731 13.812 12.1731 13.4653V12.8747H12.7839C13.0372 12.8747 13.2431 12.6687 13.2431 12.4154V10.7728C13.2432 10.5194 13.0371 10.3134 12.7839 10.3134ZM3.12168 1.72109C3.13841 1.46336 3.3539 1.26154 3.61211 1.26154H9.59001C9.8498 1.26154 10.0653 1.46468 10.0806 1.72404L10.5889 10.3134H2.5624L3.12168 1.72109ZM3.03934 18.7153C3.03934 18.7285 3.02872 18.7391 3.01558 18.7391H2.57557C2.56244 18.7391 2.55177 18.7285 2.55177 18.7153V14.0941H3.03934V18.7153ZM10.5985 18.7153C10.5985 18.7285 10.5879 18.7391 10.5747 18.7391H10.1347C10.1216 18.7391 10.111 18.7285 10.111 18.7153V14.0941H10.5985V18.7153ZM11.8569 13.4652C11.8569 13.6377 11.7166 13.7779 11.5443 13.7779H10.9147H9.79473H3.35552H2.23559H1.8982C1.72584 13.7779 1.58553 13.6377 1.58553 13.4652V12.8746H11.8569V13.4652ZM12.927 12.4153C12.927 12.4942 12.8628 12.5584 12.7839 12.5584H12.1731H1.26935H0.658513C0.579644 12.5584 0.515398 12.4942 0.515398 12.4153V10.7727C0.515398 10.6938 0.579644 10.6296 0.658513 10.6296H2.22505H10.9243H12.7839C12.8628 10.6296 12.9271 10.6938 12.9271 10.7727V12.4153H12.927Z" fill="black"/>
</svg>
