<svg width="71" height="71" viewBox="0 0 71 71" fill="none" xmlns="http://www.w3.org/2000/svg">
<path d="M31.9668 9.06641H8.65929C6.89314 9.06641 5.19932 9.76801 3.95046 11.0169C2.7016 12.2657 2 13.9595 2 15.7257V62.3407C2 64.1069 2.7016 65.8007 3.95046 67.0496C5.19932 68.2984 6.89314 69 8.65929 69H55.2743C57.0405 69 58.7343 68.2984 59.9832 67.0496C61.232 65.8007 61.9336 64.1069 61.9336 62.3407V39.0332" stroke="black" strokeWidth="3" strokeLinecap="round" strokeLinejoin="round"/>
<path d="M56.9388 4.06878C58.2634 2.74416 60.06 2 61.9333 2C63.8066 2 65.6031 2.74416 66.9278 4.06878C68.2524 5.39339 68.9965 7.18996 68.9965 9.06325C68.9965 10.9365 68.2524 12.7331 66.9278 14.0577L35.2961 45.6894L21.9775 49.019L25.3072 35.7004L56.9388 4.06878Z" stroke="black" strokeWidth="3" strokeLinecap="round" strokeLinejoin="round"/>
</svg>
