<svg width="19" height="19" viewBox="0 0 19 19" fill="none" xmlns="http://www.w3.org/2000/svg">
<path fillRule="evenodd" clipRule="evenodd" d="M0.754395 4.32599C0.76408 11.9158 6.81937 18.0662 14.2919 18.076C16.5151 18.0959 18.337 16.2892 18.3708 14.0314C18.3711 13.8041 18.3534 13.5772 18.318 13.3528C18.2811 13.131 18.2252 12.9129 18.151 12.701C18.0527 12.4096 17.8135 12.1903 17.5181 12.1206L12.2437 10.8974C11.9528 10.8304 11.6483 10.9178 11.435 11.1296C11.3119 11.2456 11.3031 11.2546 10.7317 12.3617C8.83578 11.4743 7.31658 9.92497 6.45071 7.99564C7.53196 7.42421 7.54075 7.41528 7.65502 7.29028C7.86348 7.07359 7.94954 6.76431 7.88358 6.46885L6.67927 1.11171C6.61899 0.801473 6.40165 0.54676 6.10788 0.442066C5.90259 0.367593 5.6906 0.313763 5.47495 0.281352C5.25189 0.238029 5.02517 0.217095 4.79808 0.218852C2.56481 0.218852 0.754395 2.05768 0.754395 4.32599ZM2.51251 4.32598C2.51733 3.04593 3.53779 2.00945 4.79807 2.00456H5.08816L6.02876 6.14741L5.54527 6.38848C4.78928 6.79027 4.19152 7.1117 4.50798 7.80813C5.55158 10.8089 7.86961 13.1731 10.8196 14.2456C11.5581 14.5492 11.8481 13.9867 12.2437 13.2099L12.4986 12.7188L16.5775 13.6742V13.9688C16.5727 15.2489 15.5522 16.2854 14.2919 16.2903C7.78835 16.2853 2.51736 10.9316 2.51251 4.32598Z" fill="black"/>
</svg>
