<svg width="14" height="15" viewBox="0 0 14 15" fill="none" xmlns="http://www.w3.org/2000/svg">
<path d="M7.83514 1.25084L12.0569 3.1256C13.2734 3.66227 13.2734 4.54955 12.0569 5.08622L7.83514 6.96098C7.35572 7.17564 6.56861 7.17564 6.08919 6.96098L1.86741 5.08622C0.650967 4.54955 0.650967 3.66227 1.86741 3.1256L6.08919 1.25084C6.56861 1.03618 7.35572 1.03618 7.83514 1.25084Z" stroke="black" strokeWidth="0.8" strokeLinecap="round" strokeLinejoin="round"/>
<path d="M0.671875 7.03125C0.671875 7.63232 1.12268 8.32641 1.67365 8.56969L6.53227 10.7307C6.90436 10.8953 7.32654 10.8953 7.69148 10.7307L12.5501 8.56969C13.1011 8.32641 13.5519 7.63232 13.5519 7.03125" stroke="black" strokeWidth="0.8" strokeLinecap="round" strokeLinejoin="round"/>
<path d="M0.671875 10.6133C0.671875 11.2787 1.06543 11.8798 1.67365 12.1517L6.53227 14.3127C6.90436 14.4773 7.32654 14.4773 7.69148 14.3127L12.5501 12.1517C13.1583 11.8798 13.5519 11.2787 13.5519 10.6133" stroke="black" strokeWidth="0.8" strokeLinecap="round" strokeLinejoin="round"/>
</svg>
