<svg width="20" height="22" viewBox="0 0 20 22" fill="none" xmlns="http://www.w3.org/2000/svg">
<path d="M2.19376 18.722C2.1038 18.7219 2.01587 18.6952 1.94112 18.6451C1.86637 18.5951 1.80817 18.524 1.77389 18.4408C0.914128 16.2669 0.932237 13.844 1.8244 11.6832C2.71656 9.52241 4.41303 7.79253 6.55604 6.85841C6.66505 6.82174 6.78391 6.82778 6.88864 6.87531C6.99337 6.92284 7.07618 7.00832 7.12035 7.11451C7.16453 7.2207 7.16678 7.33969 7.12666 7.44748C7.08654 7.55527 7.00704 7.64383 6.90418 7.69529C4.98043 8.53456 3.45783 10.0882 2.65755 12.0285C1.85727 13.9688 1.84187 16.1441 2.61459 18.0955C2.63741 18.1507 2.6491 18.2098 2.64899 18.2696C2.64888 18.3293 2.63698 18.3884 2.61396 18.4435C2.59094 18.4986 2.55726 18.5486 2.51486 18.5906C2.47246 18.6327 2.42217 18.6659 2.36688 18.6885C2.31218 18.7106 2.25277 18.722 2.19376 18.722ZM16.1041 16.1894C17.5579 15.6432 18.1795 14.2669 17.7683 12.5042C17.1122 9.68945 13.5973 5.87425 8.95477 6.33812C8.89315 6.34097 8.83276 6.35634 8.77728 6.3833C8.72179 6.41025 8.67238 6.44823 8.63205 6.4949C8.59172 6.54157 8.56131 6.59597 8.54269 6.65478C8.52407 6.71358 8.51761 6.77557 8.52373 6.83695C8.52984 6.89833 8.54839 6.95782 8.57824 7.0118C8.60809 7.06578 8.64863 7.11312 8.69737 7.15092C8.74611 7.18873 8.80204 7.21621 8.86175 7.23169C8.92146 7.24718 8.9837 7.25034 9.04467 7.24099C10.7779 7.13071 12.4972 7.6118 13.9215 8.60558C15.3458 9.59935 16.3908 11.047 16.8855 12.7118C17.0785 13.2069 17.0717 13.7575 16.8665 14.2477C16.6613 14.7378 16.2737 15.1292 15.7856 15.3391C14.9698 15.6451 14.0487 14.9699 12.9259 14.0546C12.8797 14.017 12.8266 13.9888 12.7696 13.9717C12.7125 13.9546 12.6527 13.949 12.5934 13.955C12.5342 13.961 12.4767 13.9787 12.4243 14.0069C12.3719 14.0352 12.3255 14.0735 12.2879 14.1196C12.2503 14.1658 12.2222 14.2189 12.2051 14.2759C12.188 14.333 12.1823 14.3928 12.1883 14.4521C12.1944 14.5113 12.212 14.5688 12.2403 14.6212C12.2685 14.6736 12.3068 14.72 12.353 14.7576C13.2243 15.4682 14.2706 16.3223 15.3734 16.3223C15.623 16.3223 15.8706 16.2779 16.1041 16.1894ZM12.484 20.8921C12.5332 20.7825 12.537 20.6579 12.4945 20.5455C12.452 20.4331 12.3667 20.3421 12.2573 20.2924C9.37369 18.9907 7.41779 16.2066 7.40057 14.4247C7.37255 14.1604 7.42676 13.8938 7.55582 13.6613C7.68488 13.4289 7.8825 13.2419 8.12172 13.1259C8.52933 12.9505 8.97672 12.8883 9.41673 12.9459C9.85673 13.0034 10.2731 13.1786 10.6218 13.453C10.7247 13.5155 10.8482 13.5346 10.9651 13.5061C11.0821 13.4776 11.1829 13.4038 11.2454 13.3009C11.3079 13.1981 11.3271 13.0746 11.2985 12.9576C11.27 12.8407 11.1962 12.7399 11.0933 12.6773C10.6157 12.3245 10.0532 12.1042 9.46298 12.0389C8.87274 11.9736 8.27572 12.0655 7.73245 12.3053C7.33606 12.4945 7.00582 12.7987 6.78474 13.1783C6.56365 13.5579 6.46197 13.9952 6.49292 14.4333C6.51205 16.4868 8.57889 19.6277 11.8834 21.1188C11.9931 21.1683 12.118 21.1722 12.2306 21.1297C12.3432 21.0872 12.4343 21.0018 12.484 20.8921ZM16.3279 19.2031C16.3572 19.0864 16.339 18.9629 16.2773 18.8596C16.2156 18.7563 16.1155 18.6817 15.9989 18.6522C13.5093 18.0228 10.8954 16.2477 9.91885 14.5223C9.89071 14.4681 9.85194 14.4202 9.80485 14.3813C9.75776 14.3424 9.70332 14.3135 9.64478 14.2961C9.58624 14.2788 9.52481 14.2734 9.46415 14.2803C9.40349 14.2872 9.34485 14.3063 9.29173 14.3364C9.2386 14.3665 9.1921 14.407 9.15498 14.4555C9.11786 14.504 9.09089 14.5594 9.07569 14.6186C9.06048 14.6777 9.05735 14.7393 9.06649 14.7996C9.07562 14.86 9.09683 14.9179 9.12884 14.9699C10.3789 17.1783 13.4194 18.9362 15.776 19.5321C15.8126 19.5411 15.8502 19.5456 15.8879 19.5455C15.9889 19.5454 16.0869 19.5117 16.1666 19.4497C16.2463 19.3877 16.303 19.3009 16.3279 19.2031ZM6.79228 21.3263C6.89325 21.2609 6.96416 21.1581 6.98944 21.0405C7.01472 20.9229 6.99232 20.8 6.92714 20.6989C3.71449 15.7111 4.77134 12.3407 6.65264 10.9701C8.49855 9.62441 11.7562 9.77744 14.1587 12.7041C14.1961 12.7512 14.2425 12.7904 14.2952 12.8193C14.3479 12.8483 14.4058 12.8665 14.4656 12.8729C14.5253 12.8793 14.5858 12.8737 14.6434 12.8565C14.701 12.8393 14.7546 12.8108 14.8011 12.7727C14.8476 12.7346 14.8861 12.6876 14.9142 12.6345C14.9424 12.5813 14.9597 12.5232 14.9651 12.4633C14.9706 12.4034 14.9641 12.343 14.946 12.2857C14.9279 12.2284 14.8986 12.1752 14.8598 12.1293C12.1053 8.77032 8.30057 8.6479 6.118 10.2375C3.91821 11.8395 2.60981 15.67 6.16486 21.1905C6.22994 21.2916 6.33249 21.3627 6.44997 21.3881C6.56745 21.4136 6.69023 21.3914 6.79132 21.3263H6.79228ZM2.8537 3.63046C4.11906 2.45023 10.8609 -0.738513 15.9348 3.31484C15.9811 3.35391 16.0347 3.38333 16.0925 3.40134C16.1503 3.41935 16.2111 3.4256 16.2714 3.41972C16.3317 3.41384 16.3901 3.39594 16.4434 3.36709C16.4966 3.33823 16.5435 3.29901 16.5814 3.25172C16.6192 3.20444 16.6472 3.15006 16.6636 3.09178C16.6801 3.03351 16.6847 2.97253 16.6772 2.91245C16.6697 2.85236 16.6503 2.79438 16.62 2.74193C16.5897 2.68949 16.5493 2.64363 16.501 2.60708C11.2464 -1.59165 4.16592 1.16287 2.23489 2.96766C2.19137 3.00829 2.15628 3.05709 2.13162 3.11129C2.10696 3.16548 2.09322 3.224 2.09117 3.2835C2.08913 3.34301 2.09883 3.40233 2.11971 3.45809C2.1406 3.51385 2.17226 3.56494 2.21289 3.60846C2.25352 3.65198 2.30233 3.68708 2.35652 3.71173C2.41072 3.73639 2.46924 3.75014 2.52874 3.75218C2.58824 3.75422 2.64757 3.74452 2.70333 3.72364C2.75908 3.70276 2.81018 3.67109 2.8537 3.63046ZM19.4449 11.9227C19.5632 11.9002 19.6677 11.8317 19.7355 11.7321C19.8033 11.6326 19.8288 11.5102 19.8064 11.3919C19.3636 9.27413 18.2503 7.35537 16.6315 5.91999C15.0126 4.48461 12.9744 3.609 10.8189 3.42292C8.60297 3.15818 6.36194 3.63742 4.44814 4.78529C2.53433 5.93315 1.05631 7.68454 0.24647 9.76405C0.203352 9.87348 0.204357 9.99537 0.249274 10.1041C0.294191 10.2128 0.379518 10.2998 0.487305 10.3469C0.595093 10.394 0.716939 10.3974 0.827211 10.3565C0.937483 10.3156 1.02759 10.2335 1.07856 10.1275C2.869 6.01484 6.47283 3.84375 10.7175 4.32483C12.6798 4.48987 14.5368 5.28277 16.0132 6.58602C17.4896 7.88927 18.5068 9.6335 18.9141 11.5602C18.9337 11.6642 18.9889 11.758 19.0703 11.8256C19.1516 11.8931 19.254 11.9302 19.3598 11.9304C19.3884 11.9301 19.4168 11.9272 19.4449 11.9218V11.9227Z" fill="black"/>
</svg>
