<svg width="20" height="14" viewBox="0 0 20 14" fill="none" xmlns="http://www.w3.org/2000/svg">
<path d="M18.2422 0.269531H1.61719C1.30224 0.269531 1.0002 0.394643 0.777498 0.617342C0.554799 0.840041 0.429688 1.14209 0.429688 1.45703L0.429688 12.5404C0.429688 12.8553 0.554799 13.1574 0.777498 13.3801C1.0002 13.6028 1.30224 13.7279 1.61719 13.7279H18.2422C18.5571 13.7279 18.8592 13.6028 19.0819 13.3801C19.3046 13.1574 19.4297 12.8553 19.4297 12.5404V1.45703C19.4297 1.14209 19.3046 0.840041 19.0819 0.617342C18.8592 0.394643 18.5571 0.269531 18.2422 0.269531ZM17.9889 1.0612L9.92969 7.29161L1.87052 1.0612H17.9889ZM1.22135 12.3781V1.55995L7.32115 6.27432L1.22135 12.3781ZM1.77948 12.9362L7.95052 6.76516L9.68427 8.10703C9.75349 8.16031 9.83838 8.18921 9.92573 8.18921C10.0131 8.18921 10.098 8.16031 10.1672 8.10703L11.9089 6.76516L18.0799 12.9362H1.77948ZM18.638 12.3781L12.5382 6.27432L18.638 1.55995V12.3781Z" fill="black"/>
</svg>
