<svg width="21" height="21" viewBox="0 0 21 21" fill="none" xmlns="http://www.w3.org/2000/svg">
<path d="M0.227892 18.0697C0.238729 18.455 0.326872 18.8342 0.487083 19.1848C0.647296 19.5354 0.876312 19.8502 1.16054 20.1106C1.44477 20.371 1.77841 20.5716 2.14167 20.7005C2.50492 20.8295 2.89038 20.8841 3.27516 20.8612C5.67926 20.8746 8.08447 20.8612 10.4886 20.8612C10.6366 20.8612 10.7786 20.8024 10.8833 20.6977C10.9881 20.593 11.0469 20.451 11.0469 20.3029C11.0469 20.1548 10.9881 20.0128 10.8833 19.9081C10.7786 19.8034 10.6366 19.7446 10.4886 19.7446C8.03199 19.7446 5.57541 19.7803 3.11884 19.7446C1.88273 19.7267 1.34452 18.7977 1.34452 17.6923V3.77463C1.33605 3.42322 1.43514 3.0776 1.62851 2.78405C1.82188 2.4905 2.10031 2.26303 2.42653 2.13208C2.81207 2.02696 3.21319 1.99104 3.61127 2.026H10.4886C10.6366 2.026 10.7786 1.96717 10.8833 1.86247C10.9881 1.75777 11.0469 1.61576 11.0469 1.46768C11.0469 1.31961 10.9881 1.1776 10.8833 1.0729C10.7786 0.968193 10.6366 0.909371 10.4886 0.909371C8.00407 0.909371 5.50283 0.814458 3.02057 0.909371C2.64057 0.918831 2.26625 1.00381 1.91941 1.15935C1.57257 1.3149 1.26015 1.5379 1.00035 1.81538C0.740539 2.09285 0.538538 2.41925 0.406114 2.77556C0.273688 3.13186 0.213484 3.51096 0.229009 3.89076L0.227892 18.0697Z" fill="black"/>
<path d="M6.16004 11.2814C6.06582 11.1893 6.01064 11.0646 6.00595 10.933C6.00261 10.9175 6.00037 10.9018 5.99925 10.8861C6.00039 10.8707 6.00262 10.8554 6.00595 10.8403C6.0099 10.7082 6.06517 10.5828 6.16004 10.4908L10.2569 6.39501C10.3622 6.29331 10.5033 6.23703 10.6497 6.2383C10.796 6.23957 10.9361 6.29829 11.0396 6.40181C11.1431 6.50532 11.2018 6.64535 11.2031 6.79174C11.2044 6.93813 11.1481 7.07916 11.0464 7.18446L7.90198 10.3278H19.8968C20.0448 10.3278 20.1868 10.3866 20.2916 10.4913C20.3963 10.596 20.4551 10.738 20.4551 10.8861C20.4551 11.0341 20.3963 11.1762 20.2916 11.2809C20.1868 11.3856 20.0448 11.4444 19.8968 11.4444H7.90198L11.0464 14.5877C11.1481 14.693 11.2044 14.834 11.2031 14.9804C11.2018 15.1268 11.1431 15.2668 11.0396 15.3703C10.9361 15.4739 10.796 15.5326 10.6497 15.5338C10.5033 15.5351 10.3622 15.4788 10.2569 15.3771L6.16004 11.2814Z" fill="black"/>
</svg>
