<svg width="31" height="31" viewBox="0 0 31 31" fill="none" xmlns="http://www.w3.org/2000/svg">
<path fill-rule="evenodd" clip-rule="evenodd" d="M20.0001 28.1391L16.2626 25.9266C15.8751 25.7016 15.1251 25.7016 14.7501 25.9266L11.0001 28.1391C8.78765 29.4516 7.48765 28.9266 6.90015 28.5016C6.32515 28.0766 5.42515 26.9891 6.01265 24.4891L6.90015 20.6516C7.00015 20.2516 6.80015 19.5641 6.50015 19.2641L3.40015 16.1641C1.85015 14.6141 1.97515 13.2891 2.18765 12.6391C2.40015 11.9891 3.07515 10.8391 5.22515 10.4766L9.21265 9.81406C9.58765 9.75156 10.1251 9.35156 10.2876 9.01406L12.5001 4.60156C13.5001 2.58906 14.8126 2.28906 15.5001 2.28906C16.1876 2.28906 17.5001 2.58906 18.5001 4.60156L20.7001 9.00156C20.8751 9.33906 21.4126 9.73906 21.7876 9.80156L25.7751 10.4641C27.9376 10.8266 28.6126 11.9766 28.8126 12.6266C29.0126 13.2766 29.1376 14.6016 27.6001 16.1516L24.5001 19.2641C24.2001 19.5641 24.0126 20.2391 24.1001 20.6516L24.9876 24.4891C25.5626 26.9891 24.6751 28.0766 24.1001 28.5016C23.7876 28.7266 23.2876 28.9766 22.5751 28.9766C21.9126 28.9766 21.0626 28.7641 20.0001 28.1391ZM17.2126 24.3141L20.9501 26.5266C22.0376 27.1766 22.7251 27.1766 22.9876 26.9891C23.2501 26.8016 23.4376 26.1391 23.1626 24.9141L22.2751 21.0766C22.0376 20.0391 22.4251 18.7016 23.1751 17.9391L26.2751 14.8391C26.8876 14.2266 27.1626 13.6266 27.0376 13.2141C26.9001 12.8016 26.3251 12.4641 25.4751 12.3266L21.4876 11.6641C20.5251 11.5016 19.4751 10.7266 19.0376 9.85156L16.8376 5.45156C16.4376 4.65156 15.9376 4.17656 15.5001 4.17656C15.0626 4.17656 14.5626 4.65156 14.1751 5.45156L11.9626 9.85156C11.5251 10.7266 10.4751 11.5016 9.51265 11.6641L5.53765 12.3266C4.68765 12.4641 4.11265 12.8016 3.97515 13.2141C3.83765 13.6266 4.12515 14.2391 4.73765 14.8391L7.83765 17.9391C8.58765 18.6891 8.97515 20.0391 8.73765 21.0766L7.85015 24.9141C7.56265 26.1516 7.76265 26.8016 8.02515 26.9891C8.28765 27.1766 8.96265 27.1641 10.0626 26.5266L13.8001 24.3141C14.2751 24.0266 14.8876 23.8766 15.5001 23.8766C16.1126 23.8766 16.7251 24.0266 17.2126 24.3141Z" fill="white"/>
</svg>
