<svg width="20" height="19" viewBox="0 0 20 19" fill="none" xmlns="http://www.w3.org/2000/svg">
<path fillRule="evenodd" clipRule="evenodd" d="M12.7706 18.4037L10.1097 16.8286C9.83383 16.6684 9.29987 16.6684 9.03289 16.8286L6.3631 18.4037C4.78793 19.3382 3.8624 18.9644 3.44413 18.6618C3.03477 18.3593 2.39402 17.585 2.81228 15.8052L3.44413 13.0731C3.51533 12.7883 3.37294 12.2988 3.15936 12.0852L0.95233 9.87822C-0.151183 8.77471 -0.0621902 7.83138 0.0890979 7.36862C0.240386 6.90586 0.720948 6.08712 2.25163 5.82904L5.0905 5.35738C5.35748 5.31288 5.74015 5.0281 5.85584 4.78782L7.43102 1.64637C8.14296 0.213583 9.07739 0 9.56685 0C10.0563 0 10.9907 0.213583 11.7027 1.64637L13.269 4.77892C13.3935 5.0192 13.7762 5.30398 14.0432 5.34848L16.8821 5.82014C18.4217 6.07822 18.9022 6.89696 19.0446 7.35972C19.187 7.82248 19.276 8.76581 18.1814 9.86932L15.9743 12.0852C15.7608 12.2988 15.6273 12.7794 15.6896 13.0731L16.3214 15.8052C16.7308 17.585 16.0989 18.3593 15.6896 18.6618C15.4671 18.822 15.1111 19 14.6039 19C14.1322 19 13.527 18.8487 12.7706 18.4037Z" fill="black"/>
<path d="M6.19 13L9.02 5.9H10.32L13.16 13H11.9L11.23 11.24H8.07L7.4 13H6.19ZM9.65 7.13L8.47 10.2H10.83L9.65 7.13Z" fill="white"/>
</svg>
