<svg width="21" height="18" viewBox="0 0 21 18" fill="none" xmlns="http://www.w3.org/2000/svg">
<path d="M20.1702 3.22692H6.45428C6.2403 3.22692 6.03508 3.14191 5.88377 2.99061C5.73246 2.8393 5.64746 2.63408 5.64746 2.4201C5.64746 2.20612 5.73246 2.0009 5.88377 1.84959C6.03508 1.69829 6.2403 1.61328 6.45428 1.61328H20.1702C20.3842 1.61328 20.5894 1.69829 20.7407 1.84959C20.892 2.0009 20.977 2.20612 20.977 2.4201C20.977 2.63408 20.892 2.8393 20.7407 2.99061C20.5894 3.14191 20.3842 3.22692 20.1702 3.22692Z" fill="black"/>
<path d="M3.22727 3.22692H0.806818C0.592837 3.22692 0.387619 3.14191 0.236312 2.99061C0.0850038 2.8393 0 2.63408 0 2.4201C0 2.20612 0.0850038 2.0009 0.236312 1.84959C0.387619 1.69829 0.592837 1.61328 0.806818 1.61328H3.22727C3.44125 1.61328 3.64647 1.69829 3.79778 1.84959C3.94909 2.0009 4.03409 2.20612 4.03409 2.4201C4.03409 2.63408 3.94909 2.8393 3.79778 2.99061C3.64647 3.14191 3.44125 3.22692 3.22727 3.22692Z" fill="black"/>
<path d="M14.5227 9.68004H0.806818C0.592837 9.68004 0.387619 9.59504 0.236312 9.44373C0.0850038 9.29242 0 9.08721 0 8.87322C0 8.65924 0.0850038 8.45403 0.236312 8.30272C0.387619 8.15141 0.592837 8.06641 0.806818 8.06641H14.5227C14.7367 8.06641 14.9419 8.15141 15.0932 8.30272C15.2445 8.45403 15.3295 8.65924 15.3295 8.87322C15.3295 9.08721 15.2445 9.29242 15.0932 9.44373C14.9419 9.59504 14.7367 9.68004 14.5227 9.68004Z" fill="black"/>
<path d="M6.45454 16.1371H0.806818C0.592837 16.1371 0.387619 16.0521 0.236311 15.9008C0.0850038 15.7495 0 15.5442 0 15.3303C0 15.1163 0.0850038 14.9111 0.236311 14.7597C0.387619 14.6084 0.592837 14.5234 0.806818 14.5234H6.45454C6.66853 14.5234 6.87374 14.6084 7.02505 14.7597C7.17636 14.9111 7.26136 15.1163 7.26136 15.3303C7.26136 15.5442 7.17636 15.7495 7.02505 15.9008C6.87374 16.0521 6.66853 16.1371 6.45454 16.1371Z" fill="black"/>
<path d="M4.84087 4.84091C4.36214 4.84091 3.89417 4.69895 3.49613 4.43299C3.09809 4.16703 2.78786 3.789 2.60466 3.34672C2.42146 2.90444 2.37353 2.41777 2.46692 1.94825C2.56031 1.47873 2.79084 1.04744 3.12935 0.708936C3.46785 0.370429 3.89914 0.139903 4.36866 0.0465094C4.83818 -0.0468843 5.32485 0.00104875 5.76713 0.184247C6.20941 0.367446 6.58744 0.677681 6.8534 1.07572C7.11936 1.47376 7.26132 1.94173 7.26132 2.42046C7.26132 3.0624 7.00631 3.67805 6.55238 4.13197C6.09846 4.5859 5.48281 4.84091 4.84087 4.84091ZM4.84087 1.61364C4.68129 1.61364 4.5253 1.66096 4.39262 1.74961C4.25994 1.83826 4.15653 1.96427 4.09546 2.1117C4.0344 2.25913 4.01842 2.42135 4.04955 2.57786C4.08068 2.73436 4.15752 2.87813 4.27036 2.99096C4.38319 3.1038 4.52696 3.18064 4.68346 3.21177C4.83997 3.2429 5.00219 3.22692 5.14962 3.16586C5.29705 3.10479 5.42306 3.00138 5.51171 2.8687C5.60036 2.73602 5.64768 2.58003 5.64768 2.42046C5.64768 2.20647 5.56268 2.00126 5.41137 1.84995C5.26006 1.69864 5.05485 1.61364 4.84087 1.61364Z" fill="black"/>
<path d="M16.1363 11.294C15.6576 11.294 15.1896 11.1521 14.7915 10.8861C14.3935 10.6202 14.0833 10.2421 13.9001 9.79985C13.7169 9.35757 13.6689 8.8709 13.7623 8.40137C13.8557 7.93185 14.0862 7.50057 14.4248 7.16206C14.7633 6.82355 15.1945 6.59303 15.6641 6.49963C16.1336 6.40624 16.6203 6.45417 17.0625 6.63737C17.5048 6.82057 17.8828 7.13081 18.1488 7.52885C18.4148 7.92689 18.5567 8.39486 18.5567 8.87358C18.5567 9.51552 18.3017 10.1312 17.8478 10.5851C17.3939 11.039 16.7782 11.294 16.1363 11.294ZM16.1363 8.06676C15.9767 8.06676 15.8207 8.11408 15.688 8.20274C15.5554 8.29139 15.4519 8.4174 15.3909 8.56482C15.3298 8.71225 15.3138 8.87448 15.345 9.03098C15.3761 9.18749 15.4529 9.33125 15.5658 9.44409C15.6786 9.55692 15.8224 9.63376 15.9789 9.6649C16.1354 9.69603 16.2976 9.68005 16.445 9.61898C16.5925 9.55792 16.7185 9.45451 16.8071 9.32183C16.8958 9.18914 16.9431 9.03315 16.9431 8.87358C16.9431 8.6596 16.8581 8.45438 16.7068 8.30307C16.5555 8.15177 16.3503 8.06676 16.1363 8.06676Z" fill="black"/>
<path d="M8.06792 17.7511C7.5892 17.7511 7.12123 17.6091 6.72318 17.3431C6.32514 17.0772 6.01491 16.6992 5.83171 16.2569C5.64851 15.8146 5.60058 15.3279 5.69397 14.8584C5.78736 14.3889 6.01789 13.9576 6.3564 13.6191C6.6949 13.2806 7.12619 13.0501 7.59571 12.9567C8.06523 12.8633 8.5519 12.9112 8.99418 13.0944C9.43646 13.2776 9.81449 13.5878 10.0805 13.9859C10.3464 14.3839 10.4884 14.8519 10.4884 15.3306C10.4884 15.9726 10.2334 16.5882 9.77944 17.0421C9.32551 17.4961 8.70986 17.7511 8.06792 17.7511ZM8.06792 14.5238C7.90834 14.5238 7.75235 14.5711 7.61967 14.6598C7.48699 14.7484 7.38358 14.8744 7.32251 15.0219C7.26145 15.1693 7.24547 15.3315 7.2766 15.488C7.30773 15.6445 7.38457 15.7883 7.49741 15.9011C7.61025 16.014 7.75401 16.0908 7.91051 16.1219C8.06702 16.1531 8.22925 16.1371 8.37667 16.076C8.5241 16.0149 8.65011 15.9115 8.73876 15.7789C8.82742 15.6462 8.87473 15.4902 8.87473 15.3306C8.87473 15.1166 8.78973 14.9114 8.63842 14.7601C8.48712 14.6088 8.2819 14.5238 8.06792 14.5238Z" fill="black"/>
<path d="M20.1706 9.68004H17.7502C17.5362 9.68004 17.331 9.59504 17.1797 9.44373C17.0284 9.29242 16.9434 9.08721 16.9434 8.87322C16.9434 8.65924 17.0284 8.45403 17.1797 8.30272C17.331 8.15141 17.5362 8.06641 17.7502 8.06641H20.1706C20.3846 8.06641 20.5898 8.15141 20.7411 8.30272C20.8924 8.45403 20.9774 8.65924 20.9774 8.87322C20.9774 9.08721 20.8924 9.29242 20.7411 9.44373C20.5898 9.59504 20.3846 9.68004 20.1706 9.68004Z" fill="black"/>
<path d="M20.1705 16.1371H9.68182C9.46784 16.1371 9.26262 16.0521 9.11131 15.9008C8.96 15.7495 8.875 15.5442 8.875 15.3303C8.875 15.1163 8.96 14.9111 9.11131 14.7597C9.26262 14.6084 9.46784 14.5234 9.68182 14.5234H20.1705C20.3844 14.5234 20.5897 14.6084 20.741 14.7597C20.8923 14.9111 20.9773 15.1163 20.9773 15.3303C20.9773 15.5442 20.8923 15.7495 20.741 15.9008C20.5897 16.0521 20.3844 16.1371 20.1705 16.1371Z" fill="black"/>
</svg>
