<svg width="80" height="68" viewBox="0 0 80 68" fill="none" xmlns="http://www.w3.org/2000/svg">
<path d="M76.9217 12.3061H24.6145C23.7985 12.3061 23.0158 11.982 22.4388 11.4049C21.8618 10.8279 21.5376 10.0453 21.5376 9.22924C21.5376 8.4132 21.8618 7.63058 22.4388 7.05355C23.0158 6.47652 23.7985 6.15234 24.6145 6.15234H76.9217C77.7378 6.15234 78.5204 6.47652 79.0974 7.05355C79.6745 7.63058 79.9986 8.4132 79.9986 9.22924C79.9986 10.0453 79.6745 10.8279 79.0974 11.4049C78.5204 11.982 77.7378 12.3061 76.9217 12.3061Z" fill="black"/>
<path d="M12.3076 12.3061H3.0769C2.26085 12.3061 1.47823 11.982 0.901202 11.4049C0.324172 10.8279 0 10.0453 0 9.22924C0 8.4132 0.324172 7.63058 0.901202 7.05355C1.47823 6.47652 2.26085 6.15234 3.0769 6.15234H12.3076C13.1236 6.15234 13.9063 6.47652 14.4833 7.05355C15.0603 7.63058 15.3845 8.4132 15.3845 9.22924C15.3845 10.0453 15.0603 10.8279 14.4833 11.4049C13.9063 11.982 13.1236 12.3061 12.3076 12.3061Z" fill="black"/>
<path d="M55.3841 36.9155H3.0769C2.26085 36.9155 1.47823 36.5913 0.901202 36.0143C0.324172 35.4373 0 34.6547 0 33.8386C0 33.0226 0.324172 32.24 0.901202 31.6629C1.47823 31.0859 2.26085 30.7617 3.0769 30.7617H55.3841C56.2002 30.7617 56.9828 31.0859 57.5598 31.6629C58.1369 32.24 58.461 33.0226 58.461 33.8386C58.461 34.6547 58.1369 35.4373 57.5598 36.0143C56.9828 36.5913 56.2002 36.9155 55.3841 36.9155Z" fill="black"/>
<path d="M24.6152 61.5405H3.0769C2.26085 61.5405 1.47823 61.2163 0.901202 60.6393C0.324172 60.0623 0 59.2797 0 58.4636C0 57.6476 0.324172 56.8649 0.901202 56.2879C1.47823 55.7109 2.26085 55.3867 3.0769 55.3867H24.6152C25.4312 55.3867 26.2138 55.7109 26.7909 56.2879C27.3679 56.8649 27.6921 57.6476 27.6921 58.4636C27.6921 59.2797 27.3679 60.0623 26.7909 60.6393C26.2138 61.2163 25.4312 61.5405 24.6152 61.5405Z" fill="black"/>
<path d="M18.4612 18.4614C16.6355 18.4614 14.8508 17.92 13.3329 16.9057C11.8149 15.8914 10.6318 14.4498 9.93312 12.7631C9.23447 11.0764 9.05167 9.22045 9.40784 7.42988C9.76401 5.6393 10.6431 3.99455 11.9341 2.70361C13.225 1.41267 14.8698 0.533537 16.6603 0.177369C18.4509 -0.178799 20.3069 0.00399953 21.9936 0.702649C23.6803 1.4013 25.1219 2.58442 26.1362 4.1024C27.1505 5.62038 27.6919 7.40504 27.6919 9.23069C27.6919 11.6788 26.7193 14.0267 24.9882 15.7578C23.2572 17.4889 20.9093 18.4614 18.4612 18.4614ZM18.4612 6.1538C17.8526 6.1538 17.2577 6.33425 16.7517 6.67235C16.2457 7.01044 15.8514 7.49099 15.6185 8.05322C15.3856 8.61545 15.3247 9.23411 15.4434 9.83097C15.5621 10.4278 15.8552 10.9761 16.2855 11.4064C16.7158 11.8367 17.264 12.1297 17.8609 12.2485C18.4577 12.3672 19.0764 12.3063 19.6386 12.0734C20.2009 11.8405 20.6814 11.4461 21.0195 10.9401C21.3576 10.4341 21.5381 9.83925 21.5381 9.23069C21.5381 8.41465 21.2139 7.63203 20.6369 7.055C20.0598 6.47797 19.2772 6.1538 18.4612 6.1538Z" fill="black"/>
<path d="M61.5378 43.0708C59.7122 43.0708 57.9275 42.5294 56.4095 41.5151C54.8916 40.5008 53.7084 39.0592 53.0098 37.3725C52.3111 35.6858 52.1283 33.8298 52.4845 32.0393C52.8407 30.2487 53.7198 28.6039 55.0107 27.313C56.3017 26.0221 57.9464 25.1429 59.737 24.7867C61.5276 24.4306 63.3836 24.6134 65.0703 25.312C66.7569 26.0107 68.1986 27.1938 69.2129 28.7118C70.2271 30.2298 70.7685 32.0144 70.7685 33.8401C70.7685 36.2882 69.796 38.6361 68.0649 40.3672C66.3338 42.0982 63.986 43.0708 61.5378 43.0708ZM61.5378 30.7632C60.9293 30.7632 60.3344 30.9436 59.8284 31.2817C59.3224 31.6198 58.928 32.1004 58.6951 32.6626C58.4623 33.2248 58.4013 33.8435 58.52 34.4403C58.6388 35.0372 58.9318 35.5855 59.3621 36.0158C59.7924 36.4461 60.3407 36.7391 60.9375 36.8578C61.5344 36.9766 62.1531 36.9156 62.7153 36.6828C63.2775 36.4499 63.7581 36.0555 64.0962 35.5495C64.4343 35.0435 64.6147 34.4486 64.6147 33.8401C64.6147 33.024 64.2906 32.2414 63.7135 31.6644C63.1365 31.0873 62.3539 30.7632 61.5378 30.7632Z" fill="black"/>
<path d="M30.7683 67.6958C28.9426 67.6958 27.158 67.1544 25.64 66.1401C24.122 65.1258 22.9389 63.6842 22.2402 61.9975C21.5416 60.3108 21.3588 58.4548 21.715 56.6642C22.0711 54.8737 22.9503 53.2289 24.2412 51.938C25.5321 50.6471 27.1769 49.7679 28.9675 49.4117C30.7581 49.0556 32.614 49.2384 34.3007 49.937C35.9874 50.6357 37.429 51.8188 38.4433 53.3368C39.4576 54.8548 39.999 56.6394 39.999 58.4651C39.999 60.9132 39.0265 63.2611 37.2954 64.9922C35.5643 66.7232 33.2164 67.6958 30.7683 67.6958ZM30.7683 55.3882C30.1597 55.3882 29.5649 55.5686 29.0589 55.9067C28.5529 56.2448 28.1585 56.7254 27.9256 57.2876C27.6927 57.8498 27.6318 58.4685 27.7505 59.0653C27.8692 59.6622 28.1623 60.2105 28.5926 60.6408C29.0229 61.0711 29.5712 61.3641 30.168 61.4828C30.7649 61.6016 31.3835 61.5406 31.9458 61.3078C32.508 61.0749 32.9885 60.6805 33.3266 60.1745C33.6647 59.6685 33.8452 59.0736 33.8452 58.4651C33.8452 57.649 33.521 56.8664 32.944 56.2894C32.367 55.7123 31.5843 55.3882 30.7683 55.3882Z" fill="black"/>
<path d="M76.9228 36.9155H67.6921C66.8761 36.9155 66.0935 36.5913 65.5164 36.0143C64.9394 35.4373 64.6152 34.6547 64.6152 33.8386C64.6152 33.0226 64.9394 32.24 65.5164 31.6629C66.0935 31.0859 66.8761 30.7617 67.6921 30.7617H76.9228C77.7389 30.7617 78.5215 31.0859 79.0985 31.6629C79.6755 32.24 79.9997 33.0226 79.9997 33.8386C79.9997 34.6547 79.6755 35.4373 79.0985 36.0143C78.5215 36.5913 77.7389 36.9155 76.9228 36.9155Z" fill="black"/>
<path d="M76.9223 61.5405H36.9226C36.1066 61.5405 35.3239 61.2163 34.7469 60.6393C34.1699 60.0623 33.8457 59.2797 33.8457 58.4636C33.8457 57.6476 34.1699 56.8649 34.7469 56.2879C35.3239 55.7109 36.1066 55.3867 36.9226 55.3867H76.9223C77.7383 55.3867 78.5209 55.7109 79.098 56.2879C79.675 56.8649 79.9992 57.6476 79.9992 58.4636C79.9992 59.2797 79.675 60.0623 79.098 60.6393C78.5209 61.2163 77.7383 61.5405 76.9223 61.5405Z" fill="black"/>
</svg>
