<svg width="23" height="23" viewBox="0 0 23 23" fill="none" xmlns="http://www.w3.org/2000/svg">
<path d="M1.17578 9.33972C1.42002 8.22319 1.80383 7.17645 2.36209 6.23438" stroke="black" stroke-miterlimit="10" stroke-linecap="round" stroke-linejoin="round"/>
<path d="M6.12905 2.43055C7.66427 1.52337 9.47863 1 11.4326 1C17.2245 1 21.9 5.67546 21.9 11.4674C21.9 17.2594 17.2245 21.9349 11.4326 21.9349C5.95459 21.9349 1.48848 17.7479 1 12.4095" stroke="black" stroke-miterlimit="10" stroke-linecap="round" stroke-linejoin="round"/>
<path d="M18.1667 14.3677C17.0502 16.9497 14.4682 18.799 11.4327 18.799C7.38527 18.799 4.10547 15.5192 4.10547 11.4717C4.10547 7.42433 7.38527 4.14453 11.4327 4.14453C14.3287 4.14453 16.8409 5.81932 18.0272 8.26173" stroke="black" stroke-miterlimit="10" stroke-linecap="round" stroke-linejoin="round"/>
<path d="M18.6203 10.0742C18.6901 10.5278 18.7599 10.9814 18.7599 11.4699C18.7599 12.1328 18.6901 12.7609 18.5156 13.354" stroke="black" stroke-miterlimit="10" stroke-linecap="round" stroke-linejoin="round"/>
<path d="M14.851 8.05078L11.4316 11.4701V14.1917" stroke="black" stroke-miterlimit="10" stroke-linecap="round" stroke-linejoin="round"/>
</svg>
