<svg width="20" height="20" viewBox="0 0 20 20" fill="none" xmlns="http://www.w3.org/2000/svg">
<path d="M10 2.5C11.4679 2.5 12.9029 2.93529 14.1234 3.75081C15.3439 4.56634 16.2952 5.72548 16.8569 7.08165C17.4187 8.43782 17.5656 9.93011 17.2793 11.3698C16.9929 12.8095 16.286 14.132 15.2481 15.1699C14.2101 16.2079 12.8876 16.9148 11.4479 17.2011C10.0082 17.4875 8.51595 17.3405 7.15978 16.7788C5.80361 16.2171 4.64447 15.2658 3.82894 14.0452C3.01341 12.8247 2.57813 11.3898 2.57813 9.92188C2.5802 7.95411 3.36281 6.06752 4.75423 4.6761C6.14565 3.28468 8.03224 2.50207 10 2.5ZM10 1.48438C8.33122 1.48438 6.69992 1.97923 5.31238 2.90635C3.92484 3.83347 2.84338 5.15123 2.20477 6.69298C1.56616 8.23474 1.39907 9.93124 1.72463 11.568C2.05019 13.2047 2.85379 14.7081 4.03379 15.8881C5.2138 17.0681 6.71721 17.8717 8.35393 18.1973C9.99064 18.5228 11.6871 18.3557 13.2289 17.7171C14.7706 17.0785 16.0884 15.997 17.0155 14.6095C17.9427 13.222 18.4375 11.5907 18.4375 9.92188C18.4375 7.68411 17.5486 5.538 15.9662 3.95566C14.3839 2.37332 12.2378 1.48438 10 1.48438Z" fill="black"/>
<path d="M10.1688 2.5C10.4953 2.5 11.0719 3.07188 11.5641 4.32656C12.1438 5.80469 12.4625 7.79219 12.4625 9.92188C12.4625 12.0516 12.15 14.0391 11.5641 15.5172C11.0719 16.7672 10.4969 17.3438 10.1688 17.3438C9.84063 17.3438 9.26563 16.7719 8.77344 15.5172C8.19531 14.0391 7.875 12.0516 7.875 9.92188C7.875 7.79219 8.1875 5.80469 8.77344 4.32656C9.26719 3.07031 9.84375 2.5 10.1688 2.5ZM10.1688 1.48438C8.34063 1.48438 6.85938 5.2625 6.85938 9.92188C6.85938 14.5813 8.34063 18.3594 10.1688 18.3594C11.9969 18.3594 13.4781 14.5813 13.4781 9.92188C13.4781 5.2625 11.9969 1.48438 10.1688 1.48438Z" fill="black"/>
<path d="M2.75977 12.5586H17.5785" stroke="black" stroke-miterlimit="10"/>
<path d="M2.75977 7.28516H17.5785" stroke="black" stroke-miterlimit="10"/>
</svg>
