<svg width="22" height="21" viewBox="0 0 22 21" fill="none" xmlns="http://www.w3.org/2000/svg">
<path d="M15.316 0.581226V0.581343L15.3257 0.58112C16.7446 0.548307 18.1185 1.08051 19.145 2.06065C20.1715 3.04078 20.7667 4.38857 20.7995 5.80751C20.8323 7.22644 20.3001 8.6003 19.32 9.62684C18.3398 10.6534 16.992 11.2485 15.5731 11.2813L15.4382 11.2845L15.3327 11.3687L4.73117 19.8356L4.73047 19.8361C4.6694 19.8851 4.59244 19.9099 4.51425 19.9058C4.4363 19.9017 4.36257 19.8691 4.30704 19.8143C4.30687 19.8141 4.3067 19.814 4.30653 19.8138L1.43385 16.9411C1.4337 16.941 1.43356 16.9408 1.43341 16.9407C1.37854 16.8851 1.34595 16.8114 1.34185 16.7334C1.33773 16.6552 1.36254 16.5782 1.41154 16.5172L1.41209 16.5165L9.87897 5.91491L9.95998 5.81347L9.96599 5.68379C10.0297 4.3082 10.6213 3.01015 11.6178 2.05973C12.6143 1.10932 13.9389 0.579753 15.316 0.581226ZM15.3139 10.5266L15.4434 10.6561L15.626 10.6427C16.4922 10.5791 17.3239 10.2774 18.0294 9.77084L18.412 9.49613L18.0789 9.16307L12.0702 3.15432L11.7348 2.81896L11.4608 3.20609C10.9572 3.91774 10.6608 4.75515 10.6047 5.62517L10.5931 5.80578L10.7211 5.93376L15.3139 10.5266ZM4.30263 18.9072L4.55574 19.1603L4.8353 18.9368L14.4881 11.2174L14.8372 10.9382L14.5211 10.6221L10.6255 6.72651L10.3094 6.41044L10.0303 6.75953L2.3109 16.4123L2.08734 16.6919L2.34045 16.945L4.30263 18.9072ZM18.5483 8.70813L18.8845 9.04436L19.1582 8.65553C19.7971 7.74791 20.0951 6.64391 19.9997 5.53809C19.9044 4.43226 19.4217 3.39559 18.6369 2.61075C17.8521 1.82591 16.8154 1.34328 15.7096 1.24791C14.6037 1.15255 13.4997 1.45057 12.5921 2.08945L12.2033 2.36315L12.5395 2.69938L18.5483 8.70813Z" stroke="black" stroke-width="0.8"/>
<path d="M9.05666 12.1902C9.19133 12.324 9.3735 12.3992 9.56338 12.3992C9.75327 12.3992 9.93543 12.324 10.0701 12.1902L11.5076 10.7527C11.6254 10.6152 11.6869 10.4383 11.6799 10.2574C11.6729 10.0765 11.5979 9.90493 11.4699 9.77692C11.3419 9.64892 11.1703 9.57393 10.9894 9.56694C10.8085 9.55996 10.6317 9.62148 10.4942 9.73924L9.05666 11.1767C8.9228 11.3114 8.84766 11.4936 8.84766 11.6835C8.84766 11.8733 8.9228 12.0555 9.05666 12.1902Z" fill="black"/>
</svg>
