<svg width="15" height="18" viewBox="0 0 15 18" fill="none" xmlns="http://www.w3.org/2000/svg">
<path fillRule="evenodd" clipRule="evenodd" d="M5.03125 7.72312C5.03125 6.11812 6.32183 4.82812 7.90168 4.82812C9.48153 4.82812 10.7721 6.12563 10.7721 7.73063C10.7721 9.33563 9.48153 10.6256 7.90168 10.6256C6.32183 10.6256 5.03125 9.32812 5.03125 7.72312ZM6.14382 7.73063C6.14382 8.71312 6.93003 9.50812 7.90168 9.50812C8.87332 9.50812 9.65954 8.71312 9.65954 7.73063C9.65954 6.74813 8.8659 5.95312 7.90168 5.95312C6.93745 5.95312 6.14382 6.74813 6.14382 7.73063Z" fill="#424242"/>
<path fillRule="evenodd" clipRule="evenodd" d="M4.83681 15.8175C2.64876 13.6875 0.230777 10.29 1.14308 6.2475C1.96638 2.58 5.1335 0.9375 7.90009 0.9375C7.90009 0.9375 7.90009 0.9375 7.9075 0.9375C10.6741 0.9375 13.8412 2.58 14.6645 6.255C15.5694 10.2975 13.1514 13.6875 10.9634 15.8175C10.103 16.65 8.99782 17.07 7.90009 17.07C6.80235 17.07 5.6972 16.65 4.83681 15.8175ZM2.2334 6.495C1.43235 10.0275 3.62782 13.0725 5.61561 15C6.89877 16.2525 8.90882 16.2525 10.192 15C12.1724 13.0725 14.3678 10.0275 13.5816 6.495C12.8399 3.225 10.0585 2.0625 7.90009 2.0625C5.7417 2.0625 2.9677 3.225 2.2334 6.495Z" fill="#424242"/>
</svg>
