<svg width="16" height="20" viewBox="0 0 16 20" fill="none" xmlns="http://www.w3.org/2000/svg">
<path d="M2.23138 19.5001C1.74356 19.5001 1.34766 19.1042 1.34766 18.6164V8.89544C1.34766 8.40763 1.74356 8.01172 2.23138 8.01172H14.6035C15.0913 8.01172 15.4872 8.40763 15.4872 8.89544V18.6164C15.4872 19.1042 15.0913 19.5001 14.6035 19.5001H2.23138Z" stroke="black" stroke-miterlimit="10" stroke-linecap="round"/>
<path d="M12.8353 8.01163C12.8353 7.54988 12.8353 5.38035 12.8353 4.9186C12.8353 2.47821 10.857 0.5 8.41665 0.5C5.97626 0.5 3.99805 2.47821 3.99805 4.9186C3.99805 5.38035 3.99805 7.54988 3.99805 8.01163" stroke="black" stroke-miterlimit="10" stroke-linecap="round"/>
<path d="M9.74296 12.8725C9.74296 12.1403 9.14954 11.5469 8.41738 11.5469C7.68522 11.5469 7.0918 12.1403 7.0918 12.8725C7.0918 13.2635 7.26456 13.6117 7.53366 13.8543V15.0818C7.53366 15.5696 7.92956 15.9655 8.41738 15.9655C8.90519 15.9655 9.3011 15.5696 9.3011 15.0818V13.8543C9.57019 13.6117 9.74296 13.2635 9.74296 12.8725Z" fill="black"/>
</svg>
