<svg width="13" height="19" viewBox="0 0 13 19" fill="none" xmlns="http://www.w3.org/2000/svg">
<path fill-rule="evenodd" clip-rule="evenodd" d="M10.1404 8.25446C10.1404 10.2269 8.56612 11.8259 6.62415 11.8259C4.68219 11.8259 3.10791 10.2269 3.10791 8.25446V3.79018C3.10791 1.81773 4.68219 0.21875 6.62415 0.21875C8.56612 0.21875 10.1404 1.81773 10.1404 3.79018V8.25446ZM6.62416 2.00446C5.65317 2.00446 4.86603 2.80396 4.86603 3.79018V8.25446C4.86603 9.24069 5.65317 10.0402 6.62416 10.0402C7.59514 10.0402 8.38228 9.24069 8.38228 8.25446V3.79018C8.38228 2.80396 7.59514 2.00446 6.62416 2.00446Z" fill="black"/>
<path d="M12.7776 8.25614C12.7776 7.76303 12.384 7.36328 11.8985 7.36328C11.413 7.36328 11.0194 7.76303 11.0194 8.25614C11.0194 10.7217 9.05159 12.7204 6.62413 12.7204C4.19667 12.7204 2.22883 10.7217 2.22883 8.25614C2.22883 7.76303 1.83526 7.36328 1.34976 7.36328C0.864272 7.36328 0.470703 7.76303 0.470703 8.25614C0.474285 11.3602 2.72028 13.9913 5.74507 14.4347V16.2919H3.89025C3.45816 16.2919 3.10789 16.6476 3.10789 17.0865V17.2829C3.10789 17.7218 3.45816 18.0776 3.89025 18.0776H9.35801C9.7901 18.0776 10.1404 17.7218 10.1404 17.2829V17.0865C10.1404 16.6476 9.7901 16.2919 9.35801 16.2919H7.50319V14.4347C10.528 13.9913 12.774 11.3602 12.7776 8.25614Z" fill="black"/>
</svg>
