<svg width="12" height="17" viewBox="0 0 12 17" fill="none" xmlns="http://www.w3.org/2000/svg">
<path d="M1.45703 4.29333C1.45703 2.74084 1.45703 1.96459 1.93933 1.4823C2.42162 1 3.19787 1 4.75036 1H6.39703H8.0437C9.59618 1 10.3724 1 10.8547 1.4823C11.337 1.96459 11.337 2.74084 11.337 4.29333V8.41V12.5267C11.337 14.0791 11.337 14.8554 10.8547 15.3377C10.3724 15.82 9.59618 15.82 8.0437 15.82H6.39703H4.75036C3.19787 15.82 2.42162 15.82 1.93933 15.3377C1.45703 14.8554 1.45703 14.0791 1.45703 12.5267V8.41V4.29333Z" stroke="black" strokeLinejoin="round"/>
<path d="M5.98438 13.3516H6.80771" stroke="black" strokeLinecap="round"/>
</svg>
