<svg width="124" height="110" viewBox="0 0 124 110" fill="none" xmlns="http://www.w3.org/2000/svg">
<path fillRule="evenodd" clipRule="evenodd" d="M0 18.3333C0 8.20814 8.30122 0 18.5412 0H105.067C115.307 0 123.608 8.20814 123.608 18.3333V73.3333C123.608 83.4588 115.307 91.6667 105.067 91.6667H67.9845V97.7778H80.3454C83.7588 97.7778 86.5258 100.514 86.5258 103.889C86.5258 107.264 83.7588 110 80.3454 110H43.2629C39.8496 110 37.0825 107.264 37.0825 103.889C37.0825 100.514 39.8496 97.7778 43.2629 97.7778H55.6237V91.6667H18.5412C8.30122 91.6667 0 83.4588 0 73.3333V18.3333ZM18.5412 12.2222C15.1279 12.2222 12.3608 14.9583 12.3608 18.3333V73.3333C12.3608 76.7085 15.1279 79.4444 18.5412 79.4444H105.067C108.48 79.4444 111.247 76.7085 111.247 73.3333V18.3333C111.247 14.9583 108.48 12.2222 105.067 12.2222H18.5412Z" fill="black"/>
</svg>
