<svg width="24" height="17" viewBox="0 0 24 17" fill="none" xmlns="http://www.w3.org/2000/svg">
<path d="M3.39415 9.21352H8.23566C8.70289 9.21352 9.08294 8.86442 9.08294 8.43541V3.98905C9.08294 3.56 8.7028 3.21094 8.23566 3.21094H3.39415C2.92692 3.21094 2.54688 3.56004 2.54688 3.98905V8.43541C2.54688 8.86446 2.92697 9.21352 3.39415 9.21352ZM3.2731 3.98905C3.2731 3.92775 3.3274 3.87788 3.39415 3.87788H8.23566C8.30236 3.87788 8.35671 3.92771 8.35671 3.98905V8.43541C8.35671 8.49671 8.30241 8.54658 8.23566 8.54658H3.39415C3.32745 8.54658 3.2731 8.49675 3.2731 8.43541V3.98905Z" fill="black"/>
<path d="M13.9245 12.4428C13.9245 12.2586 13.762 12.1094 13.5614 12.1094H2.90999C2.70943 12.1094 2.54688 12.2586 2.54688 12.4428C2.54688 12.6271 2.70948 12.7763 2.90999 12.7763H13.5614C13.7619 12.7763 13.9245 12.6271 13.9245 12.4428Z" fill="black"/>
<path d="M23.3443 5.93335C23.0906 5.6189 22.7006 5.43855 22.2745 5.43855H20.3386C20.138 5.43855 19.9755 5.5878 19.9755 5.77202C19.9755 5.95625 20.138 6.10549 20.3386 6.10549H22.2745C22.4683 6.10549 22.6455 6.1875 22.7608 6.33043C22.8761 6.47337 22.9099 6.65293 22.8535 6.82313L20.0539 15.2713C19.9758 15.5069 19.7431 15.6652 19.4748 15.6652H19.2492V9.10677C19.2492 8.92254 19.0867 8.7733 18.8861 8.7733C18.6855 8.7733 18.523 8.92254 18.523 9.10677V15.6652H1.94077C1.60708 15.6652 1.33555 15.4159 1.33555 15.1094V2.21494C1.33555 1.90845 1.60703 1.65913 1.94077 1.65913H17.9178C18.2515 1.65913 18.523 1.90845 18.523 2.21494V7.77293C18.523 7.95715 18.6856 8.1064 18.8862 8.1064C19.0868 8.1064 19.2493 7.95715 19.2493 7.77293V2.21494C19.2493 1.54074 18.652 0.992188 17.9179 0.992188H1.94077C1.20664 0.992188 0.609375 1.54074 0.609375 2.21494V15.1094C0.609375 15.7836 1.20664 16.3322 1.94077 16.3322H19.4748C20.0649 16.3322 20.5768 15.9839 20.7486 15.4655L23.5482 7.01734C23.6723 6.64291 23.598 6.24781 23.3443 5.93335Z" fill="black"/>
<path d="M6.78499 14.5498H16.9522C17.1528 14.5498 17.3153 14.4005 17.3153 14.2163C17.3153 14.0321 17.1528 13.8828 16.9522 13.8828H6.78499C6.58443 13.8828 6.42188 14.0321 6.42188 14.2163C6.42188 14.4005 6.58448 14.5498 6.78499 14.5498Z" fill="black"/>
<path d="M2.90999 13.8828C2.70943 13.8828 2.54688 14.0321 2.54688 14.2163C2.54688 14.4005 2.70948 14.5498 2.90999 14.5498H5.33076C5.53132 14.5498 5.69388 14.4005 5.69388 14.2163C5.69388 14.0321 5.53127 13.8828 5.33076 13.8828H2.90999Z" fill="black"/>
<path d="M2.90999 10.9951H7.75149C7.95205 10.9951 8.11461 10.8458 8.11461 10.6616C8.11461 10.4774 7.95201 10.3281 7.75149 10.3281H2.90999C2.70943 10.3281 2.54688 10.4774 2.54688 10.6616C2.54688 10.8458 2.70943 10.9951 2.90999 10.9951Z" fill="black"/>
<path d="M16.9501 6.77344H10.6561C10.4555 6.77344 10.293 6.92272 10.293 7.10691C10.293 7.29113 10.4556 7.44038 10.6561 7.44038H16.9501C17.1506 7.44038 17.3132 7.29113 17.3132 7.10691C17.3132 6.92272 17.1506 6.77344 16.9501 6.77344Z" fill="black"/>
<path d="M16.9501 4.99219H10.6561C10.4555 4.99219 10.293 5.14147 10.293 5.32566C10.293 5.50984 10.4556 5.65913 10.6561 5.65913H16.9501C17.1506 5.65913 17.3132 5.50984 17.3132 5.32566C17.3132 5.14147 17.1506 4.99219 16.9501 4.99219Z" fill="black"/>
<path d="M16.9501 3.21094H10.6561C10.4555 3.21094 10.293 3.36022 10.293 3.54441C10.293 3.72859 10.4556 3.87788 10.6561 3.87788H16.9501C17.1506 3.87788 17.3132 3.72859 17.3132 3.54441C17.3132 3.36022 17.1506 3.21094 16.9501 3.21094Z" fill="black"/>
<path d="M16.9501 8.54688H10.6561C10.4555 8.54688 10.293 8.69616 10.293 8.88035C10.293 9.06457 10.4556 9.21382 10.6561 9.21382H16.9501C17.1506 9.21382 17.3132 9.06457 17.3132 8.88035C17.3132 8.69616 17.1506 8.54688 16.9501 8.54688Z" fill="black"/>
<path d="M16.9482 12.1094H15.0115C14.811 12.1094 14.6484 12.2586 14.6484 12.4428C14.6484 12.6271 14.8109 12.7763 15.0115 12.7763H16.9482C17.1487 12.7763 17.3113 12.6271 17.3113 12.4428C17.3113 12.2586 17.1487 12.1094 16.9482 12.1094Z" fill="black"/>
<path d="M16.9533 10.3281H9.20686C9.00631 10.3281 8.84375 10.4774 8.84375 10.6616C8.84375 10.8458 9.00635 10.9951 9.20686 10.9951H16.9533C17.1539 10.9951 17.3164 10.8458 17.3164 10.6616C17.3164 10.4774 17.1539 10.3281 16.9533 10.3281Z" fill="black"/>
</svg>
