<svg width="20" height="22" viewBox="0 0 20 22" fill="none" xmlns="http://www.w3.org/2000/svg">
<path d="M6.52734 16.4766V17.5822C6.52734 18.0178 6.61314 18.4491 6.77982 18.8515C6.94651 19.2539 7.19082 19.6195 7.49882 19.9275C7.80687 20.2355 8.17249 20.4799 8.57482 20.6465C8.97727 20.8132 9.40857 20.899 9.84418 20.899C10.2798 20.899 10.7111 20.8132 11.1135 20.6465C11.5159 20.4799 11.8815 20.2355 12.1895 19.9275C12.4975 19.6195 12.7419 19.2539 12.9085 18.8515C13.0752 18.4491 13.161 18.0178 13.161 17.5822V16.4766" stroke="black" stroke-linecap="round" stroke-linejoin="round"/>
<path d="M18.6898 16.4785C18.6898 16.4785 16.4786 10.9505 16.4786 7.63366C16.4786 4.02053 13.458 1 9.84489 1C6.23175 1 3.21122 4.02053 3.21122 7.63366C3.21122 12.0561 1 16.4785 1 16.4785H18.6898Z" stroke="black" stroke-linecap="round" stroke-linejoin="round"/>
</svg>
