<svg width="19" height="20" viewBox="0 0 19 20" fill="none" xmlns="http://www.w3.org/2000/svg">
<path d="M15.3415 19.9938H3.65275C2.68398 19.9938 1.75489 19.609 1.06987 18.9239C0.384842 18.2389 0 17.3098 0 16.3411V6.11336C0 5.91961 0.0769684 5.73379 0.213973 5.59679C0.350978 5.45978 0.536796 5.38281 0.73055 5.38281H15.3415C16.3103 5.38281 17.2394 5.76765 17.9244 6.45268C18.6095 7.1377 18.9943 8.06679 18.9943 9.03556V16.3411C18.9943 17.3098 18.6095 18.2389 17.9244 18.9239C17.2394 19.609 16.3103 19.9938 15.3415 19.9938ZM1.4611 6.84391V16.3411C1.4611 16.9223 1.692 17.4798 2.10302 17.8908C2.51403 18.3018 3.07149 18.5327 3.65275 18.5327H15.3415C15.9228 18.5327 16.4803 18.3018 16.8913 17.8908C17.3023 17.4798 17.5332 16.9223 17.5332 16.3411V9.03556C17.5332 8.4543 17.3023 7.89684 16.8913 7.48583C16.4803 7.07482 15.9228 6.84391 15.3415 6.84391H1.4611Z" fill="black"/>
<path d="M16.8027 6.84316C16.609 6.84316 16.4232 6.76619 16.2861 6.62919C16.1491 6.49218 16.0722 6.30636 16.0722 6.11261V4.1036C16.0862 3.84768 16.0422 3.5919 15.9435 3.35535C15.8449 3.1188 15.6941 2.90759 15.5023 2.73747C15.3301 2.60842 15.1307 2.5203 14.9193 2.4798C14.7079 2.43929 14.4901 2.44746 14.2823 2.5037L2.03101 5.28709C1.86621 5.3242 1.71937 5.41728 1.61547 5.55048C1.51158 5.68368 1.45705 5.84876 1.46118 6.01764C1.46118 6.21139 1.38421 6.39721 1.24721 6.53422C1.1102 6.67122 0.924384 6.74819 0.730631 6.74819C0.536877 6.74819 0.351059 6.67122 0.214054 6.53422C0.0770492 6.39721 8.07844e-05 6.21139 8.07844e-05 6.01764C-0.00420569 5.51823 0.162206 5.03233 0.47176 4.64041C0.781314 4.24848 1.21544 3.97404 1.70226 3.86252L13.9609 1.07912C14.3825 0.972518 14.8229 0.963836 15.2484 1.05374C15.6739 1.14365 16.0731 1.32976 16.4155 1.59781C16.7776 1.90511 17.066 2.28982 17.2595 2.72354C17.453 3.15725 17.5465 3.62888 17.5333 4.1036V6.11261C17.5333 6.30636 17.4563 6.49218 17.3193 6.62919C17.1823 6.76619 16.9965 6.84316 16.8027 6.84316Z" fill="black"/>
<path d="M18.2626 15.61H13.1488C12.3737 15.61 11.6305 15.3021 11.0825 14.7541C10.5344 14.2061 10.2266 13.4628 10.2266 12.6878C10.2266 11.9128 10.5344 11.1695 11.0825 10.6215C11.6305 10.0735 12.3737 9.76563 13.1488 9.76562H18.2626C18.4564 9.76562 18.6422 9.84259 18.7792 9.9796C18.9162 10.1166 18.9932 10.3024 18.9932 10.4962V14.8795C18.9932 15.0732 18.9162 15.259 18.7792 15.396C18.6422 15.5331 18.4564 15.61 18.2626 15.61ZM13.1488 11.2267C12.7613 11.2267 12.3896 11.3807 12.1156 11.6547C11.8416 11.9287 11.6877 12.3003 11.6877 12.6878C11.6877 13.0753 11.8416 13.447 12.1156 13.721C12.3896 13.995 12.7613 14.1489 13.1488 14.1489H17.5321V11.2267H13.1488Z" fill="black"/>
</svg>
