<svg width="15" height="15" viewBox="0 0 15 15" fill="none" xmlns="http://www.w3.org/2000/svg">
<path d="M13.8563 6.25391H8.58196V0.896763C8.58196 0.403652 8.18839 0.00390625 7.7029 0.00390625C7.21741 0.00390625 6.82384 0.403652 6.82384 0.896763V6.25391H1.54947C1.06398 6.25391 0.67041 6.65365 0.67041 7.14676C0.67041 7.63988 1.06398 8.03962 1.54947 8.03962H6.82384V13.3968C6.82384 13.8899 7.21741 14.2896 7.7029 14.2896C8.18839 14.2896 8.58196 13.8899 8.58196 13.3968V8.03962H13.8563C14.3418 8.03962 14.7354 7.63988 14.7354 7.14676C14.7354 6.65365 14.3418 6.25391 13.8563 6.25391Z" fill="black"/>
</svg>
