<svg width="20" height="20" viewBox="0 0 20 20" fill="none" xmlns="http://www.w3.org/2000/svg">
<path d="M9.95532 0C4.60558 0 0.253418 4.35216 0.253418 9.7019C0.253418 15.0516 4.60558 19.4038 9.95532 19.4038C15.3051 19.4038 19.6572 15.0516 19.6572 9.7019C19.6572 4.35216 15.3039 0 9.95532 0ZM1.42335 10.2726H4.77565C4.82587 11.4414 5.01648 12.5908 5.36119 13.6968H2.39012C1.84111 12.6627 1.50439 11.5019 1.42335 10.2726ZM4.77565 9.1312H1.42335C1.50439 7.90192 1.84111 6.74111 2.39012 5.707H5.35776C5.0142 6.81302 4.82473 7.96241 4.77565 9.1312ZM6.5665 5.707H13.2962C13.6729 6.80845 13.892 7.95784 13.9457 9.1312H5.91705C5.96955 7.95784 6.18984 6.80845 6.5665 5.707ZM5.91705 10.2726H13.9468C13.8909 11.446 13.6717 12.5954 13.2939 13.6968H6.56993C6.19212 12.5954 5.97183 11.446 5.91705 10.2726ZM15.0882 10.2726H18.4873C18.4063 11.5019 18.0695 12.6627 17.5205 13.6968H14.5027C14.8474 12.5908 15.038 11.4414 15.0882 10.2726ZM15.0882 9.1312C15.0391 7.96241 14.8496 6.81302 14.5061 5.707H17.5205C18.0684 6.74111 18.4051 7.90192 18.4873 9.1312H15.0882ZM16.7877 4.5656H14.1009C13.6535 3.47556 13.0554 2.44488 12.3317 1.48382C14.1328 2.00544 15.6852 3.10461 16.7877 4.5656ZM10.5922 1.17336C11.5327 2.1972 12.2861 3.34202 12.8431 4.5656H7.01964C7.5755 3.34316 8.32769 2.19948 9.2682 1.17564C9.49534 1.15852 9.72248 1.1414 9.95532 1.1414C10.1699 1.1414 10.3811 1.15852 10.5922 1.17336ZM7.52071 1.49866C6.80277 2.45515 6.20696 3.48127 5.76296 4.5656H3.12176C4.21179 3.11945 5.74355 2.02713 7.52071 1.49866ZM3.12176 14.8382H5.76638C6.21267 15.9237 6.81076 16.9509 7.53213 17.9074C5.7504 17.3812 4.21408 16.2878 3.12176 14.8382ZM9.2819 18.2282C8.3391 17.2043 7.58349 16.0606 7.02421 14.8382H12.8385C12.2792 16.0618 11.5236 17.2066 10.5797 18.2304C10.3731 18.2453 10.1653 18.2624 9.95532 18.2624C9.72704 18.2624 9.50447 18.2453 9.2819 18.2282ZM12.3192 17.9234C13.0451 16.9624 13.6478 15.9294 14.0963 14.8382H16.7877C15.6829 16.3026 14.126 17.4029 12.3192 17.9234Z" fill="black"/>
</svg>
