<svg width="22" height="24" viewBox="0 0 22 24" fill="none" xmlns="http://www.w3.org/2000/svg">
<rect x="3.55469" y="9.52734" width="16.9245" height="7.08805" fill="white"/>
<path d="M10.5088 10.9932C10.3691 10.8832 10.2012 10.8281 10.0049 10.8281H9.41602V12.104H10.0049C10.2011 12.104 10.369 12.0491 10.5088 11.9388C10.6485 11.829 10.7186 11.6699 10.7186 11.4616C10.7186 11.2595 10.6485 11.1032 10.5088 10.9932Z" fill="#EC4E54"/>
<path d="M15.7239 10.8164C15.2778 10.8164 14.8897 10.9815 14.5597 11.3115C14.2295 11.6415 14.0645 12.0624 14.0645 12.5739C14.0645 13.0914 14.2295 13.5152 14.5597 13.8453C14.8897 14.1754 15.2778 14.3404 15.7239 14.3404C16.1701 14.3404 16.5595 14.1753 16.8928 13.8453C17.2257 13.5152 17.3923 13.0914 17.3923 12.5739C17.3923 12.0624 17.2257 11.6415 16.8928 11.3115C16.5595 10.9815 16.1701 10.8164 15.7239 10.8164Z" fill="#EC4E54"/>
<path d="M19.8307 5.80883L11.9979 1.28655C11.3181 0.894067 10.2057 0.894067 9.52586 1.28655L1.69301 5.80883C1.01325 6.20132 0.457031 7.16471 0.457031 7.94968V16.9942C0.457031 17.7792 1.01325 18.7426 1.69301 19.135L9.52586 23.6573C10.2057 24.0498 11.3181 24.0498 11.9979 23.6573L19.8307 19.135C20.5104 18.7426 21.0666 17.7792 21.0666 16.9942V7.94963C21.0666 7.16467 20.5104 6.20127 19.8307 5.80883ZM6.91814 12.714C6.56138 13.0323 6.12703 13.1913 5.61541 13.1913H4.85722V15.4308H3.52776V9.73869H5.61546C6.12707 9.73869 6.56137 9.89628 6.91819 10.2115C7.275 10.5269 7.45339 10.9431 7.45339 11.4605C7.45339 11.978 7.27496 12.396 6.91814 12.714ZM11.4413 15.4308L9.9068 13.1913H9.41616V15.4308H8.0867V9.73869H10.2101C10.7156 9.73869 11.1483 9.89628 11.5083 10.2115C11.8681 10.5269 12.048 10.9431 12.048 11.4605C12.048 11.7817 11.9647 12.0703 11.7982 12.326C11.6316 12.5818 11.4234 12.7691 11.1736 12.8881L12.9848 15.4308H11.4413ZM17.8784 14.7349C17.2687 15.2879 16.5506 15.5647 15.7238 15.5647C14.903 15.5647 14.1878 15.2879 13.5782 14.7349C12.9683 14.1817 12.6636 13.462 12.6636 12.5758C12.6636 11.7015 12.9683 10.9877 13.5782 10.4345C14.1877 9.88145 14.903 9.60487 15.7238 9.60487C16.2532 9.60487 16.7498 9.72378 17.2138 9.96173C17.6777 10.1996 18.0568 10.5491 18.3513 11.01C18.6458 11.471 18.7929 11.993 18.7929 12.5757C18.7929 13.462 18.488 14.1817 17.8784 14.7349Z" fill="#EC4E54"/>
<path d="M5.92355 10.9932C5.7838 10.8832 5.61566 10.8281 5.41939 10.8281H4.85742V12.104H5.41939C5.61566 12.104 5.7838 12.0491 5.92355 11.9388C6.06313 11.829 6.1332 11.6699 6.1332 11.4616C6.1332 11.2595 6.06313 11.1032 5.92355 10.9932Z" fill="#EC4E54"/>
</svg>
