<svg width="19" height="19" viewBox="0 0 19 19" fill="none" xmlns="http://www.w3.org/2000/svg">
<path fillRule="evenodd" clipRule="evenodd" d="M12.2665 17.6773L9.71064 16.1643C9.44565 16.0104 8.93277 16.0104 8.67633 16.1643L6.11193 17.6773C4.59893 18.5748 3.70994 18.2158 3.30818 17.9252C2.91497 17.6345 2.29952 16.8909 2.70127 15.1813L3.30818 12.557C3.37656 12.2835 3.2398 11.8133 3.03464 11.6082L0.914738 9.48829C-0.145216 8.42834 -0.0597353 7.52225 0.0855808 7.07775C0.230897 6.63326 0.692489 5.84684 2.16275 5.59895L4.88956 5.1459C5.146 5.10316 5.51357 4.82963 5.62469 4.59883L7.13769 1.58138C7.82153 0.205152 8.71907 0 9.18921 0C9.65935 0 10.5569 0.205152 11.2407 1.58138L12.7452 4.59028C12.8649 4.82108 13.2324 5.09461 13.4889 5.13735L16.2157 5.5904C17.6945 5.83829 18.1561 6.62471 18.2928 7.0692C18.4296 7.5137 18.5151 8.41979 17.4637 9.47974L15.3438 11.6082C15.1386 11.8133 15.0104 12.2749 15.0702 12.557L15.6771 15.1813C16.0704 16.8909 15.4634 17.6345 15.0702 17.9252C14.8565 18.079 14.5146 18.25 14.0274 18.25C13.5743 18.25 12.9931 18.1047 12.2665 17.6773ZM10.3603 15.0616L12.9161 16.5746C13.6598 17.0191 14.13 17.0191 14.3095 16.8909C14.489 16.7626 14.6172 16.3096 14.4291 15.4719L13.8222 12.8477C13.6598 12.1382 13.9248 11.2235 14.4377 10.7021L16.5576 8.5822C16.9764 8.16335 17.1645 7.75305 17.079 7.47096C16.985 7.18888 16.5918 6.95808 16.0105 6.86405L13.2837 6.41101C12.6255 6.29988 11.9075 5.76991 11.6083 5.17155L10.1038 2.16265C9.83031 1.61557 9.48839 1.29075 9.18921 1.29075C8.89003 1.29075 8.54811 1.61557 8.28312 2.16265L6.77012 5.17155C6.47094 5.76991 5.75291 6.29988 5.09471 6.41101L2.37645 6.86405C1.79518 6.95808 1.40197 7.18888 1.30795 7.47096C1.21392 7.75305 1.41052 8.1719 1.82937 8.5822L3.94928 10.7021C4.46216 11.215 4.72715 12.1382 4.56474 12.8477L3.95783 15.4719C3.76122 16.3181 3.89799 16.7626 4.0775 16.8909C4.25701 17.0191 4.7186 17.0105 5.47083 16.5746L8.02668 15.0616C8.35151 14.865 8.77036 14.7624 9.18921 14.7624C9.60806 14.7624 10.0269 14.865 10.3603 15.0616Z" fill="black"/>
</svg>
