<svg width="12" height="18" viewBox="0 0 12 18" fill="none" xmlns="http://www.w3.org/2000/svg">
<path d="M5.78547 11.468C4.27199 11.468 3.03906 10.2937 3.03906 8.85234V2.61563C3.03906 1.17422 4.27199 0 5.78547 0C7.29895 0 8.53188 1.17422 8.53188 2.61563V8.85234C8.53188 10.2937 7.29895 11.468 5.78547 11.468ZM5.78547 0.741797C4.7002 0.741797 3.81795 1.58203 3.81795 2.61563V8.85234C3.81795 9.88594 4.7002 10.7262 5.78547 10.7262C6.87074 10.7262 7.75299 9.88594 7.75299 8.85234V2.61563C7.75299 1.58203 6.87074 0.741797 5.78547 0.741797Z" fill="#292D32"/>
<path d="M5.78631 13.7125C2.87379 13.7125 0.503906 11.4555 0.503906 8.68164C0.503906 8.47773 0.677402 8.3125 0.891504 8.3125C1.10561 8.3125 1.2791 8.47773 1.2791 8.68164C1.2791 11.0477 3.2983 12.9707 5.78262 12.9707C8.26693 12.9707 10.2861 11.0477 10.2861 8.68164C10.2861 8.47773 10.4596 8.3125 10.6737 8.3125C10.8878 8.3125 11.0613 8.47773 11.0613 8.68164C11.0687 11.4555 8.69883 13.7125 5.78631 13.7125Z" fill="#292D32"/>
<path d="M5.78604 17.9961C5.57193 17.9961 5.39844 17.8309 5.39844 17.627V13.3379C5.39844 13.134 5.57193 12.9688 5.78604 12.9688C6.00014 12.9688 6.17363 13.134 6.17363 13.3379V17.627C6.17363 17.8309 6.00014 17.9961 5.78604 17.9961Z" fill="#292D32"/>
<path d="M8.40326 18.0039H3.16885C2.95475 18.0039 2.78125 17.8387 2.78125 17.6348C2.78125 17.4309 2.95475 17.2656 3.16885 17.2656H8.39957C8.61367 17.2656 8.78717 17.4309 8.78717 17.6348C8.79086 17.8387 8.61736 18.0039 8.40326 18.0039Z" fill="#292D32"/>
</svg>
