<svg width="20" height="21" viewBox="0 0 20 21" fill="none" xmlns="http://www.w3.org/2000/svg">
<path d="M19.6819 19.0154L15.2191 14.5526H15.171C16.5466 12.9307 17.2417 10.8397 17.111 8.71707C16.9803 6.59442 16.0339 4.60453 14.4697 3.16365C12.9056 1.72277 10.8448 0.942515 8.71862 0.986108C6.5924 1.0297 4.56539 1.89376 3.06161 3.39754C1.55782 4.90133 0.693763 6.92834 0.650171 9.05456C0.606578 11.1808 1.38683 13.2415 2.82771 14.8057C4.26859 16.3698 6.25849 17.3162 8.38113 17.4469C10.5038 17.5776 12.5948 16.8825 14.2167 15.5069C14.2167 15.5069 14.2167 15.5413 14.2167 15.555L18.6795 20.0178C18.7433 20.0822 18.8192 20.1333 18.9029 20.1681C18.9866 20.203 19.0763 20.2209 19.167 20.2209C19.2576 20.2209 19.3473 20.203 19.431 20.1681C19.5147 20.1333 19.5906 20.0822 19.6544 20.0178C19.7248 19.9555 19.7817 19.8794 19.8214 19.7942C19.8612 19.709 19.8831 19.6166 19.8856 19.5226C19.8882 19.4286 19.8715 19.3351 19.8364 19.2479C19.8014 19.1606 19.7488 19.0815 19.6819 19.0154ZM8.89559 16.07C7.53764 16.07 6.2102 15.6673 5.08111 14.9128C3.95202 14.1584 3.072 13.0861 2.55233 11.8315C2.03267 10.5769 1.8967 9.19645 2.16163 7.86459C2.42655 6.53274 3.08046 5.30936 4.04067 4.34915C5.00088 3.38893 6.22427 2.73502 7.55612 2.4701C8.88797 2.20518 10.2685 2.34114 11.5231 2.86081C12.7776 3.38047 13.8499 4.26049 14.6044 5.38958C15.3588 6.51867 15.7615 7.84612 15.7615 9.20406C15.7615 10.1057 15.5839 10.9985 15.2388 11.8315C14.8938 12.6645 14.3881 13.4214 13.7505 14.059C13.113 14.6965 12.3561 15.2023 11.5231 15.5473C10.69 15.8924 9.79723 16.07 8.89559 16.07Z" fill="black"/>
</svg>
