<svg width="111" height="110" viewBox="0 0 111 110" fill="none" xmlns="http://www.w3.org/2000/svg">
<path d="M96.1967 57.1C94.9532 45.3907 88.6323 34.7695 78.8918 28.0341C77.1303 26.7906 76.7158 24.4073 77.9074 22.6457C79.1509 20.8842 81.586 20.4697 83.2957 21.6613C94.9014 29.692 102.362 42.3339 103.865 56.271C104.072 58.3952 102.569 60.3122 100.393 60.5713C100.342 60.5713 100.186 60.5713 100.082 60.5713C98.1137 60.5713 96.4557 59.0688 96.1967 57.1Z" fill="black"/>
<path d="M10.9391 60.827C8.81484 60.5679 7.26051 58.6509 7.46776 56.5267C8.86665 42.5896 16.2756 29.9995 27.7258 21.8652C29.4874 20.6217 31.9225 21.0362 33.166 22.7978C34.4094 24.5594 33.9949 26.9945 32.2334 28.2379C22.5965 35.0252 16.3792 45.6464 15.1876 57.3557C15.0321 59.3245 13.3224 60.827 11.3536 60.827C11.1981 60.827 11.0945 60.827 10.9391 60.827Z" fill="black"/>
<path d="M33.9339 104.819C32.0169 103.835 31.2397 101.503 32.2241 99.5862C33.2085 97.6692 35.54 96.8921 37.457 97.8765C48.6482 103.524 62.119 103.627 73.4138 98.1873C75.3308 97.2547 77.6623 98.0837 78.5949 100.001C79.5275 101.918 78.6985 104.249 76.7815 105.182C70.1497 108.394 63.1034 110 55.7463 110C48.0783 110 40.7729 108.239 33.9339 104.819Z" fill="black"/>
<path fill-rule="evenodd" clip-rule="evenodd" d="M37.4414 18.2892C37.4414 8.18612 45.6275 0 55.7307 0C65.8338 0 74.0199 8.18612 74.0199 18.2892C74.0199 28.3924 65.782 36.5785 55.7307 36.5785C45.6275 36.5785 37.4414 28.3924 37.4414 18.2892ZM45.213 18.3411C45.213 24.1439 49.9278 28.8587 55.7307 28.8587C61.5335 28.8587 66.2483 24.1439 66.2483 18.3411C66.2483 12.5382 61.4817 7.82344 55.7307 7.82344C49.9278 7.82344 45.213 12.5382 45.213 18.3411Z" fill="black"/>
<path fill-rule="evenodd" clip-rule="evenodd" d="M0 81.6642C0 71.6129 8.18612 63.375 18.2892 63.375C28.3924 63.375 36.5785 71.5611 36.5785 81.6642C36.5785 91.7156 28.3924 99.9535 18.2892 99.9535C8.18612 99.9535 0 91.7674 0 81.6642ZM7.77163 81.6642C7.77163 87.4671 12.4864 92.1819 18.2892 92.1819C24.0921 92.1819 28.8069 87.4671 28.8069 81.6642C28.8069 75.8614 24.0921 71.1466 18.2892 71.1466C12.4864 71.1466 7.77163 75.8614 7.77163 81.6642Z" fill="black"/>
<path fill-rule="evenodd" clip-rule="evenodd" d="M74.2969 81.6642C74.2969 71.6129 82.483 63.375 92.5861 63.375C102.689 63.375 110.875 71.5611 110.875 81.6642C110.824 91.7156 102.637 99.9535 92.5861 99.9535C82.483 99.9535 74.2969 91.7674 74.2969 81.6642ZM82.0685 81.6642C82.0685 87.4671 86.7833 92.1819 92.5861 92.1819C98.3889 92.1819 103.104 87.4671 103.104 81.6642C103.052 75.8614 98.3889 71.1466 92.5861 71.1466C86.7833 71.1466 82.0685 75.8614 82.0685 81.6642Z" fill="black"/>
</svg>
