<svg width="17" height="17" viewBox="0 0 17 17" fill="none" xmlns="http://www.w3.org/2000/svg">
<path d="M14.1955 8.42269C14.012 6.69496 13.0793 5.12777 11.6421 4.13395C11.3822 3.95047 11.321 3.59881 11.4969 3.33889C11.6803 3.07896 12.0396 3.01781 12.2919 3.19364C14.0044 4.37858 15.1052 6.24392 15.3269 8.30037C15.3575 8.61381 15.1358 8.89667 14.8147 8.93489C14.8071 8.93489 14.7841 8.93489 14.7688 8.93489C14.4783 8.93489 14.2337 8.71319 14.1955 8.42269Z" fill="#505050"/>
<path d="M1.61211 8.97185C1.29867 8.93362 1.06932 8.65077 1.0999 8.33733C1.30631 6.28087 2.39952 4.42318 4.08903 3.22295C4.34895 3.03947 4.70826 3.10063 4.89173 3.36056C5.07521 3.62048 5.01405 3.97979 4.75412 4.16326C3.33219 5.16473 2.41481 6.73192 2.23898 8.45965C2.21605 8.75015 1.96377 8.97185 1.67326 8.97185C1.65033 8.97185 1.63504 8.97185 1.61211 8.97185Z" fill="#505050"/>
<path d="M5.00673 15.4624C4.72387 15.3172 4.6092 14.9732 4.75445 14.6903C4.8997 14.4075 5.24372 14.2928 5.52658 14.438C7.17785 15.2713 9.16551 15.2866 10.8321 14.4839C11.1149 14.3463 11.4589 14.4686 11.5966 14.7515C11.7342 15.0343 11.6118 15.3784 11.329 15.516C10.3505 15.9899 9.31076 16.2269 8.22519 16.2269C7.09376 16.2269 6.01584 15.967 5.00673 15.4624Z" fill="#505050"/>
<path fill-rule="evenodd" clip-rule="evenodd" d="M5.52588 2.69862C5.52588 1.20788 6.73376 0 8.2245 0C9.71524 0 10.9231 1.20788 10.9231 2.69862C10.9231 4.18936 9.70759 5.39724 8.2245 5.39724C6.73376 5.39724 5.52588 4.18936 5.52588 2.69862ZM6.6726 2.70626C6.6726 3.56248 7.36828 4.25816 8.2245 4.25816C9.08072 4.25816 9.7764 3.56248 9.7764 2.70626C9.7764 1.85004 9.07307 1.15437 8.2245 1.15437C7.36828 1.15437 6.6726 1.85004 6.6726 2.70626Z" fill="#505050"/>
<path fill-rule="evenodd" clip-rule="evenodd" d="M0 12.0502C0 10.5671 1.20788 9.35156 2.69862 9.35156C4.18936 9.35156 5.39724 10.5594 5.39724 12.0502C5.39724 13.5333 4.18936 14.7488 2.69862 14.7488C1.20788 14.7488 0 13.5409 0 12.0502ZM1.14672 12.0502C1.14672 12.9064 1.8424 13.6021 2.69862 13.6021C3.55484 13.6021 4.25052 12.9064 4.25052 12.0502C4.25052 11.194 3.55484 10.4983 2.69862 10.4983C1.8424 10.4983 1.14672 11.194 1.14672 12.0502Z" fill="#505050"/>
<path fill-rule="evenodd" clip-rule="evenodd" d="M10.9624 12.0502C10.9624 10.5671 12.1703 9.35156 13.661 9.35156C15.1518 9.35156 16.3596 10.5594 16.3596 12.0502C16.352 13.5333 15.1441 14.7488 13.661 14.7488C12.1703 14.7488 10.9624 13.5409 10.9624 12.0502ZM12.1091 12.0502C12.1091 12.9064 12.8048 13.6021 13.661 13.6021C14.5172 13.6021 15.2129 12.9064 15.2129 12.0502C15.2053 11.194 14.5172 10.4983 13.661 10.4983C12.8048 10.4983 12.1091 11.194 12.1091 12.0502Z" fill="#505050"/>
</svg>