<svg width="18" height="18" viewBox="0 0 18 18" fill="none" xmlns="http://www.w3.org/2000/svg">
<path fill-rule="evenodd" clip-rule="evenodd" d="M9.70843 0.0208903C11.705 0.0208903 13.7015 0.0119518 15.6981 0.0238696C17.1171 0.0324106 17.892 0.801899 17.8956 2.22825C17.9064 6.29994 17.9044 10.3718 17.8964 14.4435C17.8936 15.82 17.3217 16.4914 15.9444 16.6888C15.5975 16.7385 15.4673 16.901 15.2851 17.1564C14.5024 18.2524 13.2824 18.2647 12.5275 17.1578C12.2865 16.8046 12.0626 16.6906 11.6712 16.6988C10.6898 16.7194 9.70745 16.7073 8.72547 16.7045C7.96169 16.7023 7.27136 16.6058 6.72145 17.4839C6.21966 18.2852 4.94447 18.1047 4.35882 17.2784C4.0927 16.9025 3.86724 16.7075 3.37114 16.6845C1.86263 16.6145 0.871423 14.9218 1.42467 13.4683C1.48928 13.2984 1.58787 13.1745 1.76208 13.161C1.99127 13.1429 2.11598 13.2905 2.16822 13.5032C2.18393 13.5664 2.17765 13.6347 2.18668 13.7001C2.49679 15.911 2.49699 15.9106 4.74081 15.9106C8.30853 15.9106 11.8762 15.9128 15.444 15.9102C16.7545 15.9092 17.1123 15.5402 17.1129 14.1938C17.1151 10.2874 17.1159 6.38118 17.1125 2.47495C17.1114 1.19975 16.7376 0.817987 15.4882 0.816796C11.5932 0.81322 7.69813 0.812624 3.80302 0.816994C2.55257 0.818385 2.202 1.18903 2.18766 2.48369C2.1855 2.68212 2.1859 2.88075 2.18236 3.07938C2.17785 3.3364 2.08652 3.55191 1.80607 3.56244C1.52129 3.57297 1.43331 3.35984 1.40542 3.10401C1.19057 1.12268 1.94453 -0.0766366 3.91496 0.0038081C5.84357 0.0822665 7.77708 0.0206916 9.70843 0.0208903Z" fill="black"/>
<path fill-rule="evenodd" clip-rule="evenodd" d="M14.1371 8.38906C14.1202 10.5124 12.5096 12.2687 10.3732 12.4933C8.34205 12.7071 6.44585 11.2064 6.02301 9.05089C5.63807 7.08824 6.88086 5.01416 8.82773 4.42701C9.27041 4.29354 9.74863 4.29791 9.67655 3.62316C9.6575 3.44658 9.84035 3.33575 10.0059 3.32204C10.2208 3.30417 10.4348 3.42573 10.4105 3.64442C10.3309 4.3563 10.8651 4.2983 11.2819 4.4284C12.9568 4.95139 14.1512 6.61849 14.1371 8.38906Z" fill="black"/>
<path fill-rule="evenodd" clip-rule="evenodd" d="M2.40151 6.77237C0.663213 6.77337 0.459551 6.5364 0.610972 4.87289C0.661249 4.31971 0.908315 4.01362 1.46215 3.99495C1.82195 3.98283 2.18233 3.99097 2.54232 3.99078C4.05221 3.99018 4.61587 4.74974 4.11349 6.18304C3.78728 7.11441 2.9469 6.65339 2.40151 6.77237Z" fill="black"/>
<path fill-rule="evenodd" clip-rule="evenodd" d="M2.34705 12.7338C0.693599 12.7351 0.616022 12.6736 0.615237 11.3569C0.614648 10.062 0.719719 9.95752 2.02653 9.95354C2.19013 9.95315 2.35432 9.96268 2.51733 9.95156C4.30669 9.82861 4.19592 10.3172 4.13013 12.0256C4.11245 12.4835 3.78211 12.7173 3.32883 12.7312C3.00184 12.7409 2.67444 12.7332 2.34705 12.7338Z" fill="black"/>
<path fill-rule="evenodd" clip-rule="evenodd" d="M2.18852 8.37099C2.18833 8.50288 2.19324 8.63497 2.18715 8.76646C2.17242 9.08367 2.25667 9.52066 1.78395 9.50834C1.31967 9.49642 1.41355 9.05964 1.40314 8.74402C1.3943 8.48064 1.3943 8.21626 1.40294 7.95288C1.41355 7.63626 1.32988 7.19869 1.80437 7.2112C2.26787 7.22332 2.17261 7.6597 2.18774 7.97532C2.19402 8.10701 2.18872 8.2391 2.18852 8.37099Z" fill="black"/>
<path fill-rule="evenodd" clip-rule="evenodd" d="M6.311 16.7656C5.88286 17.3091 5.47141 17.2396 4.88281 16.7656C5.44666 16.7656 5.85458 16.7656 6.311 16.7656Z" fill="#F5F5F6"/>
<path fill-rule="evenodd" clip-rule="evenodd" d="M13.1406 16.7648C13.7092 16.6923 14.1132 16.6586 14.5604 16.7779C14.1254 17.3045 13.7149 17.2536 13.1406 16.7648Z" fill="#F6F6F7"/>
<path fill-rule="evenodd" clip-rule="evenodd" d="M10.0683 5.19173C11.944 5.16809 13.298 6.44349 13.351 8.28339C13.4031 10.0879 11.9226 11.6557 10.1158 11.7095C8.33801 11.7626 6.77804 10.249 6.73542 8.43037C6.69124 6.53486 8.04695 5.21715 10.0683 5.19173Z" fill="#FCFDFD"/>
<path fill-rule="evenodd" clip-rule="evenodd" d="M2.38235 5.9903C1.99309 5.87608 1.37346 6.29241 1.38093 5.37713C1.38859 4.46661 2.00075 4.81064 2.38883 4.80627C2.78064 4.8017 3.38809 4.47933 3.38554 5.38706C3.38279 6.30691 2.75432 5.86198 2.38235 5.9903Z" fill="#FDFDFD"/>
<path fill-rule="evenodd" clip-rule="evenodd" d="M2.45169 11.9659C2.0587 11.8002 1.35835 12.317 1.37937 11.313C1.39685 10.4783 1.94499 10.7467 2.31343 10.7667C2.72546 10.7888 3.39615 10.3844 3.38457 11.3728C3.37475 12.2209 2.80284 11.8302 2.45169 11.9659Z" fill="#FDFDFD"/>
<path fill-rule="evenodd" clip-rule="evenodd" d="M8.62974 10.1374C8.30136 10.0137 8.14857 9.79083 8.41606 9.47918C8.8004 9.03128 8.91372 8.74327 8.14366 8.75042C7.88363 8.7528 7.68979 8.61237 7.71748 8.32714C7.74478 8.04389 7.97044 7.96683 8.21888 7.96861C8.80296 7.97279 8.85716 7.7529 8.48519 7.34273C8.32218 7.16298 8.18765 6.9707 8.3919 6.73791C8.58849 6.51386 8.79726 6.56749 8.98698 6.74903C9.40432 7.14907 9.65904 7.16655 9.65531 6.48247C9.65374 6.22644 9.75646 6.01311 10.0422 6.01172C10.3297 6.01053 10.4303 6.22565 10.4283 6.48128C10.4234 7.15702 10.6705 7.15841 11.0939 6.75162C11.2815 6.57146 11.4896 6.51068 11.69 6.73334C11.8506 6.91191 11.8166 7.1016 11.6644 7.26169C11.2192 7.72946 11.2394 7.98848 11.9543 7.97715C12.1719 7.97358 12.3448 8.09355 12.3671 8.31641C12.3952 8.59966 12.2108 8.75101 11.9498 8.74903C11.2098 8.74386 11.2459 9.02075 11.6695 9.47164C11.8223 9.63412 11.8457 9.82321 11.6835 9.9992C11.4777 10.2223 11.2718 10.1488 11.0872 9.97039C10.6375 9.53639 10.424 9.62041 10.4273 10.2578C10.4287 10.5144 10.317 10.7117 10.0306 10.72C9.84542 10.7252 9.68025 10.5927 9.683 10.4336C9.69989 9.53142 9.39077 9.53182 8.8387 10.0908C8.8006 10.1295 8.71517 10.1202 8.62974 10.1374Z" fill="black"/>
<path fill-rule="evenodd" clip-rule="evenodd" d="M10.0853 7.96909C10.2858 8.02968 10.4454 8.14488 10.4232 8.37728C10.3971 8.64801 10.218 8.79757 9.95602 8.73858C9.7557 8.69349 9.61351 8.52188 9.66182 8.29703C9.70582 8.09165 9.85233 7.96115 10.0853 7.96909Z" fill="#FCFCFC"/>
</svg>
