<svg width="21" height="20" viewBox="0 0 21 20" fill="none" xmlns="http://www.w3.org/2000/svg">
<path d="M11.155 13.3417L11.1549 13.3417C10.5794 13.3625 9.98844 13.3858 9.41863 13.4243C9.15094 13.7132 8.88301 14.06 8.62044 14.3998L8.59053 14.4385C8.29958 14.8181 7.99385 15.2126 7.68212 15.5413C7.89802 16.1086 8.16788 16.7607 8.43232 17.3997L8.45487 17.4542L11.155 13.3417ZM11.155 13.3417C11.7202 13.321 12.3046 13.2978 12.8712 13.2594C13.1517 13.6207 13.4349 14.0366 13.7085 14.4413L13.7085 14.4413M11.155 13.3417L13.7085 14.4413M13.7085 14.4413C13.9874 14.8536 14.2778 15.28 14.5687 15.6547C14.4142 16.1143 14.2561 16.6171 14.099 17.1163C14.0669 17.2183 14.0349 17.3202 14.0029 17.4216L13.9688 17.5297C13.8263 17.9814 13.6802 18.4446 13.5407 18.876M13.7085 14.4413L13.5407 18.876M8.25374 10.9734L8.25377 10.9735C8.58659 11.6313 8.93045 12.3073 9.41841 12.925C9.95421 12.8911 10.506 12.8684 11.0424 12.8463C11.0732 12.8451 11.104 12.8438 11.1347 12.8425L11.1349 12.8425C11.693 12.8219 12.2638 12.7988 12.8165 12.7632C12.9779 12.3756 13.1373 11.8767 13.2953 11.3821C13.3061 11.3481 13.317 11.3142 13.3278 11.2803L8.25374 10.9734ZM8.25374 10.9734C8.09208 10.6551 7.92465 10.3256 7.74441 10.0101C8.56772 8.95625 9.34269 8.12922 10.5227 7.34138C11.9337 8.21506 12.9979 8.99195 13.8488 9.76944C13.6744 10.1912 13.5051 10.7231 13.3417 11.2367L13.3278 11.2803L8.25374 10.9734ZM17.8514 7.80064L17.8514 7.80061C18.0798 7.50134 18.307 7.20112 18.5346 6.90042C18.6609 6.73352 18.7874 6.56647 18.9142 6.39936C18.6383 5.69399 18.2776 5.04756 17.835 4.46495C17.0906 3.48595 16.1671 2.71603 15.0942 2.17051C14.9653 2.1061 14.8338 2.04398 14.6974 1.98191C14.6385 2.01309 14.579 2.04469 14.5189 2.07664C14.4192 2.12962 14.3176 2.18361 14.2133 2.23841L14.19 2.19415M17.8514 7.80064L10.7431 5.46433L10.7931 5.46495C10.7931 5.4649 10.7931 5.46485 10.7931 5.4648C10.7953 5.28906 10.797 5.11103 10.7989 4.92415C10.8016 4.65218 10.8044 4.36149 10.8091 4.03188C11.9268 3.45118 13.0085 2.87746 13.9205 2.39368C14.0203 2.34078 14.118 2.28896 14.2135 2.23832L14.19 2.19415M17.8514 7.80064C17.6727 8.0353 17.4947 8.27061 17.3167 8.50584L17.3155 8.50734C17.142 8.73667 16.9686 8.96593 16.7945 9.19457C16.2291 9.2068 15.3655 9.28472 14.2205 9.4254C13.3368 8.61541 12.2361 7.81083 10.7771 6.90763L17.8514 7.80064ZM14.19 2.19415C14.2943 2.13938 14.3956 2.08554 14.4952 2.03263C14.5627 1.99673 14.6294 1.96127 14.6957 1.92623L14.19 2.19415ZM3.0082 7.45903L3.00832 7.45926C3.32793 8.09952 3.68729 8.81613 4.17183 9.65846C5.14296 9.72952 6.54899 9.75044 7.31537 9.74583C8.16288 8.66026 9.00674 7.7517 10.2697 6.91348C10.275 6.35069 10.2804 5.90089 10.2858 5.46387C10.2858 5.46382 10.2858 5.46377 10.2858 5.46371L10.3358 5.46433L3.0082 7.45903ZM3.0082 7.45903C2.98041 7.40408 2.95285 7.3495 2.92546 7.29527C2.7712 6.98982 2.6223 6.69499 2.46804 6.40223C2.89321 5.61177 3.45161 4.86729 4.11968 4.19685C4.83642 3.47965 5.66275 2.88034 6.55901 2.41427C7.63991 3.06433 9.04515 3.68688 10.3017 4.06973L3.0082 7.45903ZM13.5407 18.876C12.906 19.0886 12.2342 19.2375 11.541 19.3175C11.1657 19.3593 10.7931 19.3802 10.4206 19.3802C10.0117 19.3802 9.60558 19.3553 9.20456 19.3055C8.98481 18.7336 8.71575 18.0822 8.4549 17.4543L13.5407 18.876ZM5.48265 18.5511L5.48269 18.5511C6.92338 19.4177 8.64083 19.8742 10.4206 19.8742C10.8105 19.8742 11.206 19.8531 11.5988 19.8082C13.8012 19.5602 15.794 18.6338 17.2106 17.1985C18.687 15.7032 19.6616 13.6125 19.9581 11.3098L19.9581 11.3097C20.1201 10.0488 20.068 8.75846 19.8015 7.57567C19.513 6.29531 18.9908 5.14863 18.2453 4.17323C16.7109 2.15976 14.4285 0.960519 11.8205 0.794153L11.8205 0.794153C8.87033 0.606744 5.85493 1.74946 3.7537 3.85565C2.60303 5.00885 1.76203 6.38434 1.32211 7.83744C0.741896 9.74786 0.843934 11.8843 1.60211 13.8534C2.3631 15.8333 3.7424 17.5023 5.48265 18.5511ZM5.75298 18.1319L5.75292 18.1318C4.82038 17.5708 4.01341 16.8294 3.36218 15.9747C3.73549 15.9477 4.16856 15.9184 4.65068 15.8869L4.65076 15.8869C4.73261 15.8814 4.81557 15.8758 4.89957 15.8702C5.60702 15.8228 6.38854 15.7704 7.2026 15.7059C7.42765 16.2975 7.70923 16.9778 7.98256 17.637C8.00689 17.6959 8.03131 17.7549 8.05577 17.814C8.25244 18.2894 8.45125 18.77 8.62468 19.2124C7.59401 19.0174 6.61933 18.6547 5.75298 18.1319ZM16.8416 16.855L16.8415 16.8551C16.0943 17.611 15.1759 18.218 14.1476 18.647C14.2121 18.4464 14.2767 18.242 14.3412 18.0377C14.3914 17.8785 14.4417 17.7194 14.4919 17.5621L14.4919 17.562C14.5298 17.4422 14.5677 17.3216 14.6057 17.2009C14.7504 16.741 14.8955 16.2795 15.0375 15.8564C15.9104 15.879 16.7414 15.9026 17.573 16.0069C17.3455 16.3082 17.1016 16.593 16.8416 16.855ZM11.7868 1.28532L11.79 1.23545L11.7868 1.28532C12.5927 1.33761 13.3637 1.49193 14.0906 1.74362C14.051 1.76459 14.0109 1.78594 13.9694 1.80871C12.9929 2.32886 11.781 2.97121 10.5302 3.62188C9.3948 3.28253 8.12564 2.73786 7.09687 2.15214C8.38393 1.57665 9.78511 1.26704 11.1859 1.26704C11.3873 1.26704 11.5858 1.27227 11.7868 1.28532ZM7.79822 11.1919L7.79829 11.1921L7.81966 11.2341C8.14588 11.8764 8.48492 12.5439 8.97216 13.1713C8.70414 13.4703 8.43933 13.8114 8.18591 14.1412L8.16952 14.1625C7.88871 14.5265 7.60003 14.9008 7.3142 15.2003C6.35108 15.2783 5.43146 15.3409 4.61688 15.3931L4.61674 15.3931C4.00192 15.4342 3.46256 15.4703 3.02712 15.5038C2.38583 14.5435 1.92355 13.4601 1.67394 12.3356C2.22488 11.8588 2.77691 11.3832 3.32938 10.9072C3.61943 10.6573 3.90961 10.4072 4.19981 10.1569C5.11008 10.219 6.35859 10.2397 7.14036 10.2397H7.14074H7.14113H7.14151H7.1419H7.14228H7.14266H7.14305H7.14343H7.14381H7.1442H7.14458H7.14496H7.14535H7.14573H7.14611H7.14649H7.14688H7.14726H7.14764H7.14802H7.1484H7.14879H7.14917H7.14955H7.14993H7.15031H7.15069H7.15107H7.15145H7.15183H7.15222H7.1526H7.15298H7.15336H7.15374H7.15412H7.1545H7.15488H7.15526H7.15564H7.15602H7.15639H7.15677H7.15715H7.15753H7.15791H7.15829H7.15867H7.15905H7.15942H7.1598H7.16018H7.16056H7.16094H7.16131H7.16169H7.16207H7.16245H7.16282H7.1632H7.16358H7.16396H7.16433H7.16471H7.16509H7.16546H7.16584H7.16621H7.16659H7.16697H7.16734H7.16772H7.16809H7.16847H7.16885H7.16922H7.1696H7.16997H7.17035H7.17072H7.1711H7.17147H7.17184H7.17222H7.17259H7.17297H7.17334H7.17372H7.17409H7.17446H7.17484H7.17521H7.17558H7.17596H7.17633H7.1767H7.17708H7.17745H7.17782H7.17819H7.17857H7.17894H7.17931H7.17968H7.18005H7.18043H7.1808H7.18117H7.18154H7.18191H7.18228H7.18266H7.18303H7.1834H7.18377H7.18414H7.18451H7.18488H7.18525H7.18562H7.18599H7.18636H7.18673H7.1871H7.18747H7.18784H7.18821H7.18858H7.18895H7.18932H7.18969H7.19006H7.19042H7.19079H7.19116H7.19153H7.1919H7.19227H7.19264H7.193H7.19337H7.19374H7.19411H7.19448H7.19484H7.19521H7.19558H7.19595H7.19631H7.19668H7.19705H7.19741H7.19778H7.19815H7.19851H7.19888H7.19925H7.19961H7.19998H7.20034H7.20071H7.20108H7.20144H7.20181H7.20217H7.20254H7.2029H7.20327H7.20363H7.204H7.20436H7.20473H7.20509H7.20546H7.20582H7.20619H7.20655H7.20691H7.20728H7.20764H7.20801H7.20837H7.20873H7.2091H7.20946H7.20982H7.21019H7.21055H7.21091H7.21128H7.21164H7.212H7.21236H7.21273H7.21309H7.21345H7.21381H7.21417H7.21454H7.2149H7.21526H7.21562H7.21598H7.21635H7.21671H7.21707H7.21743H7.21779H7.21815H7.21851H7.21887H7.21923H7.21959H7.21995H7.22031H7.22067H7.22104H7.2214H7.22176H7.22212H7.22247H7.22283H7.22319H7.22355H7.22391H7.22427H7.22463H7.22499H7.22535H7.22571H7.22607H7.22643H7.22678H7.22714H7.2275H7.22786H7.22822H7.22858H7.22893H7.22929H7.22965H7.23001H7.23037H7.23072H7.23108H7.23144H7.23179H7.23215H7.23251H7.23287H7.23322H7.23358H7.23394H7.23429H7.23465H7.23501H7.23536H7.23572H7.23607H7.23643H7.23679H7.23714H7.2375H7.23785H7.23821H7.23856H7.23892H7.23928H7.23963H7.23999H7.24034H7.2407H7.24105H7.24141H7.24176H7.24211H7.24247H7.24282H7.24318H7.24353H7.24389H7.24424H7.24459H7.24495H7.2453H7.24566H7.24601H7.24636H7.24672H7.24707H7.24742H7.24778H7.24813H7.24848H7.24883H7.24919H7.24954H7.24989H7.25024H7.2506H7.25095H7.2513H7.25165H7.25201H7.25236H7.25271H7.25306H7.25341H7.25376H7.25412H7.25447H7.25482H7.25517H7.25552H7.25587H7.25622H7.25657H7.25693H7.25728H7.25763H7.25798H7.25833H7.25868H7.25903H7.25938H7.25973H7.26008H7.26043H7.26078H7.26113H7.26148H7.26183H7.26218H7.26253H7.26288H7.26323H7.26357H7.26392H7.26427H7.26462H7.26497H7.26532H7.26567H7.26602H7.26637H7.26671H7.26706H7.26741H7.26776H7.26811H7.26846H7.2688H7.26915H7.2695H7.26985H7.27019H7.27054H7.27089H7.27124H7.27158H7.27193H7.27228H7.27262H7.27297H7.27332H7.27367H7.27401H7.27436H7.27471H7.27505H7.2754H7.27574H7.27609H7.27644H7.27678H7.27713H7.27748H7.27782H7.27817H7.27851H7.27886H7.2792H7.27955H7.27989H7.28024H7.28059H7.28093H7.28128H7.28162H7.28197H7.28231H7.28266H7.283H7.28334H7.28369H7.28403H7.28438H7.28472H7.28507H7.28541H7.28575H7.2861H7.28644H7.28679H7.28713H7.28747H7.28782H7.28816H7.2885H7.28885H7.28919H7.28953H7.28988H7.29022H7.29056H7.29091H7.29125H7.29159H7.29194H7.29228H7.29262H7.29296H7.29331H7.29365H7.29399H7.29433H7.29459C7.46873 10.5433 7.63063 10.8596 7.79822 11.1919ZM19.1458 12.7611C18.8657 13.7766 18.4416 14.7208 17.8943 15.5518C16.9254 15.4119 15.9774 15.3853 14.983 15.362C14.711 15.0126 14.4389 14.6128 14.1704 14.2181L14.1357 14.1672C14.1239 14.1499 14.1122 14.1326 14.1004 14.1153C13.8334 13.723 13.5605 13.3219 13.2826 12.9637C13.4639 12.5301 13.6397 11.9757 13.8095 11.4405L13.814 11.4262L13.8173 11.4157C13.9879 10.8779 14.1626 10.3271 14.3395 9.91005C15.4289 9.7752 16.2505 9.70071 16.7851 9.68858C17.5634 10.6589 18.3317 11.6795 19.0807 12.6746L19.1458 12.7611ZM19.3048 7.68167C19.5577 8.80777 19.6095 10.0417 19.4544 11.2471C19.4155 11.5456 19.3659 11.8399 19.3035 12.1318C18.6294 11.235 17.9378 10.3226 17.2384 9.4456C17.5805 8.99609 17.9225 8.5442 18.2618 8.09484C18.4135 7.89522 18.5653 7.69495 18.7169 7.49471C18.8492 7.3201 18.9814 7.14551 19.1137 6.97137C19.1859 7.20322 19.2496 7.43938 19.3048 7.68167ZM1.80866 7.97426C1.91296 7.63301 2.04 7.29602 2.18771 6.9653C2.2714 7.12662 2.3536 7.29015 2.43772 7.45749C2.47377 7.5292 2.51016 7.60161 2.54718 7.67485C2.87069 8.31988 3.23461 9.04518 3.72514 9.9003C3.3584 10.2157 2.9923 10.5318 2.62623 10.8478L2.62612 10.8479C2.27215 11.1534 1.91822 11.459 1.56373 11.764C1.36866 10.5059 1.43443 9.20609 1.80868 7.97418L1.76084 7.95964L1.80866 7.97426Z" fill="black" stroke="black" stroke-width="0.1"/>
</svg>
