<svg width="14" height="21" viewBox="0 0 14 21" fill="none" xmlns="http://www.w3.org/2000/svg">
<path d="M13.0572 4.88526V4.88572C13.0576 5.34831 12.9691 5.80609 12.7972 6.23277C12.6254 6.65924 12.3739 7.04581 12.0577 7.37081C12.0575 7.37096 12.0574 7.37111 12.0573 7.37126L9.63836 9.84355L9.22781 10.2632L9.63836 10.6828L12.0565 13.1542C12.6912 13.8154 13.052 14.708 13.0572 15.6426V19.9263H1.25723V15.6427C1.26246 14.7081 1.6232 13.8154 2.25801 13.1542L4.6761 10.6828L5.08664 10.2632L4.6761 9.84355L2.2572 7.37126C2.25703 7.37109 2.25687 7.37092 2.2567 7.37075C1.94053 7.04576 1.689 6.65921 1.51722 6.23277C1.34534 5.80609 1.25687 5.34831 1.25723 4.88572V4.88526V0.6H13.0572V4.88526Z" stroke="black" strokeWidth="1.2"/>
</svg>
