<svg width="19" height="20" viewBox="0 0 19 20" fill="none" xmlns="http://www.w3.org/2000/svg">
<path fillRule="evenodd" clipRule="evenodd" d="M14.2513 5.12761C14.2513 7.40723 12.4033 9.25522 10.1237 9.25522C7.84409 9.25522 5.99609 7.40723 5.99609 5.12761C5.99609 2.84799 7.84409 1 10.1237 1C12.4033 1 14.2513 2.84799 14.2513 5.12761Z" stroke="black" strokeLinecap="round" strokeLinejoin="round"/>
<path d="M1.49965 15.2521C1.48926 14.9762 1.25714 14.7609 0.981192 14.7713C0.705245 14.7817 0.489967 15.0138 0.500354 15.2897L1.49965 15.2521ZM6.34812 19.2491V18.749L6.33693 18.7492L6.34812 19.2491ZM13.0313 19.2491L13.0425 18.7491H13.0313V19.2491ZM18.8791 15.2897C18.8895 15.0138 18.6742 14.7817 18.3982 14.7713C18.1223 14.7609 17.8902 14.9762 17.8798 15.2521L18.8791 15.2897ZM17.8798 15.1081C17.8902 15.384 18.1223 15.5993 18.3982 15.5889C18.6742 15.5785 18.8895 15.3464 18.8791 15.0704L17.8798 15.1081ZM13.0313 11.1111V11.6112L13.0425 11.6109L13.0313 11.1111ZM6.34812 11.1111L6.33693 11.6111H6.34812V11.1111ZM0.500354 15.0704C0.489967 15.3464 0.705245 15.5785 0.981192 15.5889C1.25714 15.5993 1.48926 15.384 1.49965 15.1081L0.500354 15.0704ZM0.500354 15.2897C0.599609 17.9266 3.33106 19.8168 6.35931 19.749L6.33693 18.7492C3.6259 18.8099 1.57069 17.1396 1.49965 15.2521L0.500354 15.2897ZM6.34812 19.7491H13.0313V18.7491H6.34812V19.7491ZM13.0201 19.749C16.0484 19.8168 18.7798 17.9266 18.8791 15.2897L17.8798 15.2521C17.8087 17.1396 15.7535 18.8099 13.0425 18.7492L13.0201 19.749ZM18.8791 15.0704C18.7798 12.4336 16.0484 10.5434 13.0201 10.6112L13.0425 11.6109C15.7535 11.5503 17.8087 13.2206 17.8798 15.1081L18.8791 15.0704ZM13.0313 10.6111H6.34812V11.6111H13.0313V10.6111ZM6.35931 10.6112C3.33106 10.5434 0.599609 12.4336 0.500354 15.0704L1.49965 15.1081C1.57069 13.2206 3.6259 11.5503 6.33693 11.6109L6.35931 10.6112Z" fill="black"/>
</svg>
