<svg width="15" height="18" viewBox="0 0 15 18" fill="none" xmlns="http://www.w3.org/2000/svg">
<path d="M8.45278 8.10743H5.99692C5.90823 8.10743 5.82317 8.07223 5.76046 8.00957C5.69774 7.9469 5.66251 7.86192 5.66251 7.7733C5.66251 7.68468 5.69774 7.59969 5.76046 7.53703C5.82317 7.47437 5.90823 7.43916 5.99692 7.43916H8.45278C8.62627 7.43916 8.79265 7.3703 8.91533 7.24773C9.038 7.12516 9.10692 6.95892 9.10692 6.78558C9.10692 6.61224 9.038 6.446 8.91533 6.32342C8.79265 6.20085 8.62627 6.13199 8.45278 6.13199H6.98548C6.81154 6.1323 6.63926 6.09834 6.47848 6.03205C6.31769 5.96576 6.17157 5.86844 6.04848 5.74566C5.92538 5.62289 5.82772 5.47706 5.76109 5.31653C5.69445 5.15601 5.66016 4.98393 5.66016 4.81014C5.66016 4.63635 5.69445 4.46427 5.76109 4.30374C5.82772 4.14321 5.92538 3.99739 6.04848 3.87461C6.17157 3.75184 6.31769 3.65452 6.47848 3.58823C6.63926 3.52194 6.81154 3.48797 6.98548 3.48828H9.4415C9.53019 3.48828 9.61525 3.52349 9.67797 3.58615C9.74068 3.64881 9.77592 3.7338 9.77592 3.82242C9.77592 3.91104 9.74068 3.99602 9.67797 4.05869C9.61525 4.12135 9.53019 4.15655 9.4415 4.15655H6.98548C6.89943 4.15634 6.8142 4.17308 6.73464 4.20583C6.65509 4.23858 6.58278 4.28669 6.52186 4.3474C6.46094 4.40811 6.41261 4.48024 6.37964 4.55964C6.34666 4.63904 6.32969 4.72417 6.32969 4.81014C6.32969 4.89611 6.34666 4.98123 6.37964 5.06064C6.41261 5.14004 6.46094 5.21217 6.52186 5.27288C6.58278 5.33359 6.65509 5.3817 6.73464 5.41445C6.8142 5.4472 6.89943 5.46394 6.98548 5.46372H8.45278C8.80366 5.46372 9.14016 5.60299 9.38826 5.85089C9.63637 6.09878 9.77575 6.435 9.77575 6.78558C9.77575 7.13616 9.63637 7.47237 9.38826 7.72027C9.14016 7.96817 8.80366 8.10743 8.45278 8.10743Z" fill="black"/>
<path d="M7.71918 8.96834C7.67526 8.96835 7.63177 8.95971 7.59119 8.94292C7.55061 8.92614 7.51374 8.90153 7.48269 8.8705C7.45163 8.83947 7.427 8.80263 7.4102 8.76208C7.3934 8.72154 7.38475 8.67808 7.38477 8.6342V2.95913C7.38477 2.87052 7.42 2.78553 7.48271 2.72287C7.54543 2.6602 7.63049 2.625 7.71918 2.625C7.80787 2.625 7.89293 2.6602 7.95565 2.72287C8.01836 2.78553 8.0536 2.87052 8.0536 2.95913V8.6342C8.05361 8.67808 8.04497 8.72154 8.02816 8.76208C8.01136 8.80263 7.98673 8.83947 7.95567 8.8705C7.92462 8.90153 7.88775 8.92614 7.84717 8.94293C7.80659 8.95971 7.7631 8.96835 7.71918 8.96834Z" fill="black"/>
<path d="M14.3046 17.6875C14.2607 17.6875 14.2172 17.6788 14.1766 17.662C14.1361 17.6453 14.0992 17.6206 14.0682 17.5896L12.9877 16.5102L11.9072 17.5896C11.8761 17.6206 11.8393 17.6453 11.7987 17.6621C11.7581 17.6788 11.7147 17.6875 11.6708 17.6875C11.6268 17.6875 11.5834 17.6788 11.5428 17.6621C11.5022 17.6453 11.4654 17.6206 11.4343 17.5896L10.3538 16.5102L9.27335 17.5896C9.24231 17.6206 9.20545 17.6453 9.16488 17.6621C9.12431 17.6789 9.08082 17.6875 9.03691 17.6875C8.99299 17.6875 8.94951 17.6789 8.90894 17.6621C8.86837 17.6453 8.83151 17.6206 8.80047 17.5896L7.71998 16.5102L6.63932 17.5896C6.60827 17.6206 6.57141 17.6453 6.53084 17.6621C6.49027 17.6788 6.44679 17.6875 6.40287 17.6875C6.35896 17.6875 6.31548 17.6788 6.27491 17.6621C6.23434 17.6453 6.19748 17.6206 6.16643 17.5896L5.08596 16.5102L4.00548 17.5896C3.97443 17.6206 3.93757 17.6453 3.897 17.6621C3.85644 17.6789 3.81295 17.6875 3.76904 17.6875C3.72512 17.6875 3.68164 17.6789 3.64107 17.6621C3.6005 17.6453 3.56364 17.6206 3.53259 17.5896L2.45212 16.5102L1.37164 17.5896C1.32488 17.6363 1.26529 17.6682 1.20043 17.6811C1.13556 17.694 1.06832 17.6873 1.00721 17.6621C0.946105 17.6368 0.893877 17.5939 0.857132 17.539C0.820388 17.4841 0.800777 17.4194 0.800781 17.3534V0.646635C0.80077 0.602752 0.809412 0.559297 0.826213 0.518753C0.843015 0.478209 0.867648 0.44137 0.898703 0.41034C0.929759 0.37931 0.96663 0.354699 1.00721 0.337911C1.04779 0.321123 1.09128 0.312488 1.1352 0.3125H14.3046C14.3485 0.312488 14.392 0.321123 14.4326 0.337911C14.4732 0.354699 14.51 0.37931 14.5411 0.41034C14.5721 0.44137 14.5968 0.478209 14.6136 0.518753C14.6304 0.559297 14.639 0.602752 14.639 0.646635V17.3534C14.639 17.442 14.6038 17.527 14.5411 17.5896C14.4783 17.6523 14.3933 17.6875 14.3046 17.6875ZM5.08597 15.7036C5.12989 15.7035 5.17339 15.7121 5.21396 15.7289C5.25454 15.7457 5.2914 15.7704 5.32241 15.8015L6.40289 16.8809L7.48354 15.8015C7.51458 15.7704 7.55144 15.7458 7.59201 15.729C7.63258 15.7122 7.67606 15.7036 7.71998 15.7036C7.76389 15.7036 7.80738 15.7122 7.84795 15.729C7.88852 15.7458 7.92537 15.7704 7.95642 15.8015L9.0369 16.8809L10.1174 15.8015C10.1484 15.7704 10.1853 15.7458 10.2259 15.729C10.2664 15.7122 10.3099 15.7036 10.3538 15.7036C10.3977 15.7036 10.4412 15.7122 10.4818 15.729C10.5224 15.7458 10.5592 15.7704 10.5903 15.8015L11.6707 16.8809L12.7512 15.8015C12.7823 15.7704 12.8191 15.7458 12.8597 15.729C12.9003 15.7122 12.9438 15.7036 12.9877 15.7036C13.0316 15.7036 13.0751 15.7122 13.1156 15.729C13.1562 15.7458 13.1931 15.7704 13.2241 15.8015L13.9702 16.5467V0.980765H1.46961V16.5467L2.21568 15.8015C2.24672 15.7704 2.28358 15.7458 2.32415 15.729C2.36472 15.7122 2.40821 15.7036 2.45212 15.7036C2.49604 15.7036 2.53952 15.7122 2.58009 15.729C2.62066 15.7458 2.65752 15.7704 2.68856 15.8015L3.76904 16.8809L4.84953 15.8015C4.88054 15.7704 4.91739 15.7457 4.95796 15.7289C4.99854 15.7121 5.04205 15.7035 5.08597 15.7036Z" fill="black"/>
<path d="M11.6297 11.5472H3.81098C3.72229 11.5472 3.63723 11.512 3.57451 11.4493C3.5118 11.3866 3.47656 11.3017 3.47656 11.213C3.47656 11.1244 3.5118 11.0394 3.57451 10.9768C3.63723 10.9141 3.72229 10.8789 3.81098 10.8789H11.6297C11.7184 10.8789 11.8035 10.9141 11.8662 10.9768C11.9289 11.0394 11.9641 11.1244 11.9641 11.213C11.9641 11.3017 11.9289 11.3866 11.8662 11.4493C11.8035 11.512 11.7184 11.5472 11.6297 11.5472Z" fill="black"/>
<path d="M11.6297 13.7347H3.81098C3.72229 13.7347 3.63723 13.6995 3.57451 13.6368C3.5118 13.5741 3.47656 13.4892 3.47656 13.4005C3.47656 13.3119 3.5118 13.2269 3.57451 13.1643C3.63723 13.1016 3.72229 13.0664 3.81098 13.0664H11.6297C11.7184 13.0664 11.8035 13.1016 11.8662 13.1643C11.9289 13.2269 11.9641 13.3119 11.9641 13.4005C11.9641 13.4892 11.9289 13.5741 11.8662 13.6368C11.8035 13.6995 11.7184 13.7347 11.6297 13.7347Z" fill="black"/>
</svg>
