<svg width="21" height="15" viewBox="0 0 21 15" fill="none" xmlns="http://www.w3.org/2000/svg">
<path d="M3.26465 0.0976562C1.61995 0.0976562 0.264648 1.45296 0.264648 3.09766V11.1973C0.264648 12.842 1.61995 14.1973 3.26465 14.1973H11.2646C12.8273 14.1973 14.1152 12.9702 14.2412 11.4375L17.6748 13.4062C18.7863 14.0434 20.2646 13.1874 20.2646 11.9062V2.38867C20.2646 1.10753 18.7863 0.251532 17.6748 0.888672L14.2412 2.85742C14.1152 1.32477 12.8273 0.0976562 11.2646 0.0976562H3.26465ZM11.2646 2.09766C11.8359 2.09766 12.2646 2.52636 12.2646 3.09766C12.2645 5.79725 12.2646 8.49637 12.2646 11.1973C12.2646 11.7686 11.8359 12.1973 11.2646 12.1973H3.26465C2.69335 12.1973 2.26465 11.7686 2.26465 11.1973V3.09769C2.26465 2.52639 2.68961 2.09769 3.26091 2.09769C5.93576 2.09763 8.58979 2.09766 11.2646 2.09766ZM18.2646 2.85742V11.4395L14.2646 9.14648V5.14844L18.2646 2.85742Z" fill="black"/>
</svg>
