<svg width="22" height="22" viewBox="0 0 22 22" fill="none" xmlns="http://www.w3.org/2000/svg">
<path fillRule="evenodd" clipRule="evenodd" d="M10.2751 1.72798C9.96492 1.91587 9.59271 2.27091 9.25425 2.95205L9.25344 2.95367L7.60016 6.2509C7.48957 6.47784 7.28916 6.67219 7.10782 6.80714C6.92467 6.94344 6.67967 7.07963 6.42991 7.12126L6.42966 7.1213L3.44852 7.6166C3.44829 7.61664 3.44806 7.61668 3.44783 7.61672C2.72416 7.73884 2.28647 7.98601 2.01897 8.22469C1.75004 8.46464 1.62653 8.71986 1.56885 8.8963C1.5118 9.07078 1.46216 9.34756 1.54058 9.69731C1.61865 10.0455 1.83146 10.5012 2.354 11.0238L4.67254 13.3423C4.8661 13.5359 4.99185 13.8084 5.06108 14.0478C5.12933 14.2838 5.16997 14.5822 5.10446 14.8499L4.44152 17.7164L4.44112 17.7181C4.23824 18.5814 4.30298 19.1525 4.43208 19.5208C4.55989 19.8855 4.76444 20.0906 4.91325 20.2011C5.06757 20.3123 5.32512 20.4451 5.71066 20.4567C6.10056 20.4685 6.66451 20.3574 7.42951 19.9036L7.43053 19.903L10.232 18.2501C10.2327 18.2497 10.2333 18.2493 10.2339 18.249C10.4813 18.1013 10.7923 18.0526 11.0514 18.0526C11.3126 18.0526 11.6228 18.102 11.8716 18.2465L11.8752 18.2486L11.8752 18.2486L14.6694 19.9027C14.6696 19.9028 14.6699 19.903 14.6701 19.9031C15.4075 20.3367 15.9561 20.46 16.3417 20.46C16.7465 20.46 17.0198 20.3211 17.1876 20.2008C17.3349 20.0913 17.5375 19.8869 17.6645 19.5219C17.7931 19.1525 17.8576 18.5803 17.6589 17.7161C17.6589 17.716 17.6588 17.7159 17.6588 17.7158L16.9952 14.8463L16.9931 14.8374L16.9932 14.8374C16.9378 14.5761 16.9742 14.2852 17.0423 14.0462C17.1101 13.8085 17.2331 13.5374 17.4273 13.3429C17.4275 13.3427 17.4277 13.3425 17.4279 13.3423L19.745 11.0159C19.7452 11.0157 19.7453 11.0156 19.7455 11.0154C20.2631 10.4935 20.4745 10.0375 20.5529 9.68796C20.6316 9.33662 20.5839 9.05717 20.529 8.87862C20.4764 8.70767 20.3567 8.45463 20.0885 8.21534C19.8216 7.97719 19.3819 7.72963 18.6525 7.60735C18.6525 7.60735 18.6524 7.60734 18.6524 7.60733L15.6708 7.11195L15.6706 7.11191C15.4209 7.0703 15.1761 6.93414 14.993 6.7989C14.809 6.66306 14.6098 6.47092 14.4955 6.25054L14.4921 6.24401L14.4922 6.24399L12.8468 2.95316L12.8462 2.95205C12.5078 2.27091 12.1355 1.91587 11.8254 1.72798C11.5142 1.53945 11.2336 1.5 11.0502 1.5C10.8668 1.5 10.5863 1.53945 10.2751 1.72798ZM9.75693 0.872686C10.2521 0.572739 10.7194 0.5 11.0502 0.5C11.381 0.5 11.8484 0.572739 12.3435 0.872686C12.8396 1.17318 13.332 1.68268 13.7413 2.50623C13.7415 2.50651 13.7416 2.50678 13.7417 2.50706L15.3843 5.79209C15.4024 5.82543 15.4694 5.90759 15.587 5.99446C15.7075 6.08343 15.8038 6.12026 15.8348 6.12549C15.8348 6.1255 15.8349 6.12551 15.8349 6.12552L18.817 6.62097L18.8177 6.62109C19.7057 6.76994 20.327 7.08798 20.7543 7.46918C21.1802 7.84926 21.3878 8.26934 21.4847 8.58454C21.5794 8.89213 21.6532 9.35125 21.5286 9.90676C21.4037 10.4639 21.087 11.0829 20.455 11.7201L20.4543 11.7208L18.1357 14.0487L18.135 14.0494C18.1052 14.0792 18.0461 14.1725 18.0041 14.3202C17.9632 14.4638 17.9615 14.578 17.9708 14.6269L18.6332 17.4911L18.6334 17.4917C18.8646 18.4971 18.8123 19.2663 18.6089 19.8506C18.4048 20.437 18.062 20.798 17.7795 21.0068L17.7745 21.0105L17.7745 21.0105C17.4746 21.2264 17.0006 21.46 16.3417 21.46C15.7365 21.46 15.0139 21.2655 14.1623 20.7646L14.1611 20.7639L11.3694 19.1112C11.3691 19.111 11.3687 19.1108 11.3683 19.1106C11.3262 19.0867 11.2117 19.0526 11.0514 19.0526C10.8881 19.0526 10.7794 19.0879 10.7465 19.1076L10.7434 19.1095L7.93971 20.7636C7.93962 20.7637 7.93954 20.7637 7.93945 20.7638C7.0498 21.2915 6.3003 21.4749 5.68058 21.4563C5.05813 21.4375 4.61041 21.2163 4.32509 21.0099L4.32094 21.0068L4.32096 21.0068C4.03989 20.7991 3.69418 20.4388 3.48836 19.8516C3.28329 19.2665 3.23114 18.4963 3.46743 17.4902C3.4675 17.4899 3.46757 17.4896 3.46764 17.4893L4.13101 14.6209L4.13301 14.6123L4.13308 14.6123C4.14062 14.5822 4.14395 14.4761 4.10043 14.3256C4.05748 14.177 3.99625 14.0802 3.96543 14.0494L1.64689 11.7309C1.01017 11.0942 0.690086 10.4748 0.564812 9.9161C0.439897 9.35901 0.516464 8.89722 0.618352 8.58556C0.719603 8.27585 0.927977 7.85794 1.35321 7.47853C1.77978 7.09792 2.39833 6.77955 3.28226 6.63052L3.28345 6.63032L6.26551 6.13487C6.29621 6.12975 6.39245 6.09299 6.51081 6.00491C6.62983 5.91633 6.68983 5.83647 6.70122 5.81282L6.7047 5.80559L6.70476 5.80562L8.35871 2.50706C8.35886 2.50677 8.359 2.50648 8.35915 2.50619C8.76852 1.68266 9.26091 1.17317 9.75693 0.872686Z" fill="black"/>
<path d="M7.31394 16.6055L10.7099 8.08547H12.2699L15.6779 16.6055H14.1659L13.3619 14.4935H9.56994L8.76594 16.6055H7.31394ZM11.4659 9.56147L10.0499 13.2455H12.8819L11.4659 9.56147Z" fill="black"/>
</svg>
