<svg width="20" height="18" viewBox="0 0 20 18" fill="none" xmlns="http://www.w3.org/2000/svg">
<path fillRule="evenodd" clipRule="evenodd" d="M0 3C0 1.34315 1.34315 0 3 0H17C18.6569 0 20 1.34315 20 3V12C20 13.6569 18.6569 15 17 15H11V16H13C13.5523 16 14 16.4477 14 17C14 17.5523 13.5523 18 13 18H7C6.44772 18 6 17.5523 6 17C6 16.4477 6.44772 16 7 16H9V15H3C1.34315 15 0 13.6569 0 12V3ZM3 2C2.44772 2 2 2.44772 2 3V12C2 12.5523 2.44772 13 3 13H17C17.5523 13 18 12.5523 18 12V3C18 2.44772 17.5523 2 17 2H3Z" fill="black"/>
</svg>
