<svg width="20" height="20" viewBox="0 0 20 20" fill="none" xmlns="http://www.w3.org/2000/svg">
<path d="M14.6394 19H2.00132C1.27965 19 0.693939 18.424 0.693939 17.7143V4C0.693939 3.29029 1.27965 2.71429 2.00132 2.71429H17.6899C18.4116 2.71429 18.9973 3.29029 18.9973 4V14.7143" stroke="black" strokeLinecap="round" strokeLinejoin="round"/>
<path d="M5.4874 5.28571C5.72794 5.28571 5.92293 5.09383 5.92293 4.85714C5.92293 4.62045 5.72794 4.42857 5.4874 4.42857C5.24687 4.42857 5.05188 4.62045 5.05188 4.85714C5.05188 5.09383 5.24687 5.28571 5.4874 5.28571Z" stroke="black" strokeLinecap="round" strokeLinejoin="round"/>
<path d="M14.2033 5.28571C14.4438 5.28571 14.6388 5.09383 14.6388 4.85714C14.6388 4.62045 14.4438 4.42857 14.2033 4.42857C13.9628 4.42857 13.7678 4.62045 13.7678 4.85714C13.7678 5.09383 13.9628 5.28571 14.2033 5.28571Z" stroke="black" strokeLinecap="round" strokeLinejoin="round"/>
<path d="M5.92346 4.85714V1" stroke="black" strokeLinecap="round" strokeLinejoin="round"/>
<path d="M14.6394 4.85714V1" stroke="black" strokeLinecap="round" strokeLinejoin="round"/>
<path d="M0.693939 7H18.9973" stroke="black" strokeLinecap="round" strokeLinejoin="round"/>
<path d="M4.84751 14.1566L5.46351 14.0126C5.68751 14.6366 6.11684 14.9486 6.75151 14.9486C7.08751 14.9486 7.37551 14.8552 7.61551 14.6686C7.86084 14.4766 7.98351 14.2179 7.98351 13.8926C7.98351 13.5512 7.86351 13.2926 7.62351 13.1166C7.38351 12.9406 7.08218 12.8526 6.71951 12.8526H6.11951V12.2526H6.69551C7.02084 12.2526 7.29551 12.1726 7.51951 12.0126C7.74884 11.8472 7.86351 11.6046 7.86351 11.2846C7.86351 11.0019 7.75684 10.7832 7.54351 10.6286C7.33551 10.4686 7.08218 10.3886 6.78351 10.3886C6.49018 10.3886 6.23684 10.4686 6.02351 10.6286C5.81551 10.7832 5.66618 11.0019 5.57551 11.2846L4.96751 11.1406C5.07951 10.7139 5.30084 10.3832 5.63151 10.1486C5.96751 9.90857 6.36218 9.78857 6.81551 9.78857C7.27951 9.78857 7.68218 9.91924 8.02351 10.1806C8.36484 10.4366 8.53551 10.7939 8.53551 11.2526C8.53551 11.5459 8.46084 11.8019 8.31151 12.0206C8.16751 12.2392 7.96218 12.4072 7.69551 12.5246C7.99951 12.6312 8.23418 12.8072 8.39951 13.0526C8.57018 13.2979 8.65551 13.5806 8.65551 13.9006C8.65551 14.3859 8.46618 14.7832 8.08751 15.0926C7.70884 15.3966 7.26884 15.5486 6.76751 15.5486C6.29818 15.5486 5.89284 15.4286 5.55151 15.1886C5.21551 14.9486 4.98084 14.6046 4.84751 14.1566ZM11.4753 15.5486C11.182 15.5486 10.9153 15.4899 10.6753 15.3726C10.4407 15.2552 10.2487 15.1032 10.0993 14.9166C9.94999 14.7246 9.82466 14.5006 9.72332 14.2446C9.62732 13.9832 9.55799 13.7246 9.51532 13.4686C9.47799 13.2072 9.45932 12.9406 9.45932 12.6686C9.45932 12.3966 9.47799 12.1326 9.51532 11.8766C9.55799 11.6152 9.62732 11.3566 9.72332 11.1006C9.82466 10.8446 9.94999 10.6206 10.0993 10.4286C10.2487 10.2366 10.4407 10.0819 10.6753 9.96457C10.9153 9.84724 11.1873 9.78857 11.4913 9.78857C11.8593 9.78857 12.1793 9.87657 12.4513 10.0526C12.7287 10.2232 12.9393 10.4552 13.0833 10.7486C13.2327 11.0366 13.3393 11.3406 13.4033 11.6606C13.4727 11.9806 13.5073 12.3166 13.5073 12.6686C13.5073 13.0152 13.4727 13.3486 13.4033 13.6686C13.334 13.9832 13.2247 14.2872 13.0753 14.5806C12.9313 14.8739 12.7207 15.1086 12.4433 15.2846C12.1713 15.4606 11.8487 15.5486 11.4753 15.5486ZM10.1313 12.6686C10.1313 12.9192 10.15 13.1646 10.1873 13.4046C10.2247 13.6392 10.2887 13.8819 10.3793 14.1326C10.47 14.3779 10.6087 14.5752 10.7953 14.7246C10.9873 14.8739 11.2167 14.9486 11.4833 14.9486C11.7553 14.9486 11.9847 14.8739 12.1713 14.7246C12.3633 14.5752 12.502 14.3779 12.5873 14.1326C12.678 13.8872 12.742 13.6472 12.7793 13.4126C12.8167 13.1726 12.8353 12.9246 12.8353 12.6686C12.8353 12.4072 12.8167 12.1619 12.7793 11.9326C12.7473 11.6979 12.686 11.4579 12.5953 11.2126C12.5047 10.9619 12.3633 10.7619 12.1713 10.6126C11.9847 10.4632 11.7553 10.3886 11.4833 10.3886C11.2167 10.3886 10.9873 10.4632 10.7953 10.6126C10.6087 10.7619 10.47 10.9592 10.3793 11.2046C10.2887 11.4499 10.2247 11.6926 10.1873 11.9326C10.15 12.1672 10.1313 12.4126 10.1313 12.6686Z" fill="black"/>
<path d="M18.9973 14.7143H15.9468C15.2251 14.7143 14.6394 15.2903 14.6394 16V19L18.9973 14.7143Z" stroke="black" strokeLinecap="round" strokeLinejoin="round"/>
</svg>
