<svg width="21" height="14" viewBox="0 0 21 14" fill="none" xmlns="http://www.w3.org/2000/svg">
<path d="M3.02981 7.15377H7.24024C7.64657 7.15377 7.97708 6.85017 7.97708 6.47708V2.61028C7.97708 2.23716 7.64649 1.93359 7.24024 1.93359H3.02981C2.62348 1.93359 2.29297 2.23719 2.29297 2.61028V6.47708C2.29297 6.8502 2.62352 7.15377 3.02981 7.15377ZM2.92453 2.61028C2.92453 2.55697 2.97176 2.5136 3.02981 2.5136H7.24024C7.29825 2.5136 7.34552 2.55694 7.34552 2.61028V6.47708C7.34552 6.53039 7.29829 6.57376 7.24024 6.57376H3.02981C2.9718 6.57376 2.92453 6.53042 2.92453 6.47708V2.61028Z" fill="black"/>
<path d="M12.1876 9.95797C12.1876 9.79776 12.0462 9.66797 11.8718 9.66797H2.60875C2.43434 9.66797 2.29297 9.79776 2.29297 9.95797C2.29297 10.1182 2.43438 10.248 2.60875 10.248H11.8718C12.0461 10.248 12.1876 10.1182 12.1876 9.95797Z" fill="black"/>
<path d="M20.3809 4.2971C20.1603 4.02364 19.8211 3.8668 19.4506 3.8668H17.7669C17.5925 3.8668 17.4512 3.99659 17.4512 4.1568C17.4512 4.31701 17.5925 4.44681 17.7669 4.44681H19.4506C19.6191 4.44681 19.7732 4.51812 19.8735 4.64243C19.9737 4.76673 20.0031 4.92289 19.9541 5.0709L17.5194 12.4179C17.4514 12.6228 17.2491 12.7604 17.0158 12.7604H16.8196V7.05687C16.8196 6.89666 16.6783 6.76687 16.5038 6.76687C16.3294 6.76687 16.188 6.89666 16.188 7.05687V12.7604H1.76723C1.47703 12.7604 1.2409 12.5436 1.2409 12.2771V1.06337C1.2409 0.796828 1.47699 0.580007 1.76723 0.580007H15.6617C15.9519 0.580007 16.1881 0.796828 16.1881 1.06337V5.8969C16.1881 6.05711 16.3294 6.1869 16.5039 6.1869C16.6783 6.1869 16.8196 6.05711 16.8196 5.8969V1.06337C16.8196 0.477049 16.3002 0 15.6618 0H1.76723C1.12879 0 0.609375 0.477049 0.609375 1.06337V12.2771C0.609375 12.8634 1.12879 13.3405 1.76723 13.3405H17.0158C17.529 13.3405 17.9741 13.0376 18.1235 12.5867L20.5582 5.2398C20.6662 4.91417 20.6015 4.57057 20.3809 4.2971Z" fill="black"/>
<path d="M5.97984 11.7909H14.8218C14.9962 11.7909 15.1376 11.6612 15.1376 11.5009C15.1376 11.3407 14.9963 11.2109 14.8218 11.2109H5.97984C5.80543 11.2109 5.66406 11.3407 5.66406 11.5009C5.66406 11.6611 5.80547 11.7909 5.97984 11.7909Z" fill="black"/>
<path d="M2.60875 11.2109C2.43434 11.2109 2.29297 11.3407 2.29297 11.5009C2.29297 11.6612 2.43438 11.7909 2.60875 11.7909H4.71399C4.8884 11.7909 5.02977 11.6612 5.02977 11.5009C5.02977 11.3407 4.88836 11.2109 4.71399 11.2109H2.60875Z" fill="black"/>
<path d="M2.60875 8.69719H6.81919C6.9936 8.69719 7.13497 8.5674 7.13497 8.40719C7.13497 8.24698 6.99356 8.11719 6.81919 8.11719H2.60875C2.43434 8.11719 2.29297 8.24698 2.29297 8.40719C2.29297 8.5674 2.43434 8.69719 2.60875 8.69719Z" fill="black"/>
<path d="M14.8206 5.02734H9.34703C9.17262 5.02734 9.03125 5.15717 9.03125 5.31735C9.03125 5.47756 9.17266 5.60735 9.34703 5.60735H14.8206C14.995 5.60735 15.1364 5.47756 15.1364 5.31735C15.1364 5.15717 14.995 5.02734 14.8206 5.02734Z" fill="black"/>
<path d="M14.8206 3.48047H9.34703C9.17262 3.48047 9.03125 3.6103 9.03125 3.77047C9.03125 3.93065 9.17266 4.06048 9.34703 4.06048H14.8206C14.995 4.06048 15.1364 3.93065 15.1364 3.77047C15.1364 3.6103 14.995 3.48047 14.8206 3.48047Z" fill="black"/>
<path d="M14.8206 1.93359H9.34703C9.17262 1.93359 9.03125 2.06342 9.03125 2.2236C9.03125 2.38377 9.17266 2.5136 9.34703 2.5136H14.8206C14.995 2.5136 15.1364 2.38377 15.1364 2.2236C15.1364 2.06342 14.995 1.93359 14.8206 1.93359Z" fill="black"/>
<path d="M14.8206 6.57422H9.34703C9.17262 6.57422 9.03125 6.70405 9.03125 6.86422C9.03125 7.02444 9.17266 7.15423 9.34703 7.15423H14.8206C14.995 7.15423 15.1364 7.02444 15.1364 6.86422C15.1364 6.70405 14.995 6.57422 14.8206 6.57422Z" fill="black"/>
<path d="M14.8203 9.66797H13.1361C12.9617 9.66797 12.8203 9.79776 12.8203 9.95797C12.8203 10.1182 12.9616 10.248 13.1361 10.248H14.8203C14.9947 10.248 15.1361 10.1182 15.1361 9.95797C15.1361 9.79776 14.9947 9.66797 14.8203 9.66797Z" fill="black"/>
<path d="M14.822 8.11719H8.08531C7.9109 8.11719 7.76953 8.24698 7.76953 8.40719C7.76953 8.5674 7.91094 8.69719 8.08531 8.69719H14.822C14.9965 8.69719 15.1378 8.5674 15.1378 8.40719C15.1378 8.24698 14.9965 8.11719 14.822 8.11719Z" fill="black"/>
</svg>
