<svg width="21" height="20" viewBox="0 0 21 20" fill="none" xmlns="http://www.w3.org/2000/svg">
<g clip-path="url(#clip0_2553_60705)">
<path d="M10.3735 19.5984C15.641 19.5984 19.9111 15.3004 19.9111 9.99844C19.9111 4.6965 15.641 0.398438 10.3735 0.398438C5.10607 0.398438 0.835938 4.6965 0.835938 9.99844C0.835938 15.3004 5.10607 19.5984 10.3735 19.5984Z" stroke="black" stroke-miterlimit="10" strokeLinecap="round"/>
<path d="M9.78912 12.1635V11.5755C9.78912 11.0011 9.91708 10.7003 10.2163 10.2839L11.1717 8.96391C11.67 8.27551 11.8409 7.94551 11.8409 7.45751C11.8409 6.63991 11.271 6.12351 10.4583 6.12351C9.66036 6.12351 9.14732 6.61111 8.97644 7.48631C8.96213 7.57231 8.9053 7.61551 8.81946 7.60111L7.92174 7.44311C7.8359 7.42871 7.79337 7.37151 7.80728 7.28511C8.02148 5.90791 9.00505 5.00391 10.4874 5.00391C12.0261 5.00391 13.0665 6.02231 13.0665 7.44271C13.0665 8.13151 12.8249 8.63351 12.34 9.30791L11.3851 10.6279C11.1001 11.0151 11.0143 11.2159 11.0143 11.7035V12.1623C11.0143 12.2483 10.9575 12.3055 10.872 12.3055H9.93139C9.84595 12.3071 9.78912 12.2495 9.78912 12.1635ZM9.71798 13.5411C9.71798 13.4551 9.77481 13.3979 9.86065 13.3979H10.944C11.0294 13.3979 11.0862 13.4555 11.0862 13.5411V14.7747C11.0862 14.8611 11.029 14.9179 10.944 14.9179H9.86065C9.77441 14.9179 9.71798 14.8607 9.71798 14.7747V13.5411Z" fill="black"/>
</g>
<defs>
<clipPath id="clip0_2553_60705">
<rect width="19.87" height="20" fill="white" transform="translate(0.4375)"/>
</clipPath>
</defs>
</svg>
