<svg width="19" height="19" viewBox="0 0 19 19" fill="none" xmlns="http://www.w3.org/2000/svg">
<path d="M14.4471 18.5274C14.1213 18.5274 13.3441 18.5229 12.3468 18.5173C9.8825 18.5033 6.06706 18.4809 4.39228 18.5005C2.53103 18.5005 0.00737964 17.2389 0.000660348 14.8709C-0.0026993 13.6346 0.0073798 12.5657 0.0168988 11.5365C0.0320172 9.8981 0.0465756 8.35043 0.00346012 6.38055C-0.0687723 3.08698 1.37868 1.10983 3.97456 0.955845C5.39345 0.871294 8.03749 0.8125 10.4044 0.8125C12.7371 0.8125 15.6857 0.865135 16.4876 1.11711C17.9283 1.56954 18.748 3.12786 18.8998 4.38436C19.0734 5.82173 18.9793 10.7498 18.9289 13.3977C18.9149 14.1425 18.9037 14.7013 18.9037 14.9393C18.9043 15.9488 18.4546 16.8671 17.6388 17.5245C16.8246 18.1807 15.7204 18.5274 14.4471 18.5274ZM6.19137 17.3739C8.06997 17.3739 10.5662 17.3879 12.353 17.398C13.3469 17.4036 14.1218 17.408 14.4466 17.408C15.4472 17.408 16.3313 17.1398 16.9355 16.6532C17.4899 16.2064 17.7833 15.614 17.7833 14.9404C17.7833 14.6985 17.7945 14.1324 17.8085 13.377C17.8549 10.9435 17.9518 5.87941 17.7872 4.51931C17.6741 3.57973 17.0755 2.47664 16.1516 2.1866C15.7619 2.06397 14.0473 1.9335 10.4038 1.9335C8.05653 1.9335 5.43937 1.99174 4.04007 2.07461C1.5545 2.22243 1.08135 4.48515 1.12278 6.35704C1.16646 8.34427 1.1519 9.90034 1.13622 11.5482C1.1267 12.5735 1.11662 13.6374 1.11998 14.8687C1.12446 16.4869 3.03274 17.3823 4.34972 17.3823C4.84527 17.3761 5.47296 17.3739 6.19137 17.3739Z" fill="black"/>
<path d="M13.925 4.95628C13.8371 4.8685 13.718 4.81919 13.5938 4.81919C13.4696 4.81919 13.3504 4.8685 13.2625 4.95628L9.53128 8.70003L5.80159 4.95003C5.71353 4.86197 5.5941 4.8125 5.46956 4.8125C5.34503 4.8125 5.22559 4.86197 5.13753 4.95003C5.04947 5.03809 5 5.15753 5 5.28206C5 5.4066 5.04947 5.52603 5.13753 5.61409L8.86878 9.36409L5.13753 13.1141C5.04968 13.2022 5.00041 13.3215 5.00055 13.4459C5.0007 13.5703 5.05025 13.6895 5.13831 13.7774C5.22637 13.8652 5.34573 13.9145 5.47012 13.9144C5.5945 13.9142 5.71374 13.8647 5.80159 13.7766L9.53128 10.0282L13.2625 13.7782C13.3506 13.8662 13.47 13.9157 13.5946 13.9157C13.7191 13.9157 13.8385 13.8662 13.9266 13.7782C14.0147 13.6901 14.0641 13.5707 14.0641 13.4461C14.0641 13.3216 14.0147 13.2022 13.9266 13.1141L10.1938 9.36409L13.9266 5.61409C14.0127 5.5262 14.0609 5.40794 14.0606 5.28487C14.0603 5.16179 14.0116 5.04377 13.925 4.95628Z" fill="black"/>
</svg>
