<svg width="21" height="20" viewBox="0 0 21 20" fill="none" xmlns="http://www.w3.org/2000/svg">
<path fillRule="evenodd" clipRule="evenodd" d="M13.4427 19.3724L10.6418 17.7143C10.3514 17.5457 9.78934 17.5457 9.50831 17.7143L6.698 19.3724C5.03992 20.356 4.06568 19.9625 3.6254 19.644C3.19449 19.3255 2.52002 18.5105 2.9603 16.637L3.6254 13.7611C3.70034 13.4614 3.55046 12.9461 3.32564 12.7213L1.00245 10.3981C-0.15914 9.23653 -0.0654634 8.24356 0.0937872 7.75644C0.253038 7.26932 0.758892 6.40749 2.37013 6.13583L5.35842 5.63934C5.63945 5.59251 6.04226 5.29274 6.16404 5.03981L7.82212 1.73302C8.57154 0.224824 9.55515 0 10.0704 0C10.5856 0 11.5692 0.224824 12.3186 1.73302L13.9673 5.03044C14.0985 5.28337 14.5013 5.58314 14.7823 5.62998L17.7706 6.12646C19.3912 6.39813 19.8971 7.25995 20.0469 7.74707C20.1968 8.23419 20.2905 9.22717 19.1383 10.3888L16.8151 12.7213C16.5903 12.9461 16.4498 13.452 16.5153 13.7611L17.1804 16.637C17.6114 18.5105 16.9462 19.3255 16.5153 19.644C16.2811 19.8126 15.9064 20 15.3725 20C14.876 20 14.239 19.8407 13.4427 19.3724ZM11.3537 16.5059L14.1547 18.1639C14.9697 18.6511 15.4849 18.6511 15.6816 18.5105C15.8783 18.37 16.0188 17.8735 15.8128 16.9555L15.1477 14.0796C14.9697 13.3021 15.2601 12.2998 15.8221 11.7283L18.1453 9.40515C18.6043 8.94614 18.8104 8.49649 18.7167 8.18735C18.6137 7.87822 18.1828 7.62529 17.5458 7.52225L14.5575 7.02576C13.8362 6.90398 13.0493 6.32318 12.7214 5.66745L11.0727 2.37002C10.7729 1.77049 10.3982 1.41452 10.0704 1.41452C9.7425 1.41452 9.36779 1.77049 9.07739 2.37002L7.41931 5.66745C7.09144 6.32318 6.30456 6.90398 5.58325 7.02576L2.60433 7.52225C1.96732 7.62529 1.53641 7.87822 1.43337 8.18735C1.33032 8.49649 1.54578 8.9555 2.00479 9.40515L4.32798 11.7283C4.89004 12.2904 5.18044 13.3021 5.00245 14.0796L4.33735 16.9555C4.12189 17.8829 4.27177 18.37 4.46849 18.5105C4.66522 18.6511 5.17107 18.6417 5.99543 18.1639L8.79636 16.5059C9.15234 16.2904 9.61135 16.178 10.0704 16.178C10.5294 16.178 10.9884 16.2904 11.3537 16.5059Z" fill="black"/>
</svg>
