<svg width="173" height="32" viewBox="0 0 173 32" fill="none" xmlns="http://www.w3.org/2000/svg">
<path d="M0 31.2V6.08782H4.94681V9.1555H5.17069C5.39049 8.66407 5.70851 8.16466 6.12463 7.65727C6.54867 7.14202 7.09835 6.71408 7.7737 6.3732C8.45682 6.02433 9.30477 5.84997 10.3178 5.84997C11.637 5.84997 12.8542 6.19883 13.9691 6.89631C15.0841 7.58593 15.9758 8.6284 16.643 10.0235C17.3101 11.4107 17.6444 13.1507 17.6444 15.2433C17.6444 17.2805 17.3178 19.0006 16.6659 20.4037C16.0217 21.7988 15.1428 22.857 14.0278 23.5784C12.9205 24.2917 11.6801 24.6484 10.3059 24.6484C9.33232 24.6484 8.50389 24.4859 7.82077 24.161C7.14543 23.8359 6.59192 23.4277 6.15997 22.9363C5.72816 22.4369 5.3984 21.9335 5.17069 21.4262H5.01748V31.2H0ZM4.91147 15.2195C4.91147 16.3055 5.06072 17.2527 5.3591 18.0613C5.65748 18.8698 6.0893 19.5 6.65468 19.9518C7.22006 20.3957 7.90714 20.6177 8.71591 20.6177C9.53247 20.6177 10.2235 20.3917 10.7889 19.94C11.3543 19.4802 11.7821 18.846 12.0727 18.0375C12.3711 17.221 12.5202 16.2817 12.5202 15.2195C12.5202 14.1652 12.3751 13.2378 12.0845 12.4372C11.794 11.6366 11.366 11.0103 10.8006 10.5586C10.2352 10.1067 9.54038 9.88079 8.71591 9.88079C7.89923 9.88079 7.20832 10.0988 6.64295 10.5347C6.08548 10.9707 5.65748 11.5891 5.3591 12.3896C5.06072 13.1902 4.91147 14.1335 4.91147 15.2195ZM24.3059 24.3512V6.08782H29.1701V9.27436H29.3589C29.688 8.14084 30.2416 7.28471 31.0198 6.7061C31.7967 6.1195 32.6922 5.82627 33.7051 5.82627C33.9564 5.82627 34.2268 5.84211 34.5177 5.87379C34.8073 5.90547 35.0624 5.94913 35.2831 6.00463V10.4991C35.0471 10.4277 34.7218 10.3644 34.3059 10.3089C33.8888 10.2534 33.5086 10.2255 33.1629 10.2255C32.4243 10.2255 31.7648 10.3881 31.1843 10.7131C30.6103 11.0302 30.1549 11.4741 29.8181 12.0448C29.4877 12.6156 29.3231 13.2735 29.3231 14.0186V24.3512H24.3059ZM48.596 24.7079C46.7361 24.7079 45.1338 24.3274 43.7905 23.5664C42.4562 22.7976 41.428 21.7116 40.7047 20.3085C39.9827 18.8976 39.6217 17.229 39.6217 15.3027C39.6217 13.4241 39.9827 11.7753 40.7047 10.3564C41.428 8.93748 42.4447 7.83164 43.7561 7.03899C45.0751 6.24635 46.6213 5.84997 48.3957 5.84997C49.5898 5.84997 50.7009 6.04417 51.7291 6.43257C52.7662 6.81311 53.6694 7.38786 54.4386 8.15668C55.2155 8.92563 55.8202 9.89264 56.2526 11.058C56.6838 12.2152 56.9006 13.5707 56.9006 15.1243V16.5156H41.6232V13.3765H52.1768C52.1768 12.6473 52.0199 12.0012 51.7061 11.4384C51.3923 10.8756 50.956 10.4357 50.3985 10.1186C49.8487 9.79361 49.2083 9.63109 48.4786 9.63109C47.7171 9.63109 47.0422 9.80945 46.4529 10.1662C45.8712 10.5149 45.4158 10.9866 45.0866 11.5811C44.7562 12.1677 44.5878 12.8216 44.5802 13.5429V16.5274C44.5802 17.4311 44.7448 18.2119 45.0752 18.8698C45.4119 19.5277 45.8878 20.035 46.5001 20.3917C47.1124 20.7484 47.8383 20.9268 48.6789 20.9268C49.2364 20.9268 49.7467 20.8476 50.2097 20.6889C50.6728 20.5304 51.0695 20.2927 51.3999 19.9756C51.7291 19.6586 51.9804 19.2702 52.1539 18.8103L56.7935 19.1195C56.5588 20.2452 56.0753 21.228 55.3456 22.0683C54.6236 22.9006 53.6885 23.5506 52.5417 24.0183C51.4038 24.478 50.0885 24.7079 48.596 24.7079ZM78.5437 11.2957L73.95 11.5811C73.8722 11.1847 73.7025 10.8281 73.4436 10.5109C73.1846 10.186 72.8427 9.92831 72.4192 9.7381C72.0033 9.53991 71.5046 9.44088 70.9228 9.44088C70.146 9.44088 69.4903 9.60726 68.9558 9.94029C68.4225 10.2652 68.1559 10.7013 68.1559 11.2482C68.1559 11.6841 68.3281 12.0527 68.6738 12.3539C69.0195 12.6552 69.6114 12.897 70.4521 13.0793L73.7268 13.7451C75.4859 14.1097 76.796 14.6963 77.6609 15.5049C78.5246 16.3134 78.9558 17.3756 78.9558 18.6914C78.9558 19.8884 78.6062 20.9386 77.9072 21.8423C77.217 22.7461 76.2666 23.4515 75.0573 23.9588C73.8556 24.4582 72.4702 24.7079 70.8999 24.7079C68.5042 24.7079 66.597 24.2045 65.1759 23.1978C63.7625 22.1832 62.9333 20.8039 62.6896 19.06L67.6252 18.7984C67.7745 19.5357 68.1355 20.0985 68.7096 20.4869C69.2823 20.8673 70.0158 21.0576 70.9114 21.0576C71.7903 21.0576 72.497 20.8871 73.0315 20.5464C73.5737 20.1975 73.848 19.7496 73.8556 19.2027C73.848 18.7429 73.6553 18.3664 73.279 18.0732C72.9014 17.7719 72.321 17.5421 71.5352 17.3835L68.4021 16.7533C66.6366 16.3967 65.3201 15.7783 64.4565 14.8985C63.6005 14.0186 63.1731 12.897 63.1731 11.5336C63.1731 10.3604 63.487 9.3497 64.1159 8.50155C64.7511 7.65341 65.6428 6.99933 66.7897 6.53958C67.9429 6.07984 69.2938 5.84997 70.8412 5.84997C73.1259 5.84997 74.9234 6.33753 76.2348 7.31252C77.5538 8.28752 78.3243 9.61524 78.5437 11.2957ZM100.485 11.2957L95.8916 11.5811C95.8125 11.1847 95.6441 10.8281 95.3852 10.5109C95.1262 10.186 94.7843 9.92831 94.3595 9.7381C93.9436 9.53991 93.4449 9.44088 92.8644 9.44088C92.0875 9.44088 91.4318 9.60726 90.8973 9.94029C90.3628 10.2652 90.0962 10.7013 90.0962 11.2482C90.0962 11.6841 90.2697 12.0527 90.6141 12.3539C90.9598 12.6552 91.553 12.897 92.3937 13.0793L95.6671 13.7451C97.4262 14.1097 98.7376 14.6963 99.6012 15.5049C100.465 16.3134 100.897 17.3756 100.897 18.6914C100.897 19.8884 100.548 20.9386 99.8487 21.8423C99.1573 22.7461 98.2082 23.4515 96.9989 23.9588C95.7972 24.4582 94.4118 24.7079 92.8402 24.7079C90.4457 24.7079 88.5373 24.2045 87.1162 23.1978C85.7028 22.1832 84.8749 20.8039 84.6312 19.06L89.5668 18.7984C89.7161 19.5357 90.0771 20.0985 90.6499 20.4869C91.2226 20.8673 91.9574 21.0576 92.8529 21.0576C93.7319 21.0576 94.4386 20.8871 94.9731 20.5464C95.514 20.1975 95.7896 19.7496 95.7972 19.2027C95.7896 18.7429 95.5969 18.3664 95.2193 18.0732C94.843 17.7719 94.2626 17.5421 93.4767 17.3835L90.3437 16.7533C88.5769 16.3967 87.2617 15.7783 86.398 14.8985C85.5421 14.0186 85.1147 12.897 85.1147 11.5336C85.1147 10.3604 85.4285 9.3497 86.0562 8.50155C86.6927 7.65341 87.5831 6.99933 88.73 6.53958C89.8845 6.07984 91.2354 5.84997 92.7815 5.84997C95.0662 5.84997 96.8649 6.33753 98.1763 7.31252C99.4954 8.28752 100.265 9.61524 100.485 11.2957ZM112.391 13.7926V24.3512H107.374V0H112.25V9.31004H112.461C112.87 8.23202 113.529 7.38786 114.44 6.77744C115.351 6.15917 116.494 5.84997 117.868 5.84997C119.124 5.84997 120.22 6.12749 121.154 6.68227C122.096 7.2292 122.826 8.01798 123.344 9.04848C123.871 10.071 124.13 11.2957 124.122 12.7226V24.3512H119.105V13.6262C119.113 12.5006 118.829 11.6247 118.257 10.9985C117.692 10.3722 116.898 10.0592 115.878 10.0592C115.194 10.0592 114.589 10.2058 114.064 10.4991C113.546 10.7924 113.137 11.2204 112.839 11.7833C112.548 12.3381 112.399 13.008 112.391 13.7926ZM139.562 24.7079C137.732 24.7079 136.149 24.3155 134.815 23.5307C133.488 22.7381 132.463 21.6363 131.741 20.2253C131.019 18.8064 130.658 17.1615 130.658 15.2909C130.658 13.4042 131.019 11.7554 131.741 10.3445C132.463 8.92563 133.488 7.82378 134.815 7.03899C136.149 6.24635 137.732 5.84997 139.562 5.84997C141.391 5.84997 142.969 6.24635 144.296 7.03899C145.631 7.82378 146.66 8.92563 147.382 10.3445C148.105 11.7554 148.466 13.4042 148.466 15.2909C148.466 17.1615 148.105 18.8064 147.382 20.2253C146.66 21.6363 145.631 22.7381 144.296 23.5307C142.969 24.3155 141.391 24.7079 139.562 24.7079ZM139.585 20.7841C140.418 20.7841 141.112 20.5464 141.67 20.0707C142.228 19.5872 142.648 18.9293 142.93 18.097C143.22 17.2647 143.366 16.3174 143.366 15.2552C143.366 14.193 143.22 13.2457 142.93 12.4134C142.648 11.5811 142.228 10.9231 141.67 10.4396C141.112 9.95613 140.418 9.71428 139.585 9.71428C138.745 9.71428 138.039 9.95613 137.465 10.4396C136.899 10.9231 136.472 11.5811 136.181 12.4134C135.898 13.2457 135.758 14.193 135.758 15.2552C135.758 16.3174 135.898 17.2647 136.181 18.097C136.472 18.9293 136.899 19.5872 137.465 20.0707C138.039 20.5464 138.745 20.7841 139.585 20.7841ZM155.045 31.2V6.08782H159.992V9.1555H160.216C160.436 8.66407 160.753 8.16466 161.17 7.65727C161.594 7.14202 162.144 6.71408 162.819 6.3732C163.502 6.02433 164.349 5.84997 165.363 5.84997C166.683 5.84997 167.9 6.19883 169.014 6.89631C170.129 7.58593 171.02 8.6284 171.688 10.0235C172.355 11.4107 172.688 13.1507 172.688 15.2433C172.688 17.2805 172.363 19.0006 171.711 20.4037C171.067 21.7988 170.188 22.857 169.073 23.5784C167.966 24.2917 166.725 24.6484 165.351 24.6484C164.377 24.6484 163.549 24.4859 162.866 24.161C162.191 23.8359 161.637 23.4277 161.205 22.9363C160.774 22.4369 160.443 21.9335 160.216 21.4262H160.063V31.2H155.045ZM159.957 15.2195C159.957 16.3055 160.106 17.2527 160.404 18.0613C160.702 18.8698 161.135 19.5 161.7 19.9518C162.265 20.3957 162.952 20.6177 163.761 20.6177C164.578 20.6177 165.269 20.3917 165.834 19.94C166.399 19.4802 166.827 18.846 167.118 18.0375C167.416 17.221 167.565 16.2817 167.565 15.2195C167.565 14.1652 167.42 13.2378 167.129 12.4372C166.839 11.6366 166.411 11.0103 165.846 10.5586C165.281 10.1067 164.585 9.88079 163.761 9.88079C162.945 9.88079 162.253 10.0988 161.688 10.5347C161.131 10.9707 160.702 11.5891 160.404 12.3896C160.106 13.1902 159.957 14.1335 159.957 15.2195Z" fill="white"/>
</svg>
