<svg width="74" height="49" viewBox="0 0 74 49" fill="none" xmlns="http://www.w3.org/2000/svg">
<path d="M30.1545 2.0047L24.3236 4.32592L29.2971 6.57785L25.5584 9.34948L37.9748 10.9778L46.9612 8.17147L46.1381 12.9872L42.125 15.9667L36.0541 18.3572L28.4396 18.5997L19.0415 16.5556L14.4797 13.0911L13.4506 17.2485L16.6749 21.7524L14.4797 25.0783L13.8965 30.7254L7.13959 34.2939L4.91013 40.3567L1 47.7015L3.67536 48.3944L6.6594 46.6968L10.5352 39.0056L18.0811 38.2088L21.854 35.7144L24.7009 31.7994L32.727 32.6309L42.468 33.6702L59.755 31.7994L65.2771 29.9632L67.9868 32.1805H70.765L72.7544 30.275L67.6781 26.2216L60.8868 26.9491L55.0559 26.0137L55.296 22.9995L54.8844 18.5997L62.0187 15.1698L63.2192 12.4329L60.8868 9.00301L56.325 5.88495L51.5574 5.36527L45.4177 2.0047L37.9748 1L30.1545 2.0047ZM30.1545 2.0047L36.0541 4.32592Z" fill="white"/>
<path d="M30.1545 2.0047L24.3236 4.32592L29.2971 6.57785L25.5584 9.34948L37.9748 10.9778L46.9612 8.17147L46.1381 12.9872L42.125 15.9667L36.0541 18.3572L28.4396 18.5997L19.0415 16.5556L14.4797 13.0911L13.4506 17.2485L16.6749 21.7524L14.4797 25.0783L13.8965 30.7254L7.13959 34.2939L4.91013 40.3567L1 47.7015L3.67536 48.3944L6.6594 46.6968L10.5352 39.0056L18.0811 38.2088L21.854 35.7144L24.7009 31.7994L32.727 32.6309L42.468 33.6702L59.755 31.7994L65.2771 29.9632L67.9868 32.1805H70.765L72.7544 30.275L67.6781 26.2216L60.8868 26.9491L55.0559 26.0137L55.296 22.9995L54.8844 18.5997L62.0187 15.1698L63.2192 12.4329L60.8868 9.00301L56.325 5.88495L51.5574 5.36527L45.4177 2.0047L37.9748 1L30.1545 2.0047ZM30.1545 2.0047L36.0541 4.32592" stroke="black" strokeWidth="0.615926"/>
<path d="M6.62448 46.591L4.25781 41.8792L10.5346 39.1769L7.44766 34.4998L16.0226 33.3218L13.7587 30.5156" stroke="black" strokeWidth="0.615926"/>
<path d="M16.2305 33.4961L18.0483 38.1039" stroke="black" strokeWidth="0.615926"/>
<path d="M19.108 16.7617L20.137 26.0812L16.707 21.8199" stroke="black" strokeWidth="0.615926"/>
<path d="M20.2422 26.1875L24.5297 31.6615" stroke="black" strokeWidth="0.615926"/>
<path d="M20.2422 26.1875L16.332 33.6016" stroke="black" strokeWidth="0.615926"/>
<path d="M20.1406 26.082L21.7527 35.7134" stroke="black" strokeWidth="0.615926"/>
<path d="M20.207 26.1178L28.5418 19.0156V26.1178L24.7689 31.5225" stroke="black" strokeWidth="0.615926"/>
<path d="M28.75 26.0158L46.277 24.3875L54.7146 18.8789" stroke="black" strokeWidth="0.615926"/>
<path d="M46.4141 24.2812L54.9546 26.1174" stroke="black" strokeWidth="0.615926"/>
<path d="M42.1953 15.8984L46.517 24.2826" stroke="black" strokeWidth="0.615926"/>
<path d="M36.0532 18.3203L37.3909 24.7297L28.6445 18.9786" stroke="black" strokeWidth="0.615926"/>
<path d="M37.8717 24.9727L33.207 32.6639" stroke="black" strokeWidth="0.615926"/>
<path d="M46.5159 24.3867L42.7773 33.7062" stroke="black" strokeWidth="0.615926"/>
<path d="M46.6172 24.3867L54.3346 31.9046L55.0549 26.1189" stroke="black" strokeWidth="0.615926"/>
<path d="M61.1963 26.9492L59.8242 31.6609" stroke="black" strokeWidth="0.615926"/>
<path d="M67.7107 26.1172L65.5156 30.032" stroke="black" strokeWidth="0.615926"/>
<path d="M47.0625 8.23986L51.5558 5.43359" stroke="black" strokeWidth="0.615926"/>
<path d="M29.3984 6.54281L35.9496 4.01372L43.1525 3.35547H45.7935L51.1443 5.2956" stroke="black" strokeWidth="0.615926"/>
<path d="M47.2351 8.17079L35.8477 4.39453L37.9743 10.8732" stroke="black" strokeWidth="0.615926"/>
<path d="M45.9648 12.9883L51.3841 14.5472L54.8484 18.4968" stroke="black" strokeWidth="0.615926"/>
<path d="M46.8906 8.20573L53.8534 8.53462M53.8534 8.53462L56.4258 8.65613M53.8534 8.53462L53.3389 10.0419M56.4258 8.65613L55.5684 10.6309M56.4258 8.65613L56.6316 6.26562M55.5684 10.6309L53.3389 10.0419M55.5684 10.6309L57.4205 12.8829M53.3389 10.0419L51.5897 14.2686L57.4205 12.8829M57.4205 12.8829L62.0509 14.8922M57.4205 12.8829L61.1249 9.34906" stroke="black" strokeWidth="0.615926"/>
</svg>
