<svg width="285" height="200" viewBox="0 0 285 200" fill="none" xmlns="http://www.w3.org/2000/svg">
<path d="M-26.4346 63.5734L-22.3011 61.1869L-20.7484 63.5802C-20.7143 62.3073 -20.3646 61.137 -19.6993 60.0693C-19.0127 58.9893 -18.1033 58.1224 -16.9711 57.4688C-14.664 56.1368 -12.2892 55.9334 -9.84658 56.8588C-7.38263 57.7718 -5.45999 59.4246 -4.07866 61.8171C-2.68499 64.231 -2.21166 66.7775 -2.65867 69.4566C-3.09664 72.102 -4.5119 74.1154 -6.90444 75.4967C-9.01927 76.7177 -11.1418 76.8893 -13.2721 76.0115L-8.59164 84.1184L-13.0776 86.7084L-26.4346 63.5734ZM-15.6975 62.1167C-16.9792 62.8567 -17.7316 63.9462 -17.9547 65.3851C-18.1687 66.7904 -17.8934 68.1553 -17.1287 69.4797C-16.3764 70.7828 -15.332 71.7037 -13.9957 72.2423C-12.638 72.7687 -11.3182 72.6618 -10.0365 71.9218C-8.7548 71.1818 -8.00692 70.1092 -7.79289 68.7039C-7.56983 67.2649 -7.84064 65.8832 -8.6053 64.5587C-9.36997 63.2343 -10.4143 62.3134 -11.7383 61.7961C-13.0747 61.2575 -14.3944 61.3643 -15.6975 62.1167ZM-5.96973 51.758L-1.83619 49.3715L-0.195972 51.8424C-0.414494 49.4906 0.480257 47.735 2.48828 46.5757C2.7019 46.4523 3.0133 46.301 3.42248 46.1218C3.85633 45.9852 4.16652 45.9058 4.35306 45.8836L6.42541 50.583C6.01865 50.6185 5.48416 50.8274 4.82194 51.2097C3.51886 51.962 2.77506 52.9184 2.59053 54.0788C2.41503 55.2055 2.71579 56.4417 3.49279 57.7875L8.28429 66.0866L3.79827 68.6766L-5.96973 51.758ZM10.5526 53.4552C9.12198 50.9772 8.68686 48.4229 9.24728 45.7922C9.82906 43.1492 11.359 41.1124 13.8369 39.6817C16.3576 38.2264 18.8467 37.9002 21.304 38.7031C23.7613 39.506 25.7485 41.2212 27.2655 43.8487L27.913 44.9702L15.7687 51.9817C16.6517 53.067 17.6614 53.78 18.798 54.1206C19.9347 54.4613 21.0797 54.2986 22.2333 53.6326C23.7927 52.7323 24.6033 51.3243 24.6652 49.4088L29.4105 48.378C29.6724 50.1636 29.3114 51.8816 28.3275 53.5321C27.3649 55.1701 26.0505 56.4702 24.3842 57.4322C21.8635 58.8875 19.3043 59.2401 16.7064 58.4898C14.0962 57.7182 12.045 56.04 10.5526 53.4552ZM18.8942 42.7432C17.8801 42.4173 16.8603 42.5504 15.8349 43.1424C14.8096 43.7344 14.1631 44.5633 13.8955 45.6292C13.637 46.6615 13.7031 47.7626 14.0938 48.9327L21.5598 44.6222C20.806 43.6618 19.9174 43.0355 18.8942 42.7432ZM31.6541 46.9545L35.192 43.7583C36.5097 44.9059 37.9696 45.0172 39.5717 44.0922C40.234 43.7099 40.7306 43.238 41.0616 42.6767C41.4016 42.0816 41.3928 41.4743 41.0351 40.8548C40.4678 39.8722 39.2067 39.76 37.252 40.5183L36.2623 40.8761C34.4784 41.5357 32.8181 41.768 31.2814 41.5729C29.7536 41.3441 28.5581 40.482 27.6948 38.9867C26.6958 37.2564 26.5596 35.5406 27.2863 33.8393C28.0131 32.138 29.2736 30.7694 31.068 29.7334C32.6915 28.796 34.351 28.3649 36.0463 28.4399C37.7506 28.4813 39.2115 29.1617 40.429 30.481L36.9046 33.6267C35.624 32.5432 34.3214 32.3837 32.997 33.1484C32.4202 33.4814 31.9832 33.9331 31.6859 34.5035C31.3763 35.0525 31.3818 35.6048 31.7024 36.1602C32.1958 37.0147 33.4535 37.0718 35.4756 36.3315L36.4653 35.9738C38.2829 35.3232 39.9555 35.1123 41.4832 35.341C42.9986 35.5485 44.1942 36.4105 45.0698 37.9272C46.0935 39.7003 46.2116 41.4835 45.4241 43.2768C44.658 45.0578 43.3456 46.4848 41.4872 47.5578C39.8423 48.5075 38.1126 48.9649 36.2981 48.9302C34.4837 48.8954 32.9357 48.2369 31.6541 46.9545ZM47.394 37.8671L50.9319 34.6709C52.2495 35.8185 53.7094 35.9298 55.3116 35.0048C55.9738 34.6225 56.4704 34.1506 56.8014 33.5893C57.1414 32.9942 57.1326 32.3869 56.7749 31.7674C56.2076 30.7848 54.9466 30.6726 52.9918 31.4309L52.0021 31.7887C50.2183 32.4483 48.558 32.6806 47.0212 32.4855C45.4935 32.2567 44.2979 31.3946 43.4346 29.8993C42.4356 28.169 42.2995 26.4532 43.0262 24.7519C43.7529 23.0506 45.0135 21.682 46.8079 20.646C48.4314 19.7086 50.0908 19.2775 51.7861 19.3525C53.4905 19.3939 54.9514 20.0743 56.1688 21.3936L52.6445 24.5393C51.3638 23.4558 50.0613 23.2963 48.7368 24.061C48.1601 24.394 47.723 24.8457 47.4257 25.4161C47.1161 25.9651 47.1216 26.5174 47.4423 27.0728C47.9356 27.9273 49.1933 27.9844 51.2155 27.2441L52.2052 26.8864C54.0227 26.2358 55.6953 26.0249 57.2231 26.2536C58.7385 26.4611 59.934 27.3231 60.8097 28.8398C61.8334 30.6129 61.9514 32.3961 61.1639 34.1894C60.3978 35.9704 59.0855 37.3974 57.227 38.4704C55.5821 39.4201 53.8525 39.8775 52.038 39.8428C50.2235 39.808 48.6755 39.1495 47.394 37.8671ZM66.6012 32.4174L52.8002 8.51333L57.2862 5.92333L62.3922 14.7672C62.56 12.5911 63.7013 10.8926 65.8161 9.67155C67.8028 8.52455 69.7248 8.3263 71.5822 9.0768C73.4397 9.8273 74.9727 11.2493 76.1814 13.3428L82.0459 23.5004L77.5599 26.0904L72.0284 16.5095C71.3994 15.4201 70.6357 14.6647 69.7374 14.2434C68.8267 13.8008 67.8587 13.8755 66.8333 14.4675C65.808 15.0595 65.1783 15.8929 64.9445 16.9679C64.6983 18.0215 64.8774 19.0716 65.4817 20.1184L71.0872 29.8274L66.6012 32.4174ZM80.1018 13.3437C78.6465 10.8229 78.2693 8.22095 78.9702 5.53766C79.6802 2.82067 81.3062 0.728343 83.8483 -0.739324C86.369 -2.19466 88.9496 -2.55953 91.5902 -1.83393C94.2307 -1.10834 96.291 0.536179 97.771 3.09961C99.2387 5.64169 99.6282 8.26505 98.9396 10.9697C98.2601 13.6407 96.6279 15.7223 94.0431 17.2146C91.5224 18.67 88.9356 19.0242 86.2827 18.2772C83.6298 17.5302 81.5695 15.8857 80.1018 13.3437ZM86.1152 3.33509C84.8335 4.07509 84.0811 5.16458 83.858 6.60356C83.644 8.00885 83.9193 9.37372 84.684 10.6982C85.4363 12.0012 86.4806 12.9221 87.817 13.4608C89.1747 13.9871 90.4945 13.8802 91.7762 13.1402C93.0579 12.4002 93.8058 11.3276 94.0198 9.9223C94.2429 8.48331 93.972 7.1016 93.2074 5.77716C92.4427 4.45272 91.3984 3.53185 90.0743 3.01456C88.738 2.47591 87.4183 2.58275 86.1152 3.33509ZM95.8542 -7.03011L99.9878 -9.41661L101.54 -7.02331C101.575 -8.29623 101.924 -9.46654 102.59 -10.5342C103.276 -11.6142 104.186 -12.4811 105.318 -13.1348C107.625 -14.4668 110 -14.6701 112.442 -13.7447C114.906 -12.8317 116.829 -11.1789 118.21 -8.78641C119.604 -6.3725 120.077 -3.826 119.63 -1.1469C119.192 1.4985 117.777 3.51187 115.384 4.8932C113.27 6.1142 111.147 6.28581 109.017 5.40803L113.697 13.5149L109.211 16.1049L95.8542 -7.03011ZM106.591 -8.48685C105.31 -7.74685 104.557 -6.65735 104.334 -5.21837C104.12 -3.81308 104.395 -2.44822 105.16 -1.12378C105.912 0.179304 106.957 1.10017 108.293 1.63882C109.651 2.16514 110.971 2.05829 112.252 1.31829C113.534 0.578293 114.282 -0.49435 114.496 -1.89964C114.719 -3.33862 114.448 -4.72033 113.684 -6.04478C112.919 -7.36922 111.875 -8.29008 110.551 -8.80737C109.214 -9.34602 107.894 -9.23918 106.591 -8.48685Z" fill="#D9D9D9" fill-opacity="0.15"/>
<path d="M120.737 39.4679L124.871 37.0814L126.423 39.4747C126.458 38.2018 126.807 37.0315 127.473 35.9638C128.159 34.8838 129.069 34.017 130.201 33.3633C132.508 32.0313 134.883 31.828 137.325 32.7533C139.789 33.6663 141.712 35.3191 143.093 37.7116C144.487 40.1255 144.96 42.672 144.513 45.3511C144.075 47.9965 142.66 50.0099 140.267 51.3913C138.153 52.6123 136.03 52.7839 133.9 51.9061L138.58 60.0129L134.094 62.6029L120.737 39.4679ZM131.474 38.0112C130.193 38.7512 129.44 39.8407 129.217 41.2797C129.003 42.685 129.278 44.0498 130.043 45.3743C130.795 46.6774 131.84 47.5982 133.176 48.1369C134.534 48.6632 135.854 48.5563 137.135 47.8163C138.417 47.0763 139.165 46.0037 139.379 44.5984C139.602 43.1594 139.331 41.7777 138.567 40.4533C137.802 39.1288 136.758 38.208 135.434 37.6907C134.097 37.152 132.777 37.2589 131.474 38.0112ZM141.202 27.6525L145.336 25.266L146.976 27.7369C146.757 25.3851 147.652 23.6295 149.66 22.4702C149.874 22.3469 150.185 22.1956 150.594 22.0163C151.028 21.8797 151.338 21.8003 151.525 21.7781L153.597 26.4775C153.191 26.513 152.656 26.7219 151.994 27.1042C150.691 27.8565 149.947 28.8129 149.762 29.9733C149.587 31.1 149.888 32.3363 150.665 33.6821L155.456 41.9812L150.97 44.5712L141.202 27.6525ZM157.725 29.3497C156.294 26.8717 155.859 24.3174 156.419 21.6867C157.001 19.0438 158.531 17.0069 161.009 15.5763C163.53 14.1209 166.019 13.7947 168.476 14.5976C170.933 15.4005 172.92 17.1157 174.437 19.7432L175.085 20.8647L162.941 27.8762C163.824 28.9615 164.833 29.6745 165.97 30.0152C167.107 30.3558 168.252 30.1932 169.405 29.5272C170.965 28.6268 171.775 27.2189 171.837 25.3033L176.582 24.2725C176.844 26.0582 176.483 27.7762 175.499 29.4266C174.537 31.0647 173.222 32.3647 171.556 33.3267C169.035 34.7821 166.476 35.1346 163.878 34.3843C161.268 33.6127 159.217 31.9345 157.725 29.3497ZM166.066 18.6378C165.052 18.3119 164.032 18.4449 163.007 19.0369C161.981 19.6289 161.335 20.4579 161.067 21.5238C160.809 22.556 160.875 23.6571 161.266 24.8272L168.732 20.5167C167.978 19.5563 167.089 18.93 166.066 18.6378ZM178.826 22.849L182.364 19.6529C183.682 20.8005 185.141 20.9118 186.744 19.9868C187.406 19.6044 187.902 19.1326 188.233 18.5712C188.573 17.9761 188.565 17.3688 188.207 16.7493C187.64 15.7667 186.379 15.6545 184.424 16.4128L183.434 16.7706C181.65 17.4302 179.99 17.6625 178.453 17.4674C176.926 17.2386 175.73 16.3766 174.867 14.8812C173.868 13.1509 173.732 11.4351 174.458 9.73382C175.185 8.03253 176.445 6.66389 178.24 5.62789C179.863 4.69055 181.523 4.25942 183.218 4.33448C184.923 4.37584 186.383 5.05621 187.601 6.37557L184.077 9.52119C182.796 8.43769 181.493 8.27827 180.169 9.04294C179.592 9.37594 179.155 9.82764 178.858 10.398C178.548 10.9471 178.554 11.4993 178.874 12.0547C179.368 12.9092 180.625 12.9663 182.648 12.2261L183.637 11.8683C185.455 11.2177 187.127 11.0068 188.655 11.2356C190.171 11.443 191.366 12.305 192.242 13.8217C193.265 15.5948 193.383 17.378 192.596 19.1713C191.83 20.9523 190.518 22.3793 188.659 23.4523C187.014 24.402 185.284 24.8595 183.47 24.8247C181.656 24.79 180.108 24.1314 178.826 22.849ZM194.566 13.7616L198.104 10.5655C199.421 11.7131 200.881 11.8244 202.483 10.8994C203.146 10.517 203.642 10.0452 203.973 9.48379C204.313 8.88873 204.304 8.28144 203.947 7.66195C203.379 6.6793 202.118 6.56712 200.164 7.32541L199.174 7.6832C197.39 8.34283 195.73 8.5751 194.193 8.38001C192.665 8.15123 191.47 7.28917 190.606 5.79383C189.607 4.06351 189.471 2.34771 190.198 0.646418C190.925 -1.05487 192.185 -2.42351 193.98 -3.45952C195.603 -4.39685 197.263 -4.82799 198.958 -4.75293C200.662 -4.71156 202.123 -4.0312 203.341 -2.71183L199.816 0.433785C198.536 -0.649713 197.233 -0.809129 195.909 -0.0444623C195.332 0.288538 194.895 0.740238 194.598 1.31064C194.288 1.85968 194.293 2.4119 194.614 2.96731C195.107 3.82179 196.365 3.87891 198.387 3.13867L199.377 2.78089C201.195 2.13029 202.867 1.91938 204.395 2.14816C205.91 2.35559 207.106 3.21765 207.982 4.73435C209.005 6.50739 209.123 8.29058 208.336 10.0839C207.57 11.8649 206.257 13.2919 204.399 14.3649C202.754 15.3146 201.024 15.7721 199.21 15.7373C197.395 15.7026 195.847 15.044 194.566 13.7616ZM213.773 8.3119L199.972 -15.5921L204.458 -18.1821L209.564 -9.33828C209.732 -11.5144 210.873 -13.2129 212.988 -14.4339C214.975 -15.5809 216.897 -15.7792 218.754 -15.0287C220.612 -14.2782 222.145 -12.8562 223.353 -10.7627L229.218 -0.605101L224.732 1.9849L219.2 -7.59594C218.571 -8.6854 217.808 -9.44077 216.909 -9.86205C215.999 -10.3047 215.031 -10.23 214.005 -9.63801C212.98 -9.04601 212.35 -8.21253 212.116 -7.13759C211.87 -6.08401 212.049 -5.03385 212.654 -3.98711L218.259 5.7219L213.773 8.3119ZM227.274 -10.7618C225.818 -13.2825 225.441 -15.8845 226.142 -18.5678C226.852 -21.2848 228.478 -23.3771 231.02 -24.8448C233.541 -26.3001 236.121 -26.665 238.762 -25.9394C241.403 -25.2138 243.463 -23.5693 244.943 -21.0059C246.411 -18.4638 246.8 -15.8404 246.112 -13.1358C245.432 -10.4648 243.8 -8.38316 241.215 -6.89083C238.694 -5.4355 236.107 -5.08131 233.455 -5.82827C230.802 -6.57522 228.741 -8.21974 227.274 -10.7618ZM233.287 -20.7704C232.005 -20.0304 231.253 -18.9409 231.03 -17.5019C230.816 -16.0966 231.091 -14.7318 231.856 -13.4073C232.608 -12.1042 233.653 -11.1834 234.989 -10.6447C236.347 -10.1184 237.666 -10.2252 238.948 -10.9652C240.23 -11.7052 240.978 -12.7779 241.192 -14.1832C241.415 -15.6222 241.144 -17.0039 240.379 -18.3283C239.615 -19.6528 238.57 -20.5736 237.246 -21.0909C235.91 -21.6296 234.59 -21.5227 233.287 -20.7704ZM243.026 -31.1356L247.16 -33.5221L248.712 -31.1288C248.746 -32.4017 249.096 -33.572 249.761 -34.6397C250.448 -35.7197 251.357 -36.5866 252.49 -37.2402C254.797 -38.5722 257.172 -38.7756 259.614 -37.8502C262.078 -36.9372 264.001 -35.2844 265.382 -32.8919C266.776 -30.478 267.249 -27.9315 266.802 -25.2524C266.364 -22.607 264.949 -20.5936 262.556 -19.2123C260.441 -17.9913 258.319 -17.8197 256.189 -18.6974L260.869 -10.5906L256.383 -8.00058L243.026 -31.1356ZM253.763 -32.5923C252.482 -31.8523 251.729 -30.7628 251.506 -29.3238C251.292 -27.9186 251.567 -26.5537 252.332 -25.2292C253.084 -23.9262 254.129 -23.0053 255.465 -22.4666C256.823 -21.9403 258.143 -22.0472 259.424 -22.7872C260.706 -23.5272 261.454 -24.5998 261.668 -26.0051C261.891 -27.4441 261.62 -28.8258 260.855 -30.1502C260.091 -31.4747 259.046 -32.3956 257.722 -32.9128C256.386 -33.4515 255.066 -33.3446 253.763 -32.5923Z" fill="#D9D9D9" fill-opacity="0.15"/>
<path d="M161.733 100.769L165.867 98.3822L167.42 100.776C167.454 99.5026 167.803 98.3323 168.469 97.2646C169.155 96.1846 170.065 95.3177 171.197 94.6641C173.504 93.3321 175.879 93.1287 178.321 94.0541C180.785 94.9671 182.708 96.6199 184.089 99.0124C185.483 101.426 185.956 103.973 185.509 106.652C185.071 109.297 183.656 111.311 181.264 112.692C179.149 113.913 177.026 114.085 174.896 113.207L179.576 121.314L175.09 123.904L161.733 100.769ZM172.47 99.312C171.189 100.052 170.436 101.141 170.213 102.58C169.999 103.986 170.275 105.351 171.039 106.675C171.792 107.978 172.836 108.899 174.172 109.438C175.53 109.964 176.85 109.857 178.131 109.117C179.413 108.377 180.161 107.304 180.375 105.899C180.598 104.46 180.327 103.078 179.563 101.754C178.798 100.43 177.754 99.5087 176.43 98.9915C175.093 98.4528 173.774 98.5596 172.47 99.312ZM182.198 88.9533L186.332 86.5668L187.972 89.0377C187.753 86.6859 188.648 84.9303 190.656 83.771C190.87 83.6477 191.181 83.4963 191.59 83.3171C192.024 83.1805 192.334 83.1011 192.521 83.0789L194.593 87.7783C194.187 87.8138 193.652 88.0227 192.99 88.405C191.687 89.1573 190.943 90.1137 190.758 91.2741C190.583 92.4008 190.884 93.637 191.661 94.9828L196.452 103.282L191.966 105.872L182.198 88.9533ZM198.721 90.6505C197.29 88.1725 196.855 85.6182 197.415 82.9875C197.997 80.3445 199.527 78.3077 202.005 76.877C204.526 75.4217 207.015 75.0955 209.472 75.8984C211.929 76.7013 213.916 78.4165 215.433 81.044L216.081 82.1655L203.937 89.177C204.82 90.2623 205.829 90.9753 206.966 91.3159C208.103 91.6566 209.248 91.4939 210.401 90.8279C211.961 89.9276 212.771 88.5197 212.833 86.6041L217.579 85.5733C217.84 87.3589 217.479 89.077 216.495 90.7274C215.533 92.3655 214.218 93.6655 212.552 94.6275C210.031 96.0828 207.472 96.4354 204.874 95.6851C202.264 94.9135 200.213 93.2353 198.721 90.6505ZM207.062 79.9386C206.048 79.6126 205.028 79.7457 204.003 80.3377C202.978 80.9297 202.331 81.7586 202.064 82.8246C201.805 83.8568 201.871 84.9579 202.262 86.128L209.728 81.8175C208.974 80.8571 208.085 80.2308 207.062 79.9386ZM219.822 84.1498L223.36 80.9537C224.678 82.1012 226.138 82.2125 227.74 81.2875C228.402 80.9052 228.899 80.4333 229.23 79.872C229.57 79.2769 229.561 78.6696 229.203 78.0501C228.636 77.0675 227.375 76.9553 225.42 77.7136L224.43 78.0714C222.646 78.731 220.986 78.9633 219.449 78.7682C217.922 78.5394 216.726 77.6773 215.863 76.182C214.864 74.4517 214.728 72.7359 215.454 71.0346C216.181 69.3333 217.442 67.9647 219.236 66.9287C220.86 65.9913 222.519 65.5602 224.214 65.6353C225.919 65.6766 227.38 66.357 228.597 67.6764L225.073 70.822C223.792 69.7385 222.489 69.5791 221.165 70.3437C220.588 70.6767 220.151 71.1284 219.854 71.6988C219.544 72.2479 219.55 72.8001 219.87 73.3555C220.364 74.21 221.621 74.2671 223.644 73.5269L224.633 73.1691C226.451 72.5185 228.123 72.3076 229.651 72.5363C231.167 72.7438 232.362 73.6058 233.238 75.1225C234.261 76.8956 234.38 78.6788 233.592 80.4721C232.826 82.2531 231.514 83.6801 229.655 84.7531C228.01 85.7028 226.281 86.1603 224.466 86.1255C222.652 86.0907 221.104 85.4322 219.822 84.1498ZM235.562 75.0624L239.1 71.8663C240.418 73.0138 241.877 73.1251 243.48 72.2001C244.142 71.8178 244.638 71.3459 244.969 70.7846C245.309 70.1895 245.301 69.5822 244.943 68.9627C244.376 67.9801 243.115 67.8679 241.16 68.6262L240.17 68.984C238.386 69.6436 236.726 69.8759 235.189 69.6808C233.661 69.452 232.466 68.5899 231.603 67.0946C230.604 65.3643 230.467 63.6485 231.194 61.9472C231.921 60.2459 233.181 58.8773 234.976 57.8413C236.599 56.9039 238.259 56.4728 239.954 56.5479C241.658 56.5892 243.119 57.2696 244.337 58.589L240.812 61.7346C239.532 60.6511 238.229 60.4917 236.905 61.2563C236.328 61.5893 235.891 62.041 235.594 62.6114C235.284 63.1605 235.29 63.7127 235.61 64.2681C236.104 65.1226 237.361 65.1797 239.383 64.4395L240.373 64.0817C242.191 63.4311 243.863 63.2202 245.391 63.4489C246.906 63.6564 248.102 64.5184 248.978 66.0351C250.001 67.8082 250.119 69.5914 249.332 71.3847C248.566 73.1657 247.253 74.5927 245.395 75.6657C243.75 76.6154 242.02 77.0729 240.206 77.0381C238.391 77.0033 236.843 76.3448 235.562 75.0624ZM254.769 69.6127L240.968 45.7086L245.454 43.1186L250.56 51.9625C250.728 49.7864 251.869 48.0879 253.984 46.8669C255.971 45.7199 257.893 45.5216 259.75 46.2721C261.608 47.0226 263.141 48.4446 264.349 50.5381L270.214 60.6957L265.728 63.2857L260.196 53.7048C259.567 52.6154 258.804 51.86 257.905 51.4387C256.995 50.9961 256.027 51.0708 255.001 51.6628C253.976 52.2548 253.346 53.0882 253.112 54.1632C252.866 55.2168 253.045 56.2669 253.65 57.3137L259.255 67.0227L254.769 69.6127ZM268.27 50.539C266.814 48.0183 266.437 45.4163 267.138 42.733C267.848 40.016 269.474 37.9237 272.016 36.456C274.537 35.0007 277.118 34.6358 279.758 35.3614C282.399 36.087 284.459 37.7315 285.939 40.2949C287.407 42.837 287.796 45.4604 287.108 48.165C286.428 50.836 284.796 52.9176 282.211 54.41C279.69 55.8653 277.104 56.2195 274.451 55.4725C271.798 54.7256 269.737 53.081 268.27 50.539ZM274.283 40.5304C273.001 41.2704 272.249 42.3599 272.026 43.7989C271.812 45.2042 272.087 46.569 272.852 47.8935C273.604 49.1965 274.649 50.1174 275.985 50.6561C277.343 51.1824 278.662 51.0755 279.944 50.3355C281.226 49.5955 281.974 48.5229 282.188 47.1176C282.411 45.6786 282.14 44.2969 281.375 42.9725C280.611 41.648 279.566 40.7272 278.242 40.2099C276.906 39.6712 275.586 39.7781 274.283 40.5304ZM284.022 30.1652L288.156 27.7787L289.708 30.172C289.743 28.8991 290.092 27.7288 290.757 26.6611C291.444 25.5811 292.354 24.7142 293.486 24.0606C295.793 22.7286 298.168 22.5252 300.61 23.4506C303.074 24.3636 304.997 26.0164 306.378 28.4089C307.772 30.8228 308.245 33.3693 307.798 36.0484C307.36 38.6938 305.945 40.7072 303.552 42.0885C301.438 43.3095 299.315 43.4811 297.185 42.6033L301.865 50.7102L297.379 53.3002L284.022 30.1652ZM294.759 28.7085C293.478 29.4485 292.725 30.538 292.502 31.9769C292.288 33.3822 292.563 34.7471 293.328 36.0715C294.08 37.3746 295.125 38.2955 296.461 38.8341C297.819 39.3604 299.139 39.2536 300.42 38.5136C301.702 37.7736 302.45 36.701 302.664 35.2957C302.887 33.8567 302.616 32.475 301.852 31.1505C301.087 29.8261 300.043 28.9052 298.718 28.3879C297.382 27.8493 296.062 27.9561 294.759 28.7085Z" fill="#D9D9D9" fill-opacity="0.15"/>
<path d="M201.733 183.769L205.867 181.382L207.42 183.776C207.454 182.503 207.803 181.332 208.469 180.265C209.155 179.185 210.065 178.318 211.197 177.664C213.504 176.332 215.879 176.129 218.321 177.054C220.785 177.967 222.708 179.62 224.089 182.012C225.483 184.426 225.956 186.973 225.509 189.652C225.071 192.297 223.656 194.311 221.264 195.692C219.149 196.913 217.026 197.085 214.896 196.207L219.576 204.314L215.09 206.904L201.733 183.769ZM212.47 182.312C211.189 183.052 210.436 184.141 210.213 185.58C209.999 186.986 210.275 188.351 211.039 189.675C211.792 190.978 212.836 191.899 214.172 192.438C215.53 192.964 216.85 192.857 218.131 192.117C219.413 191.377 220.161 190.304 220.375 188.899C220.598 187.46 220.327 186.078 219.563 184.754C218.798 183.43 217.754 182.509 216.43 181.991C215.093 181.453 213.774 181.56 212.47 182.312ZM222.198 171.953L226.332 169.567L227.972 172.038C227.753 169.686 228.648 167.93 230.656 166.771C230.87 166.648 231.181 166.496 231.59 166.317C232.024 166.181 232.334 166.101 232.521 166.079L234.593 170.778C234.187 170.814 233.652 171.023 232.99 171.405C231.687 172.157 230.943 173.114 230.758 174.274C230.583 175.401 230.884 176.637 231.661 177.983L236.452 186.282L231.966 188.872L222.198 171.953ZM238.721 173.65C237.29 171.172 236.855 168.618 237.415 165.988C237.997 163.345 239.527 161.308 242.005 159.877C244.526 158.422 247.015 158.095 249.472 158.898C251.929 159.701 253.916 161.417 255.433 164.044L256.081 165.166L243.937 172.177C244.82 173.262 245.829 173.975 246.966 174.316C248.103 174.657 249.248 174.494 250.401 173.828C251.961 172.928 252.771 171.52 252.833 169.604L257.579 168.573C257.84 170.359 257.479 172.077 256.495 173.727C255.533 175.365 254.218 176.666 252.552 177.628C250.031 179.083 247.472 179.435 244.874 178.685C242.264 177.913 240.213 176.235 238.721 173.65ZM247.062 162.939C246.048 162.613 245.028 162.746 244.003 163.338C242.978 163.93 242.331 164.759 242.064 165.825C241.805 166.857 241.871 167.958 242.262 169.128L249.728 164.817C248.974 163.857 248.085 163.231 247.062 162.939ZM259.822 167.15L263.36 163.954C264.678 165.101 266.138 165.213 267.74 164.288C268.402 163.905 268.899 163.433 269.23 162.872C269.57 162.277 269.561 161.67 269.203 161.05C268.636 160.067 267.375 159.955 265.42 160.714L264.43 161.071C262.646 161.731 260.986 161.963 259.449 161.768C257.922 161.539 256.726 160.677 255.863 159.182C254.864 157.452 254.728 155.736 255.454 154.035C256.181 152.333 257.442 150.965 259.236 149.929C260.86 148.991 262.519 148.56 264.214 148.635C265.919 148.677 267.38 149.357 268.597 150.676L265.073 153.822C263.792 152.738 262.489 152.579 261.165 153.344C260.588 153.677 260.151 154.128 259.854 154.699C259.544 155.248 259.55 155.8 259.87 156.355C260.364 157.21 261.621 157.267 263.644 156.527L264.633 156.169C266.451 155.518 268.123 155.308 269.651 155.536C271.167 155.744 272.362 156.606 273.238 158.123C274.261 159.896 274.38 161.679 273.592 163.472C272.826 165.253 271.514 166.68 269.655 167.753C268.01 168.703 266.281 169.16 264.466 169.125C262.652 169.091 261.104 168.432 259.822 167.15ZM275.562 158.062L279.1 154.866C280.418 156.014 281.877 156.125 283.48 155.2C284.142 154.818 284.638 154.346 284.969 153.785C285.309 153.19 285.301 152.582 284.943 151.963C284.376 150.98 283.115 150.868 281.16 151.626L280.17 151.984C278.386 152.644 276.726 152.876 275.189 152.681C273.661 152.452 272.466 151.59 271.603 150.095C270.604 148.364 270.467 146.648 271.194 144.947C271.921 143.246 273.181 141.877 274.976 140.841C276.599 139.904 278.259 139.473 279.954 139.548C281.658 139.589 283.119 140.27 284.337 141.589L280.812 144.735C279.532 143.651 278.229 143.492 276.905 144.256C276.328 144.589 275.891 145.041 275.594 145.611C275.284 146.16 275.29 146.713 275.61 147.268C276.104 148.123 277.361 148.18 279.383 147.439L280.373 147.082C282.191 146.431 283.863 146.22 285.391 146.449C286.906 146.656 288.102 147.518 288.978 149.035C290.001 150.808 290.119 152.591 289.332 154.385C288.566 156.166 287.253 157.593 285.395 158.666C283.75 159.615 282.02 160.073 280.206 160.038C278.391 160.003 276.843 159.345 275.562 158.062ZM294.769 152.613L280.968 128.709L285.454 126.119L290.56 134.962C290.728 132.786 291.869 131.088 293.984 129.867C295.971 128.72 297.893 128.522 299.75 129.272C301.608 130.023 303.141 131.445 304.349 133.538L310.214 143.696L305.728 146.286L300.196 136.705C299.567 135.615 298.804 134.86 297.905 134.439C296.995 133.996 296.027 134.071 295.001 134.663C293.976 135.255 293.346 136.088 293.112 137.163C292.866 138.217 293.045 139.267 293.65 140.314L299.255 150.023L294.769 152.613ZM308.27 133.539C306.814 131.018 306.437 128.416 307.138 125.733C307.848 123.016 309.474 120.924 312.016 119.456C314.537 118.001 317.118 117.636 319.758 118.361C322.399 119.087 324.459 120.731 325.939 123.295C327.407 125.837 327.796 128.46 327.108 131.165C326.428 133.836 324.796 135.918 322.211 137.41C319.69 138.865 317.104 139.219 314.451 138.473C311.798 137.726 309.737 136.081 308.27 133.539ZM314.283 123.53C313.001 124.27 312.249 125.36 312.026 126.799C311.812 128.204 312.087 129.569 312.852 130.893C313.604 132.197 314.649 133.117 315.985 133.656C317.343 134.182 318.662 134.076 319.944 133.336C321.226 132.596 321.974 131.523 322.188 130.118C322.411 128.679 322.14 127.297 321.375 125.972C320.611 124.648 319.566 123.727 318.242 123.21C316.906 122.671 315.586 122.778 314.283 123.53ZM324.022 113.165L328.156 110.779L329.708 113.172C329.743 111.899 330.092 110.729 330.757 109.661C331.444 108.581 332.354 107.714 333.486 107.061C335.793 105.729 338.168 105.525 340.61 106.451C343.074 107.364 344.997 109.016 346.378 111.409C347.772 113.823 348.245 116.369 347.798 119.048C347.36 121.694 345.945 123.707 343.552 125.089C341.438 126.31 339.315 126.481 337.185 125.603L341.865 133.71L337.379 136.3L324.022 113.165ZM334.759 111.708C333.478 112.448 332.725 113.538 332.502 114.977C332.288 116.382 332.563 117.747 333.328 119.072C334.08 120.375 335.125 121.295 336.461 121.834C337.819 122.36 339.139 122.254 340.42 121.514C341.702 120.774 342.45 119.701 342.664 118.296C342.887 116.857 342.616 115.475 341.852 114.151C341.087 112.826 340.043 111.905 338.718 111.388C337.382 110.849 336.062 110.956 334.759 111.708Z" fill="#D9D9D9" fill-opacity="0.15"/>
<path d="M-18.4034 149.769L-14.2699 147.382L-12.7172 149.776C-12.6831 148.503 -12.3334 147.332 -11.6681 146.265C-10.9814 145.185 -10.072 144.318 -8.93985 143.664C-6.63275 142.332 -4.25792 142.129 -1.81533 143.054C0.648616 143.967 2.57126 145.62 3.95259 148.012C5.34626 150.426 5.81959 152.973 5.37258 155.652C4.93461 158.297 3.51935 160.311 1.12681 161.692C-0.988023 162.913 -3.11059 163.085 -5.24089 162.207L-0.560388 170.314L-5.0464 172.904L-18.4034 149.769ZM-7.66626 148.312C-8.94798 149.052 -9.70037 150.141 -9.92343 151.58C-10.1375 152.986 -9.86214 154.351 -9.09747 155.675C-8.34514 156.978 -7.30079 157.899 -5.96443 158.438C-4.6067 158.964 -3.28698 158.857 -2.00526 158.117C-0.723545 157.377 0.0243287 156.304 0.238359 154.899C0.461418 153.46 0.190614 152.078 -0.574052 150.754C-1.33872 149.43 -2.38307 148.509 -3.7071 147.991C-5.04346 147.453 -6.36318 147.56 -7.66626 148.312ZM2.06152 137.953L6.19506 135.567L7.83528 138.038C7.61676 135.686 8.51151 133.93 10.5195 132.771C10.7332 132.648 11.0446 132.496 11.4537 132.317C11.8876 132.181 12.1978 132.101 12.3843 132.079L14.4567 136.778C14.0499 136.814 13.5154 137.023 12.8532 137.405C11.5501 138.157 10.8063 139.114 10.6218 140.274C10.4463 141.401 10.747 142.637 11.524 143.983L16.3155 152.282L11.8295 154.872L2.06152 137.953ZM18.5839 139.65C17.1532 137.172 16.7181 134.618 17.2785 131.988C17.8603 129.345 19.3902 127.308 21.8682 125.877C24.3889 124.422 26.8779 124.095 29.3353 124.898C31.7926 125.701 33.7798 127.417 35.2968 130.044L35.9443 131.166L23.8 138.177C24.6829 139.262 25.6927 139.975 26.8293 140.316C27.9659 140.657 29.111 140.494 30.2645 139.828C31.824 138.928 32.6346 137.52 32.6964 135.604L37.4418 134.573C37.7037 136.359 37.3427 138.077 36.3587 139.727C35.3961 141.365 34.0817 142.666 32.4155 143.628C29.8948 145.083 27.3355 145.435 24.7377 144.685C22.1275 143.913 20.0762 142.235 18.5839 139.65ZM26.9255 128.939C25.9113 128.613 24.8916 128.746 23.8662 129.338C22.8408 129.93 22.1943 130.759 21.9268 131.825C21.6683 132.857 21.7344 133.958 22.1251 135.128L29.5911 130.817C28.8372 129.857 27.9487 129.231 26.9255 128.939ZM39.6854 133.15L43.2233 129.954C44.5409 131.101 46.0008 131.213 47.603 130.288C48.2652 129.905 48.7618 129.433 49.0928 128.872C49.4328 128.277 49.424 127.67 49.0663 127.05C48.499 126.067 47.238 125.955 45.2832 126.714L44.2935 127.071C42.5097 127.731 40.8494 127.963 39.3126 127.768C37.7849 127.539 36.5894 126.677 35.726 125.182C34.727 123.452 34.5909 121.736 35.3176 120.035C36.0443 118.333 37.3049 116.965 39.0993 115.929C40.7228 114.991 42.3822 114.56 44.0775 114.635C45.7819 114.677 47.2428 115.357 48.4603 116.676L44.9359 119.822C43.6552 118.738 42.3527 118.579 41.0282 119.344C40.4515 119.677 40.0144 120.128 39.7171 120.699C39.4075 121.248 39.413 121.8 39.7337 122.355C40.227 123.21 41.4848 123.267 43.5069 122.527L44.4966 122.169C46.3141 121.518 47.9868 121.308 49.5145 121.536C51.0299 121.744 52.2254 122.606 53.1011 124.123C54.1248 125.896 54.2428 127.679 53.4553 129.472C52.6892 131.253 51.3769 132.68 49.5184 133.753C47.8735 134.703 46.1439 135.16 44.3294 135.125C42.5149 135.091 40.9669 134.432 39.6854 133.15ZM55.4252 124.062L58.9631 120.866C60.2808 122.014 61.7407 122.125 63.3428 121.2C64.0051 120.818 64.5017 120.346 64.8327 119.785C65.1727 119.19 65.1639 118.582 64.8062 117.963C64.2389 116.98 62.9778 116.868 61.0231 117.626L60.0334 117.984C58.2495 118.644 56.5892 118.876 55.0525 118.681C53.5247 118.452 52.3292 117.59 51.4659 116.095C50.4669 114.364 50.3307 112.648 51.0574 110.947C51.7842 109.246 53.0447 107.877 54.8391 106.841C56.4626 105.904 58.122 105.473 59.8174 105.548C61.5217 105.589 62.9826 106.27 64.2001 107.589L60.6757 110.735C59.3951 109.651 58.0925 109.492 56.7681 110.256C56.1913 110.589 55.7543 111.041 55.457 111.611C55.1473 112.16 55.1529 112.713 55.4735 113.268C55.9669 114.123 57.2246 114.18 59.2467 113.439L60.2364 113.082C62.054 112.431 63.7266 112.22 65.2543 112.449C66.7697 112.656 67.9653 113.518 68.8409 115.035C69.8646 116.808 69.9827 118.591 69.1952 120.385C68.4291 122.166 67.1167 123.593 65.2583 124.666C63.6134 125.615 61.8837 126.073 60.0692 126.038C58.2548 126.003 56.7068 125.345 55.4252 124.062ZM74.6324 118.613L60.8314 94.7086L65.3174 92.1186L70.4234 100.962C70.5912 98.7864 71.7325 97.0879 73.8473 95.8669C75.834 94.7199 77.7561 94.5216 79.6135 95.2721C81.4709 96.0226 83.004 97.4446 84.2126 99.5381L90.0771 109.696L85.5911 112.286L80.0596 102.705C79.4306 101.615 78.667 100.86 77.7686 100.439C76.858 99.9961 75.89 100.071 74.8646 100.663C73.8392 101.255 73.2096 102.088 72.9757 103.163C72.7295 104.217 72.9086 105.267 73.5129 106.314L79.1184 116.023L74.6324 118.613ZM88.1331 99.539C86.6777 97.0183 86.3005 94.4163 87.0015 91.733C87.7114 89.016 89.3374 86.9237 91.8795 85.456C94.4002 84.0007 96.9809 83.6358 99.6214 84.3614C102.262 85.087 104.322 86.7315 105.802 89.2949C107.27 91.837 107.659 94.4604 106.971 97.165C106.291 99.836 104.659 101.918 102.074 103.41C99.5536 104.865 96.9668 105.219 94.3139 104.473C91.661 103.726 89.6007 102.081 88.1331 99.539ZM94.1464 89.5304C92.8647 90.2704 92.1123 91.3599 91.8893 92.7989C91.6752 94.2042 91.9505 95.569 92.7152 96.8935C93.4675 98.1965 94.5119 99.1174 95.8483 99.6561C97.206 100.182 98.5257 100.076 99.8074 99.3355C101.089 98.5955 101.837 97.5229 102.051 96.1176C102.274 94.6786 102.003 93.2969 101.239 91.9725C100.474 90.648 99.4296 89.7272 98.1056 89.2099C96.7692 88.6712 95.4495 88.7781 94.1464 89.5304ZM103.885 79.1652L108.019 76.7787L109.572 79.172C109.606 77.8991 109.955 76.7288 110.621 75.6611C111.307 74.5811 112.217 73.7142 113.349 73.0606C115.656 71.7286 118.031 71.5252 120.474 72.4506C122.937 73.3636 124.86 75.0164 126.241 77.4089C127.635 79.8228 128.108 82.3693 127.661 85.0484C127.223 87.6938 125.808 89.7072 123.416 91.0885C121.301 92.3095 119.178 92.4811 117.048 91.6033L121.728 99.7102L117.242 102.3L103.885 79.1652ZM114.623 77.7085C113.341 78.4485 112.589 79.538 112.365 80.9769C112.151 82.3822 112.427 83.7471 113.191 85.0715C113.944 86.3746 114.988 87.2955 116.324 87.8341C117.682 88.3604 119.002 88.2536 120.284 87.5136C121.565 86.7736 122.313 85.701 122.527 84.2957C122.75 82.8567 122.479 81.475 121.715 80.1505C120.95 78.8261 119.906 77.9052 118.582 77.3879C117.245 76.8493 115.926 76.9561 114.623 77.7085Z" fill="#D9D9D9" fill-opacity="0.15"/>
<path d="M14.5302 231.675L18.6637 229.288L20.2164 231.682C20.2505 230.409 20.6002 229.239 21.2655 228.171C21.9521 227.091 22.8616 226.224 23.9937 225.57C26.3008 224.238 28.6757 224.035 31.1183 224.96C33.5822 225.873 35.5048 227.526 36.8862 229.919C38.2798 232.333 38.7532 234.879 38.3062 237.558C37.8682 240.204 36.4529 242.217 34.0604 243.598C31.9456 244.819 29.823 244.991 27.6927 244.113L32.3732 252.22L27.8872 254.81L14.5302 231.675ZM25.2673 230.218C23.9856 230.958 23.2332 232.048 23.0102 233.487C22.7961 234.892 23.0715 236.257 23.8361 237.581C24.5885 238.884 25.6328 239.805 26.9692 240.344C28.3269 240.87 29.6466 240.763 30.9283 240.023C32.21 239.283 32.9579 238.211 33.172 236.805C33.395 235.366 33.1242 233.985 32.3595 232.66C31.5949 231.336 30.5505 230.415 29.2265 229.898C27.8901 229.359 26.5704 229.466 25.2673 230.218ZM34.9951 219.86L39.1287 217.473L40.7689 219.944C40.5504 217.592 41.4451 215.837 43.4531 214.677C43.6667 214.554 43.9781 214.403 44.3873 214.223C44.8212 214.087 45.1314 214.007 45.3179 213.985L47.3903 218.685C46.9835 218.72 46.449 218.929 45.7868 219.311C44.4837 220.064 43.7399 221.02 43.5554 222.18C43.3799 223.307 43.6806 224.543 44.4576 225.889L49.2491 234.188L44.7631 236.778L34.9951 219.86ZM51.5175 221.557C50.0868 219.079 49.6517 216.524 50.2121 213.894C50.7939 211.251 52.3238 209.214 54.8018 207.783C57.3225 206.328 59.8115 206.002 62.2689 206.805C64.7262 207.608 66.7134 209.323 68.2304 211.95L68.8779 213.072L56.7336 220.083C57.6165 221.169 58.6263 221.882 59.7629 222.222C60.8995 222.563 62.0446 222.4 63.1981 221.734C64.7575 220.834 65.5682 219.426 65.63 217.51L70.3754 216.48C70.6373 218.265 70.2763 219.983 69.2923 221.634C68.3297 223.272 67.0153 224.572 65.3491 225.534C62.8284 226.989 60.2691 227.342 57.6713 226.591C55.0611 225.82 53.0098 224.142 51.5175 221.557ZM59.8591 210.845C58.8449 210.519 57.8252 210.652 56.7998 211.244C55.7744 211.836 55.1279 212.665 54.8604 213.731C54.6019 214.763 54.668 215.864 55.0587 217.034L62.5247 212.724C61.7708 211.763 60.8823 211.137 59.8591 210.845ZM72.619 215.056L76.1569 211.86C77.4745 213.007 78.9344 213.119 80.5366 212.194C81.1988 211.811 81.6954 211.34 82.0264 210.778C82.3664 210.183 82.3576 209.576 81.9999 208.956C81.4326 207.974 80.1716 207.862 78.2168 208.62L77.2271 208.978C75.4433 209.637 73.783 209.87 72.2462 209.674C70.7185 209.446 69.5229 208.584 68.6596 207.088C67.6606 205.358 67.5245 203.642 68.2512 201.941C68.9779 200.24 70.2385 198.871 72.0329 197.835C73.6564 196.898 75.3158 196.466 77.0111 196.542C78.7155 196.583 80.1764 197.263 81.3938 198.583L77.8695 201.728C76.5888 200.645 75.2863 200.485 73.9618 201.25C73.3851 201.583 72.948 202.035 72.6507 202.605C72.3411 203.154 72.3466 203.706 72.6673 204.262C73.1606 205.116 74.4183 205.173 76.4405 204.433L77.4302 204.075C79.2477 203.425 80.9204 203.214 82.4481 203.443C83.9635 203.65 85.159 204.512 86.0347 206.029C87.0584 207.802 87.1764 209.585 86.3889 211.378C85.6228 213.159 84.3105 214.586 82.452 215.659C80.8071 216.609 79.0775 217.067 77.263 217.032C75.4485 216.997 73.9005 216.338 72.619 215.056ZM88.3588 205.969L91.8967 202.773C93.2144 203.92 94.6743 204.031 96.2764 203.106C96.9387 202.724 97.4353 202.252 97.7662 201.691C98.1063 201.096 98.0974 200.488 97.7398 199.869C97.1724 198.886 95.9114 198.774 93.9567 199.532L92.967 199.89C91.1831 200.55 89.5228 200.782 87.9861 200.587C86.4583 200.358 85.2628 199.496 84.3995 198.001C83.4005 196.271 83.2643 194.555 83.991 192.853C84.7177 191.152 85.9783 189.784 87.7727 188.748C89.3962 187.81 91.0556 187.379 92.751 187.454C94.4553 187.495 95.9162 188.176 97.1337 189.495L93.6093 192.641C92.3287 191.557 91.0261 191.398 89.7017 192.163C89.1249 192.496 88.6879 192.947 88.3906 193.518C88.0809 194.067 88.0865 194.619 88.4071 195.174C88.9005 196.029 90.1582 196.086 92.1803 195.346L93.17 194.988C94.9876 194.337 96.6602 194.126 98.1879 194.355C99.7033 194.563 100.899 195.425 101.775 196.941C102.798 198.714 102.916 200.498 102.129 202.291C101.363 204.072 100.05 205.499 98.1918 206.572C96.547 207.522 94.8173 207.979 93.0028 207.944C91.1884 207.91 89.6404 207.251 88.3588 205.969ZM107.566 200.519L93.765 176.615L98.251 174.025L103.357 182.869C103.525 180.693 104.666 178.994 106.781 177.773C108.768 176.626 110.69 176.428 112.547 177.178C114.405 177.929 115.938 179.351 117.146 181.444L123.011 191.602L118.525 194.192L112.993 184.611C112.364 183.522 111.601 182.766 110.702 182.345C109.792 181.902 108.824 181.977 107.798 182.569C106.773 183.161 106.143 183.994 105.909 185.069C105.663 186.123 105.842 187.173 106.447 188.22L112.052 197.929L107.566 200.519ZM121.067 181.445C119.611 178.925 119.234 176.323 119.935 173.639C120.645 170.922 122.271 168.83 124.813 167.362C127.334 165.907 129.914 165.542 132.555 166.268C135.196 166.993 137.256 168.638 138.736 171.201C140.204 173.743 140.593 176.367 139.904 179.071C139.225 181.742 137.593 183.824 135.008 185.316C132.487 186.772 129.9 187.126 127.248 186.379C124.595 185.632 122.534 183.987 121.067 181.445ZM127.08 171.437C125.798 172.177 125.046 173.266 124.823 174.705C124.609 176.11 124.884 177.475 125.649 178.8C126.401 180.103 127.445 181.024 128.782 181.562C130.14 182.089 131.459 181.982 132.741 181.242C134.023 180.502 134.771 179.429 134.985 178.024C135.208 176.585 134.937 175.203 134.172 173.879C133.408 172.554 132.363 171.633 131.039 171.116C129.703 170.577 128.383 170.684 127.08 171.437ZM136.819 161.071L140.953 158.685L142.505 161.078C142.539 159.805 142.889 158.635 143.554 157.567C144.241 156.487 145.15 155.62 146.283 154.967C148.59 153.635 150.965 153.431 153.407 154.357C155.871 155.27 157.794 156.923 159.175 159.315C160.569 161.729 161.042 164.276 160.595 166.955C160.157 169.6 158.742 171.613 156.349 172.995C154.234 174.216 152.112 174.387 149.982 173.51L154.662 181.616L150.176 184.206L136.819 161.071ZM147.556 159.615C146.274 160.355 145.522 161.444 145.299 162.883C145.085 164.288 145.36 165.653 146.125 166.978C146.877 168.281 147.922 169.202 149.258 169.74C150.616 170.267 151.935 170.16 153.217 169.42C154.499 168.68 155.247 167.607 155.461 166.202C155.684 164.763 155.413 163.381 154.648 162.057C153.884 160.732 152.839 159.811 151.515 159.294C150.179 158.756 148.859 158.862 147.556 159.615Z" fill="#D9D9D9" fill-opacity="0.15"/>
</svg>
